%TF.GenerationSoftware,KiCad,Pcbnew,9.0.3*%
%TF.CreationDate,2025-09-20T21:36:46-05:00*%
%TF.ProjectId,RPNCalcProject,52504e43-616c-4635-9072-6f6a6563742e,rev?*%
%TF.SameCoordinates,Original*%
%TF.FileFunction,Legend,Top*%
%TF.FilePolarity,Positive*%
%FSLAX46Y46*%
G04 Gerber Fmt 4.6, Leading zero omitted, Abs format (unit mm)*
G04 Created by KiCad (PCBNEW 9.0.3) date 2025-09-20 21:36:46*
%MOMM*%
%LPD*%
G01*
G04 APERTURE LIST*
%ADD10C,0.150000*%
%ADD11C,0.125000*%
%ADD12C,0.100000*%
%ADD13C,0.120000*%
G04 APERTURE END LIST*
D10*
G36*
X157876291Y-120332424D02*
G01*
X157928253Y-120332424D01*
X157867742Y-120445508D01*
X157795019Y-120543510D01*
X158884586Y-120543510D01*
X158884586Y-120612509D01*
X157795019Y-120612509D01*
X157838480Y-120664464D01*
X157883567Y-120733692D01*
X157930268Y-120823596D01*
X157876962Y-120823596D01*
X157790343Y-120732555D01*
X157725288Y-120674364D01*
X157660118Y-120627562D01*
X157594190Y-120590649D01*
X157594190Y-120559875D01*
X157653128Y-120529275D01*
X157719853Y-120482694D01*
X157787540Y-120423553D01*
X157876291Y-120332424D01*
G37*
G36*
X159050855Y-120930819D02*
G01*
X159050855Y-119926492D01*
X159774973Y-119926492D01*
X159774973Y-120042752D01*
X159183417Y-120042752D01*
X159183417Y-120352451D01*
X159737421Y-120352451D01*
X159737421Y-120468711D01*
X159183417Y-120468711D01*
X159183417Y-120814559D01*
X159798238Y-120814559D01*
X159798238Y-120930819D01*
X159050855Y-120930819D01*
G37*
G36*
X159979771Y-120930819D02*
G01*
X159979771Y-119926492D01*
X160115753Y-119926492D01*
X160641730Y-120715030D01*
X160641730Y-119926492D01*
X160768798Y-119926492D01*
X160768798Y-120930819D01*
X160632876Y-120930819D01*
X160106838Y-120141609D01*
X160106838Y-120930819D01*
X159979771Y-120930819D01*
G37*
G36*
X161459944Y-120535145D02*
G01*
X161459944Y-120418885D01*
X161884194Y-120418214D01*
X161884194Y-120790135D01*
X161817031Y-120838589D01*
X161749939Y-120877371D01*
X161682632Y-120907188D01*
X161612565Y-120929063D01*
X161541693Y-120942099D01*
X161469530Y-120946450D01*
X161372724Y-120939211D01*
X161283788Y-120918049D01*
X161201352Y-120883252D01*
X161144346Y-120847821D01*
X161095436Y-120805836D01*
X161053894Y-120756967D01*
X161019330Y-120700559D01*
X160985533Y-120618878D01*
X160964913Y-120530292D01*
X160957842Y-120433418D01*
X160964743Y-120337379D01*
X160985127Y-120246776D01*
X161018963Y-120160538D01*
X161053675Y-120100123D01*
X161094394Y-120049223D01*
X161141289Y-120006839D01*
X161194879Y-119972349D01*
X161273529Y-119938758D01*
X161361089Y-119918041D01*
X161459272Y-119910860D01*
X161531024Y-119914940D01*
X161596198Y-119926750D01*
X161655643Y-119945848D01*
X161711482Y-119973133D01*
X161756894Y-120005644D01*
X161793274Y-120043362D01*
X161822675Y-120087090D01*
X161848122Y-120140848D01*
X161869173Y-120206333D01*
X161749616Y-120239123D01*
X161722967Y-120168130D01*
X161693562Y-120119261D01*
X161668979Y-120092936D01*
X161637485Y-120069657D01*
X161597941Y-120049468D01*
X161533354Y-120029966D01*
X161459944Y-120023212D01*
X161399822Y-120026553D01*
X161347832Y-120036011D01*
X161302835Y-120050934D01*
X161241869Y-120083782D01*
X161195917Y-120123840D01*
X161159679Y-120171407D01*
X161132719Y-120223003D01*
X161111675Y-120286084D01*
X161098862Y-120353145D01*
X161094495Y-120424869D01*
X161100143Y-120513413D01*
X161115931Y-120587462D01*
X161140596Y-120649390D01*
X161176348Y-120704861D01*
X161220800Y-120749174D01*
X161274808Y-120783479D01*
X161334853Y-120807819D01*
X161397017Y-120822367D01*
X161462020Y-120827260D01*
X161518754Y-120823611D01*
X161574603Y-120812660D01*
X161629998Y-120794226D01*
X161705744Y-120757985D01*
X161754379Y-120723701D01*
X161754379Y-120535145D01*
X161459944Y-120535145D01*
G37*
G36*
X175354603Y-100312614D02*
G01*
X172696413Y-100312614D01*
X172696413Y-100145947D01*
X173971424Y-100145947D01*
X174119984Y-100145947D01*
X174252796Y-99671139D01*
X174621262Y-99671139D01*
X175187936Y-99671139D01*
X175187936Y-99483560D01*
X174621262Y-99483560D01*
X174621262Y-99671139D01*
X174252796Y-99671139D01*
X174554492Y-98592562D01*
X174406939Y-98592562D01*
X173971424Y-100145947D01*
X172696413Y-100145947D01*
X172696413Y-99295982D01*
X172863080Y-99295982D01*
X172863080Y-99470371D01*
X173271943Y-99470371D01*
X173271943Y-99882165D01*
X173446149Y-99882165D01*
X173446149Y-99470371D01*
X173855011Y-99470371D01*
X173855011Y-99295982D01*
X173446149Y-99295982D01*
X173446149Y-98891516D01*
X173271943Y-98891516D01*
X173271943Y-99295982D01*
X172863080Y-99295982D01*
X172696413Y-99295982D01*
X172696413Y-98425895D01*
X175354603Y-98425895D01*
X175354603Y-100312614D01*
G37*
G36*
X205228203Y-88312614D02*
G01*
X201987219Y-88312614D01*
X201987219Y-88145947D01*
X203091870Y-88145947D01*
X203240431Y-88145947D01*
X203246990Y-88122500D01*
X203684373Y-88122500D01*
X203923059Y-88122500D01*
X204300140Y-87598873D01*
X204371947Y-87486216D01*
X204437526Y-87586600D01*
X204815614Y-88122500D01*
X205061536Y-88122500D01*
X204492847Y-87326115D01*
X205020503Y-86616010D01*
X204804349Y-86616010D01*
X204502006Y-87014614D01*
X204436775Y-87103723D01*
X204383213Y-87185706D01*
X204262221Y-87001333D01*
X203989738Y-86616010D01*
X203752975Y-86616010D01*
X204265335Y-87337381D01*
X203684373Y-88122500D01*
X203246990Y-88122500D01*
X203674939Y-86592562D01*
X203527386Y-86592562D01*
X203091870Y-88145947D01*
X201987219Y-88145947D01*
X201987219Y-86991167D01*
X202153886Y-86991167D01*
X202153886Y-87167021D01*
X202241492Y-87129154D01*
X202348059Y-87071492D01*
X202449321Y-87005160D01*
X202522723Y-86944089D01*
X202522723Y-88122500D01*
X202707188Y-88122500D01*
X202707188Y-86610148D01*
X202588303Y-86610148D01*
X202551542Y-86672365D01*
X202497988Y-86739732D01*
X202424355Y-86813114D01*
X202344094Y-86878432D01*
X202254210Y-86937796D01*
X202153886Y-86991167D01*
X201987219Y-86991167D01*
X201987219Y-86425895D01*
X205228203Y-86425895D01*
X205228203Y-88312614D01*
G37*
G36*
X189073981Y-110774267D02*
G01*
X189140950Y-110804598D01*
X189202142Y-110856803D01*
X189247800Y-110923276D01*
X189276425Y-111005432D01*
X189286680Y-111107579D01*
X189276555Y-111209823D01*
X189248515Y-111290658D01*
X189204157Y-111354783D01*
X189144313Y-111404235D01*
X189075141Y-111433771D01*
X188993681Y-111443993D01*
X188912691Y-111433884D01*
X188842350Y-111404428D01*
X188779999Y-111354783D01*
X188732615Y-111290661D01*
X188703634Y-111214497D01*
X188693445Y-111122875D01*
X188704247Y-111020393D01*
X188734869Y-110935329D01*
X188784578Y-110863947D01*
X188850491Y-110807416D01*
X188921089Y-110774902D01*
X188998810Y-110764021D01*
X189073981Y-110774267D01*
G37*
G36*
X189658328Y-112312614D02*
G01*
X188337185Y-112312614D01*
X188337185Y-111116097D01*
X188503852Y-111116097D01*
X188504395Y-111122875D01*
X188512601Y-111225229D01*
X188537528Y-111319220D01*
X188577564Y-111400725D01*
X188632903Y-111471745D01*
X188701815Y-111531302D01*
X188776412Y-111572943D01*
X188858014Y-111598058D01*
X188948526Y-111606659D01*
X189021571Y-111600528D01*
X189090410Y-111582364D01*
X189156072Y-111551979D01*
X189216098Y-111511245D01*
X189266166Y-111463783D01*
X189307197Y-111409188D01*
X189308204Y-111446191D01*
X189301280Y-111560389D01*
X189280544Y-111672421D01*
X189247736Y-111776579D01*
X189211851Y-111848734D01*
X189164972Y-111907586D01*
X189106887Y-111953056D01*
X189038775Y-111982009D01*
X188957777Y-111992074D01*
X188893677Y-111985383D01*
X188840111Y-111966373D01*
X188794836Y-111935471D01*
X188759296Y-111893527D01*
X188730208Y-111834377D01*
X188708741Y-111753204D01*
X188531512Y-111769782D01*
X188549361Y-111857712D01*
X188577977Y-111931936D01*
X188616703Y-111994603D01*
X188665693Y-112047303D01*
X188724072Y-112089575D01*
X188790463Y-112120213D01*
X188866351Y-112139274D01*
X188953655Y-112145947D01*
X189061448Y-112135674D01*
X189157126Y-112105867D01*
X189243175Y-112056737D01*
X189316881Y-111990196D01*
X189378850Y-111904598D01*
X189429105Y-111796618D01*
X189461586Y-111680826D01*
X189483514Y-111530311D01*
X189491661Y-111337564D01*
X189483193Y-111152020D01*
X189460889Y-111014251D01*
X189428647Y-110914322D01*
X189379106Y-110822787D01*
X189317804Y-110748450D01*
X189244182Y-110689191D01*
X189160327Y-110645237D01*
X189071544Y-110619016D01*
X188976187Y-110610148D01*
X188877234Y-110619173D01*
X188789327Y-110645329D01*
X188710288Y-110688299D01*
X188638582Y-110749183D01*
X188580764Y-110822432D01*
X188538978Y-110906502D01*
X188512977Y-111003468D01*
X188503852Y-111116097D01*
X188337185Y-111116097D01*
X188337185Y-110443481D01*
X189658328Y-110443481D01*
X189658328Y-112312614D01*
G37*
G36*
X147467668Y-112313923D02*
G01*
X142840270Y-112313923D01*
X142840270Y-111636178D01*
X143006937Y-111636178D01*
X143018167Y-111734796D01*
X143045673Y-111824756D01*
X143089460Y-111907745D01*
X143148019Y-111980739D01*
X143219525Y-112040403D01*
X143305615Y-112087538D01*
X143399418Y-112119340D01*
X143512171Y-112139878D01*
X143647341Y-112147256D01*
X143753331Y-112140408D01*
X143849356Y-112120566D01*
X143936861Y-112088363D01*
X144017499Y-112042722D01*
X144082593Y-111987834D01*
X144134056Y-111923316D01*
X144172575Y-111850148D01*
X144195203Y-111775194D01*
X144202750Y-111697177D01*
X144195572Y-111618447D01*
X144174675Y-111547728D01*
X144140193Y-111483404D01*
X144093220Y-111427362D01*
X144029709Y-111376237D01*
X143946569Y-111330080D01*
X143836647Y-111291015D01*
X143614094Y-111234276D01*
X143449748Y-111190774D01*
X143358395Y-111155314D01*
X143314408Y-111127115D01*
X143281916Y-111089018D01*
X143262625Y-111045221D01*
X143255973Y-110993849D01*
X143264873Y-110935453D01*
X143291536Y-110882979D01*
X143338405Y-110834389D01*
X143397440Y-110800368D01*
X143482219Y-110777143D01*
X143601271Y-110768261D01*
X143714721Y-110777669D01*
X143799813Y-110802936D01*
X143863038Y-110841259D01*
X143912576Y-110895511D01*
X143947487Y-110965993D01*
X143967086Y-111056956D01*
X144157687Y-111042576D01*
X144146993Y-110956566D01*
X144122386Y-110878185D01*
X144083864Y-110805996D01*
X144032387Y-110742771D01*
X143967631Y-110690162D01*
X143887676Y-110647727D01*
X143801035Y-110618526D01*
X143794587Y-110617319D01*
X144318338Y-110617319D01*
X144897285Y-111484869D01*
X144897285Y-112123809D01*
X145096037Y-112123809D01*
X145867509Y-112123809D01*
X146059117Y-112123809D01*
X146059117Y-110840709D01*
X146493534Y-112123809D01*
X146672869Y-112123809D01*
X147109392Y-110862233D01*
X147109392Y-112123809D01*
X147301001Y-112123809D01*
X147301001Y-110617319D01*
X147033555Y-110617319D01*
X146673877Y-111665945D01*
X146593918Y-111907562D01*
X146522202Y-111684446D01*
X146166645Y-110617319D01*
X145867509Y-110617319D01*
X145867509Y-112123809D01*
X145096037Y-112123809D01*
X145096037Y-111484869D01*
X145695501Y-110617319D01*
X145463959Y-110617319D01*
X145172974Y-111060345D01*
X145009026Y-111326600D01*
X144856344Y-111071702D01*
X144560138Y-110617319D01*
X144318338Y-110617319D01*
X143794587Y-110617319D01*
X143703423Y-110600255D01*
X143593120Y-110593871D01*
X143493036Y-110599829D01*
X143401525Y-110617136D01*
X143317430Y-110645254D01*
X143239669Y-110685918D01*
X143177502Y-110735998D01*
X143128844Y-110795830D01*
X143092769Y-110864182D01*
X143071488Y-110934847D01*
X143064364Y-111009054D01*
X143070353Y-111076700D01*
X143087929Y-111138803D01*
X143117121Y-111196541D01*
X143156877Y-111247731D01*
X143209637Y-111294437D01*
X143277497Y-111336766D01*
X143376935Y-111377592D01*
X143567474Y-111430830D01*
X143756037Y-111479178D01*
X143834920Y-111504287D01*
X143919451Y-111546931D01*
X143970108Y-111593221D01*
X144000733Y-111650130D01*
X144011141Y-111716961D01*
X144000606Y-111783824D01*
X143968551Y-111846013D01*
X143936763Y-111881262D01*
X143894257Y-111912290D01*
X143838950Y-111938978D01*
X143747753Y-111963966D01*
X143638182Y-111972866D01*
X143553724Y-111967577D01*
X143477221Y-111952261D01*
X143407556Y-111927437D01*
X143342812Y-111892367D01*
X143293227Y-111852640D01*
X143256431Y-111808277D01*
X143229028Y-111757158D01*
X143208116Y-111694989D01*
X143194515Y-111619691D01*
X143006937Y-111636178D01*
X142840270Y-111636178D01*
X142840270Y-110427204D01*
X147467668Y-110427204D01*
X147467668Y-112313923D01*
G37*
G36*
X159448812Y-74343863D02*
G01*
X159527705Y-74367656D01*
X159583522Y-74403078D01*
X159626597Y-74452873D01*
X159652122Y-74510089D01*
X159660916Y-74577192D01*
X159650973Y-74646667D01*
X159620983Y-74711098D01*
X159590754Y-74747978D01*
X159552274Y-74777771D01*
X159504204Y-74800766D01*
X159419649Y-74820739D01*
X159291072Y-74828701D01*
X158863799Y-74828701D01*
X158863799Y-74334842D01*
X159339248Y-74334842D01*
X159448812Y-74343863D01*
G37*
G36*
X161075512Y-76279017D02*
G01*
X158498288Y-76279017D01*
X158498288Y-74828701D01*
X158664955Y-74828701D01*
X158664955Y-75672805D01*
X158863799Y-75672805D01*
X158863799Y-74997229D01*
X159094334Y-74997229D01*
X159204976Y-75004464D01*
X159250042Y-75020026D01*
X159295651Y-75044948D01*
X159339553Y-75081283D01*
X159396584Y-75146705D01*
X159540016Y-75356266D01*
X159738860Y-75672805D01*
X159988812Y-75672805D01*
X159950008Y-75611347D01*
X160172086Y-75611347D01*
X160172086Y-75689199D01*
X160309555Y-75823308D01*
X160397950Y-75924863D01*
X160467530Y-76024781D01*
X160513263Y-76112350D01*
X160560432Y-76112350D01*
X160614998Y-76013485D01*
X160684904Y-75915612D01*
X160772259Y-75818093D01*
X160908845Y-75688192D01*
X160908845Y-75609240D01*
X160773898Y-75679218D01*
X160670065Y-75746503D01*
X160592214Y-75811107D01*
X160592214Y-74300770D01*
X160488716Y-74300770D01*
X160488716Y-75811107D01*
X160342171Y-75702480D01*
X160172086Y-75611347D01*
X159950008Y-75611347D01*
X159727595Y-75259088D01*
X159645303Y-75145336D01*
X159562547Y-75056855D01*
X159515734Y-75021601D01*
X159442746Y-74981200D01*
X159551300Y-74959418D01*
X159638483Y-74928304D01*
X159707883Y-74889168D01*
X159762399Y-74842531D01*
X159807613Y-74784927D01*
X159839650Y-74721838D01*
X159859171Y-74652132D01*
X159865897Y-74574261D01*
X159858837Y-74493786D01*
X159838028Y-74419117D01*
X159803340Y-74348947D01*
X159756262Y-74286974D01*
X159700939Y-74240052D01*
X159636370Y-74206615D01*
X159565138Y-74186092D01*
X159465818Y-74171775D01*
X159331005Y-74166315D01*
X158664955Y-74166315D01*
X158664955Y-74828701D01*
X158498288Y-74828701D01*
X158498288Y-73999648D01*
X161075512Y-73999648D01*
X161075512Y-76279017D01*
G37*
G36*
X175051320Y-148078333D02*
G01*
X173964618Y-148078333D01*
X173964618Y-147745000D01*
X174297951Y-147745000D01*
X174717987Y-147745000D01*
X174717987Y-147322948D01*
X174297951Y-147322948D01*
X174297951Y-147745000D01*
X173964618Y-147745000D01*
X173964618Y-146989615D01*
X175051320Y-146989615D01*
X175051320Y-148078333D01*
G37*
G36*
X189499996Y-95637121D02*
G01*
X189575833Y-95637121D01*
X189256089Y-96969710D01*
X188747850Y-96270198D01*
X188544976Y-96332725D01*
X188510171Y-96289738D01*
X188818558Y-96184225D01*
X189233557Y-96749708D01*
X189499996Y-95637121D01*
G37*
G36*
X188277509Y-108179001D02*
G01*
X188339759Y-108197732D01*
X188394913Y-108228339D01*
X188444165Y-108271542D01*
X188482926Y-108323336D01*
X188511624Y-108385534D01*
X188529897Y-108460218D01*
X188536427Y-108550040D01*
X188535695Y-108582829D01*
X187994697Y-108582829D01*
X188002190Y-108642332D01*
X188016387Y-108691410D01*
X188036508Y-108731808D01*
X188062291Y-108764912D01*
X188106167Y-108799985D01*
X188156074Y-108820862D01*
X188213966Y-108828049D01*
X188257909Y-108823938D01*
X188296015Y-108812131D01*
X188329432Y-108792878D01*
X188357660Y-108766443D01*
X188383013Y-108729761D01*
X188405269Y-108680526D01*
X188532336Y-108696219D01*
X188505792Y-108766537D01*
X188468729Y-108823483D01*
X188420962Y-108869143D01*
X188379096Y-108895245D01*
X188331261Y-108914400D01*
X188276417Y-108926412D01*
X188213294Y-108930631D01*
X188134828Y-108923980D01*
X188067921Y-108905078D01*
X188010450Y-108874723D01*
X187960869Y-108832629D01*
X187921589Y-108781215D01*
X187892604Y-108719701D01*
X187874197Y-108646071D01*
X187867629Y-108557733D01*
X187873273Y-108480247D01*
X188001536Y-108480247D01*
X188406612Y-108480247D01*
X188396840Y-108421274D01*
X188380971Y-108377291D01*
X188360145Y-108345059D01*
X188328348Y-108314252D01*
X188292931Y-108292689D01*
X188253137Y-108279605D01*
X188207799Y-108275083D01*
X188153602Y-108281473D01*
X188106714Y-108300003D01*
X188065405Y-108330954D01*
X188033242Y-108371375D01*
X188011869Y-108420415D01*
X188001536Y-108480247D01*
X187873273Y-108480247D01*
X187874299Y-108466156D01*
X187892964Y-108389980D01*
X187922288Y-108326506D01*
X187961907Y-108273618D01*
X188012247Y-108229589D01*
X188068857Y-108198332D01*
X188132997Y-108179164D01*
X188206455Y-108172501D01*
X188277509Y-108179001D01*
G37*
G36*
X188757345Y-108442145D02*
G01*
X188630949Y-108442145D01*
X188872078Y-107895041D01*
X188971180Y-107895041D01*
X189213652Y-108442145D01*
X189090004Y-108442145D01*
X188921293Y-108034443D01*
X188757345Y-108442145D01*
G37*
G36*
X189256761Y-108915000D02*
G01*
X189644069Y-108391587D01*
X189302495Y-107910673D01*
X189460337Y-107910673D01*
X189641993Y-108167555D01*
X189722654Y-108290471D01*
X189758362Y-108235815D01*
X189801850Y-108176409D01*
X190003411Y-107910673D01*
X190147514Y-107910673D01*
X189795744Y-108384077D01*
X190174869Y-108915000D01*
X190010921Y-108915000D01*
X189758863Y-108557733D01*
X189715143Y-108490811D01*
X189667272Y-108565915D01*
X189415885Y-108915000D01*
X189256761Y-108915000D01*
G37*
G36*
X173673726Y-96915000D02*
G01*
X173522723Y-96915000D01*
X173405914Y-96610184D01*
X172987160Y-96610184D01*
X172877189Y-96915000D01*
X172736444Y-96915000D01*
X172895082Y-96500764D01*
X173025445Y-96500764D01*
X173364942Y-96500764D01*
X173260406Y-96223487D01*
X173216727Y-96102490D01*
X173189393Y-96015881D01*
X173166439Y-96111495D01*
X173135415Y-96207123D01*
X173025445Y-96500764D01*
X172895082Y-96500764D01*
X173121066Y-95910673D01*
X173263826Y-95910673D01*
X173673726Y-96915000D01*
G37*
G36*
X173930731Y-96915000D02*
G01*
X173930731Y-96026933D01*
X173600759Y-96026933D01*
X173600759Y-95910673D01*
X174394548Y-95910673D01*
X174394548Y-96026933D01*
X174063233Y-96026933D01*
X174063233Y-96915000D01*
X173930731Y-96915000D01*
G37*
G36*
X175253489Y-96915000D02*
G01*
X175102486Y-96915000D01*
X174985677Y-96610184D01*
X174566922Y-96610184D01*
X174456952Y-96915000D01*
X174316207Y-96915000D01*
X174474845Y-96500764D01*
X174605208Y-96500764D01*
X174944705Y-96500764D01*
X174840169Y-96223487D01*
X174796490Y-96102490D01*
X174769156Y-96015881D01*
X174746202Y-96111495D01*
X174715178Y-96207123D01*
X174605208Y-96500764D01*
X174474845Y-96500764D01*
X174700829Y-95910673D01*
X174843589Y-95910673D01*
X175253489Y-96915000D01*
G37*
G36*
X175357842Y-96915000D02*
G01*
X175357842Y-95910673D01*
X175493824Y-95910673D01*
X176019801Y-96699211D01*
X176019801Y-95910673D01*
X176146868Y-95910673D01*
X176146868Y-96915000D01*
X176010947Y-96915000D01*
X175484909Y-96125790D01*
X175484909Y-96915000D01*
X175357842Y-96915000D01*
G37*
G36*
X160655214Y-112289167D02*
G01*
X159349458Y-112289167D01*
X159349458Y-110807984D01*
X159516125Y-110807984D01*
X160251876Y-110807984D01*
X160163420Y-110918844D01*
X160075088Y-111049968D01*
X159986994Y-111203658D01*
X159910221Y-111362651D01*
X159846597Y-111525022D01*
X159795844Y-111691197D01*
X159756496Y-111861741D01*
X159734268Y-112004233D01*
X159726235Y-112122500D01*
X159915737Y-112122500D01*
X159930879Y-111972916D01*
X159954628Y-111834923D01*
X159986445Y-111707592D01*
X160044405Y-111531131D01*
X160116818Y-111356974D01*
X160204157Y-111184699D01*
X160303890Y-111017901D01*
X160398600Y-110883465D01*
X160488547Y-110777027D01*
X160488547Y-110633595D01*
X159516125Y-110633595D01*
X159516125Y-110807984D01*
X159349458Y-110807984D01*
X159349458Y-110466928D01*
X160655214Y-110466928D01*
X160655214Y-112289167D01*
G37*
G36*
X159763004Y-107908834D02*
G01*
X159819309Y-107925536D01*
X159867998Y-107952536D01*
X159910358Y-107990334D01*
X159947000Y-108040429D01*
X159977804Y-108105189D01*
X160001939Y-108187697D01*
X160017940Y-108291625D01*
X160023798Y-108421136D01*
X160017943Y-108550426D01*
X160001952Y-108654187D01*
X159977828Y-108736572D01*
X159947036Y-108801244D01*
X159910402Y-108851280D01*
X159868044Y-108889040D01*
X159819349Y-108916017D01*
X159763029Y-108932708D01*
X159697246Y-108938564D01*
X159631463Y-108932708D01*
X159575143Y-108916017D01*
X159526448Y-108889040D01*
X159484090Y-108851280D01*
X159447456Y-108801244D01*
X159416663Y-108736572D01*
X159392540Y-108654187D01*
X159376548Y-108550426D01*
X159372933Y-108470595D01*
X159497760Y-108470595D01*
X159506164Y-108588238D01*
X159523778Y-108675390D01*
X159548100Y-108738419D01*
X159577523Y-108782696D01*
X159611535Y-108812352D01*
X159650837Y-108829916D01*
X159697246Y-108835982D01*
X159743855Y-108829902D01*
X159783278Y-108812309D01*
X159817347Y-108782625D01*
X159846770Y-108738333D01*
X159871037Y-108675310D01*
X159888530Y-108588187D01*
X159896731Y-108470595D01*
X159497760Y-108470595D01*
X159372933Y-108470595D01*
X159370693Y-108421136D01*
X159372919Y-108371921D01*
X159497760Y-108371921D01*
X159896731Y-108371921D01*
X159888648Y-108258806D01*
X159874426Y-108177200D01*
X159856130Y-108120236D01*
X159835243Y-108082004D01*
X159804941Y-108047553D01*
X159772109Y-108024138D01*
X159736132Y-108010276D01*
X159695902Y-108005556D01*
X159649938Y-108011605D01*
X159610967Y-108029134D01*
X159577191Y-108058775D01*
X159547928Y-108103102D01*
X159523707Y-108166290D01*
X159506149Y-108253757D01*
X159497760Y-108371921D01*
X159372919Y-108371921D01*
X159376551Y-108291625D01*
X159392552Y-108187697D01*
X159416687Y-108105189D01*
X159447491Y-108040429D01*
X159484133Y-107990334D01*
X159526493Y-107952536D01*
X159575183Y-107925536D01*
X159631488Y-107908834D01*
X159697246Y-107902974D01*
X159763004Y-107908834D01*
G37*
G36*
X174322649Y-86903735D02*
G01*
X174388167Y-87085231D01*
X174544971Y-87501146D01*
X174035725Y-87501146D01*
X174200680Y-87060684D01*
X174247216Y-86917243D01*
X174281647Y-86773821D01*
X174322649Y-86903735D01*
G37*
G36*
X176514883Y-88289167D02*
G01*
X172362385Y-88289167D01*
X172362385Y-86790399D01*
X172529052Y-86790399D01*
X173024010Y-86790399D01*
X173024010Y-88122500D01*
X173222763Y-88122500D01*
X173602224Y-88122500D01*
X173813342Y-88122500D01*
X173978297Y-87665277D01*
X174606429Y-87665277D01*
X174781643Y-88122500D01*
X175008147Y-88122500D01*
X175164676Y-88122500D01*
X175355277Y-88122500D01*
X175355277Y-86938685D01*
X176144335Y-88122500D01*
X176348216Y-88122500D01*
X176348216Y-86616010D01*
X176157615Y-86616010D01*
X176157615Y-87798817D01*
X175368650Y-86616010D01*
X175164676Y-86616010D01*
X175164676Y-88122500D01*
X175008147Y-88122500D01*
X174393296Y-86616010D01*
X174179157Y-86616010D01*
X173840181Y-87501146D01*
X173602224Y-88122500D01*
X173222763Y-88122500D01*
X173222763Y-86790399D01*
X173719736Y-86790399D01*
X173719736Y-86616010D01*
X172529052Y-86616010D01*
X172529052Y-86790399D01*
X172362385Y-86790399D01*
X172362385Y-86449343D01*
X176514883Y-86449343D01*
X176514883Y-88289167D01*
G37*
G36*
X201554850Y-120915000D02*
G01*
X201554850Y-119910673D01*
X202230425Y-119910673D01*
X202230425Y-120026933D01*
X201687351Y-120026933D01*
X201687351Y-120340540D01*
X202157336Y-120340540D01*
X202157336Y-120456800D01*
X201687351Y-120456800D01*
X201687351Y-120915000D01*
X201554850Y-120915000D01*
G37*
G36*
X202857698Y-119914864D02*
G01*
X202926090Y-119925083D01*
X202981625Y-119942270D01*
X203030298Y-119966260D01*
X203073002Y-119997013D01*
X203120942Y-120045395D01*
X203160348Y-120102222D01*
X203191460Y-120168593D01*
X203212782Y-120239288D01*
X203226127Y-120318466D01*
X203230783Y-120407341D01*
X203227591Y-120483382D01*
X203218495Y-120550668D01*
X203204099Y-120610184D01*
X203172564Y-120693349D01*
X203135773Y-120756425D01*
X203091133Y-120809165D01*
X203044609Y-120847527D01*
X202991392Y-120876123D01*
X202925052Y-120897903D01*
X202852294Y-120910462D01*
X202764218Y-120915000D01*
X202402861Y-120915000D01*
X202402861Y-120798740D01*
X202535363Y-120798740D01*
X202749197Y-120798740D01*
X202842781Y-120793449D01*
X202904597Y-120780177D01*
X202956491Y-120757028D01*
X202994417Y-120727787D01*
X203022522Y-120693886D01*
X203047067Y-120651728D01*
X203067812Y-120599926D01*
X203081818Y-120545770D01*
X203090881Y-120481417D01*
X203094129Y-120405265D01*
X203090247Y-120323827D01*
X203079589Y-120257671D01*
X203063396Y-120204343D01*
X203042533Y-120161693D01*
X203004016Y-120109302D01*
X202962397Y-120072070D01*
X202917236Y-120047632D01*
X202880629Y-120037319D01*
X202825434Y-120029857D01*
X202745778Y-120026933D01*
X202535363Y-120026933D01*
X202535363Y-120798740D01*
X202402861Y-120798740D01*
X202402861Y-119910673D01*
X202747793Y-119910673D01*
X202857698Y-119914864D01*
G37*
G36*
X203435581Y-120915000D02*
G01*
X203435581Y-119910673D01*
X203568082Y-119910673D01*
X203568082Y-120915000D01*
X203435581Y-120915000D01*
G37*
G36*
X203756760Y-120589912D02*
G01*
X203881812Y-120578921D01*
X203890879Y-120629120D01*
X203904821Y-120670566D01*
X203923089Y-120704645D01*
X203947620Y-120734220D01*
X203980677Y-120760705D01*
X204023840Y-120784085D01*
X204070283Y-120800635D01*
X204121285Y-120810845D01*
X204177590Y-120814371D01*
X204250637Y-120808438D01*
X204311435Y-120791779D01*
X204348307Y-120773987D01*
X204376644Y-120753302D01*
X204397836Y-120729802D01*
X204419206Y-120688343D01*
X204426230Y-120643768D01*
X204419291Y-120599214D01*
X204398874Y-120561275D01*
X204365103Y-120530414D01*
X204308749Y-120501985D01*
X204256160Y-120485246D01*
X204130452Y-120453014D01*
X204003425Y-120417522D01*
X203937133Y-120390305D01*
X203891893Y-120362085D01*
X203856720Y-120330948D01*
X203830216Y-120296821D01*
X203810755Y-120258329D01*
X203799037Y-120216927D01*
X203795045Y-120171830D01*
X203799794Y-120122358D01*
X203813981Y-120075248D01*
X203838032Y-120029680D01*
X203870470Y-119989793D01*
X203911915Y-119956406D01*
X203963756Y-119929296D01*
X204019819Y-119910551D01*
X204080826Y-119899013D01*
X204147549Y-119895041D01*
X204221084Y-119899297D01*
X204286159Y-119911478D01*
X204343920Y-119930945D01*
X204397223Y-119959235D01*
X204440393Y-119994308D01*
X204474712Y-120036458D01*
X204500393Y-120084584D01*
X204516798Y-120136838D01*
X204523927Y-120194178D01*
X204396859Y-120203764D01*
X204383794Y-120143122D01*
X204360519Y-120096135D01*
X204327494Y-120059966D01*
X204285344Y-120034418D01*
X204228616Y-120017573D01*
X204152983Y-120011301D01*
X204073615Y-120017223D01*
X204017095Y-120032706D01*
X203977739Y-120055387D01*
X203946493Y-120087780D01*
X203928717Y-120122762D01*
X203922784Y-120161693D01*
X203927219Y-120195941D01*
X203940079Y-120225139D01*
X203961741Y-120250537D01*
X203991066Y-120269337D01*
X204051967Y-120292977D01*
X204161531Y-120321978D01*
X204309900Y-120359804D01*
X204383182Y-120385847D01*
X204438608Y-120416619D01*
X204480949Y-120450702D01*
X204512264Y-120488063D01*
X204535252Y-120530946D01*
X204549183Y-120578092D01*
X204553969Y-120630579D01*
X204548938Y-120682590D01*
X204533852Y-120732559D01*
X204508173Y-120781338D01*
X204473864Y-120824350D01*
X204430468Y-120860942D01*
X204376709Y-120891369D01*
X204318373Y-120912838D01*
X204254356Y-120926066D01*
X204183696Y-120930631D01*
X204093583Y-120925712D01*
X204018414Y-120912021D01*
X203955879Y-120890819D01*
X203898486Y-120859396D01*
X203850815Y-120819620D01*
X203811776Y-120770957D01*
X203782584Y-120715631D01*
X203764247Y-120655658D01*
X203756760Y-120589912D01*
G37*
G36*
X205206476Y-119913442D02*
G01*
X205264960Y-119920198D01*
X205334388Y-119938636D01*
X205388607Y-119966910D01*
X205419138Y-119992378D01*
X205445847Y-120024250D01*
X205468841Y-120063386D01*
X205485597Y-120105627D01*
X205495776Y-120150852D01*
X205499249Y-120199673D01*
X205493963Y-120262158D01*
X205478615Y-120318204D01*
X205453445Y-120369008D01*
X205417978Y-120415462D01*
X205384809Y-120444133D01*
X205341370Y-120468032D01*
X205285410Y-120486716D01*
X205214127Y-120499130D01*
X205124276Y-120503695D01*
X204867393Y-120503695D01*
X204867393Y-120915000D01*
X204734892Y-120915000D01*
X204734892Y-120387435D01*
X204867393Y-120387435D01*
X205126291Y-120387435D01*
X205192584Y-120383635D01*
X205243032Y-120373474D01*
X205280842Y-120358418D01*
X205308679Y-120339319D01*
X205338033Y-120303915D01*
X205356173Y-120259623D01*
X205362657Y-120203764D01*
X205358938Y-120162561D01*
X205348265Y-120126779D01*
X205330905Y-120095382D01*
X205307287Y-120068554D01*
X205279607Y-120048905D01*
X205247191Y-120035847D01*
X205206681Y-120029721D01*
X205123543Y-120026933D01*
X204867393Y-120026933D01*
X204867393Y-120387435D01*
X204734892Y-120387435D01*
X204734892Y-119910673D01*
X205112613Y-119910673D01*
X205206476Y-119913442D01*
G37*
G36*
X204941656Y-76069591D02*
G01*
X202507305Y-76069591D01*
X202507305Y-74737529D01*
X202729527Y-74737529D01*
X204305443Y-75172648D01*
X202729527Y-75605080D01*
X202729527Y-75847369D01*
X204719434Y-75284633D01*
X204719434Y-75057976D01*
X202729527Y-74495240D01*
X202729527Y-74737529D01*
X202507305Y-74737529D01*
X202507305Y-74273018D01*
X204941656Y-74273018D01*
X204941656Y-76069591D01*
G37*
G36*
X143850278Y-74793558D02*
G01*
X143929171Y-74817351D01*
X143984988Y-74852773D01*
X144028063Y-74902568D01*
X144053588Y-74959784D01*
X144062382Y-75026887D01*
X144052439Y-75096362D01*
X144022449Y-75160793D01*
X143992220Y-75197673D01*
X143953740Y-75227466D01*
X143905670Y-75250461D01*
X143821115Y-75270434D01*
X143692538Y-75278396D01*
X143265265Y-75278396D01*
X143265265Y-74784537D01*
X143740714Y-74784537D01*
X143850278Y-74793558D01*
G37*
G36*
X147191013Y-76312614D02*
G01*
X142899754Y-76312614D01*
X142899754Y-75278396D01*
X143066421Y-75278396D01*
X143066421Y-76122500D01*
X143265265Y-76122500D01*
X143265265Y-75446924D01*
X143495800Y-75446924D01*
X143606442Y-75454159D01*
X143651508Y-75469721D01*
X143697117Y-75494643D01*
X143741019Y-75530978D01*
X143798050Y-75596400D01*
X143941482Y-75805961D01*
X144140326Y-76122500D01*
X144390278Y-76122500D01*
X144129061Y-75708783D01*
X144046769Y-75595031D01*
X143964013Y-75506550D01*
X143917200Y-75471296D01*
X143844212Y-75430895D01*
X143952766Y-75409113D01*
X144039949Y-75377999D01*
X144075433Y-75357989D01*
X144521254Y-75357989D01*
X144530260Y-75499772D01*
X144556809Y-75633573D01*
X144600663Y-75760715D01*
X144646235Y-75851153D01*
X144699928Y-75928121D01*
X144761763Y-75993098D01*
X144832205Y-76047120D01*
X144909566Y-76088464D01*
X144999697Y-76119351D01*
X145104749Y-76138987D01*
X145227237Y-76145947D01*
X145343380Y-76137431D01*
X145406337Y-76122500D01*
X146085721Y-76122500D01*
X147024346Y-76122500D01*
X147024346Y-75948110D01*
X146284565Y-75948110D01*
X146284565Y-74616010D01*
X146085721Y-74616010D01*
X146085721Y-76122500D01*
X145406337Y-76122500D01*
X145446992Y-76112858D01*
X145540092Y-76073006D01*
X145624285Y-76017719D01*
X145697151Y-75948729D01*
X145758918Y-75865080D01*
X145809800Y-75764769D01*
X145849232Y-75645127D01*
X145650480Y-75594935D01*
X145623613Y-75688569D01*
X145588185Y-75765952D01*
X145544862Y-75829497D01*
X145493676Y-75881065D01*
X145433365Y-75922781D01*
X145366943Y-75952692D01*
X145293261Y-75971065D01*
X145210843Y-75977419D01*
X145121266Y-75969506D01*
X145036658Y-75946005D01*
X144955670Y-75906528D01*
X144884988Y-75852166D01*
X144827308Y-75781656D01*
X144782013Y-75692388D01*
X144751937Y-75595274D01*
X144732927Y-75484153D01*
X144726234Y-75356890D01*
X144731486Y-75258375D01*
X144747161Y-75162172D01*
X144773312Y-75067737D01*
X144812869Y-74979840D01*
X144867034Y-74905980D01*
X144936711Y-74844346D01*
X145017992Y-74799163D01*
X145113393Y-74771018D01*
X145226230Y-74761090D01*
X145324234Y-74769982D01*
X145406563Y-74795148D01*
X145476274Y-74835553D01*
X145534380Y-74891479D01*
X145585141Y-74969027D01*
X145627948Y-75073232D01*
X145823587Y-75027070D01*
X145786326Y-74926959D01*
X145738230Y-74841305D01*
X145679443Y-74768279D01*
X145609447Y-74706593D01*
X145530228Y-74657761D01*
X145441756Y-74622266D01*
X145342446Y-74600232D01*
X145230352Y-74592562D01*
X145100199Y-74602855D01*
X144979393Y-74633113D01*
X144866094Y-74683237D01*
X144788228Y-74733718D01*
X144720184Y-74794272D01*
X144661195Y-74865556D01*
X144610921Y-74948668D01*
X144562216Y-75068192D01*
X144531862Y-75203660D01*
X144521254Y-75357989D01*
X144075433Y-75357989D01*
X144109349Y-75338863D01*
X144163865Y-75292226D01*
X144209079Y-75234622D01*
X144241116Y-75171533D01*
X144260637Y-75101827D01*
X144267363Y-75023956D01*
X144260303Y-74943481D01*
X144239494Y-74868812D01*
X144204806Y-74798642D01*
X144157728Y-74736669D01*
X144102405Y-74689747D01*
X144037836Y-74656310D01*
X143966604Y-74635787D01*
X143867284Y-74621470D01*
X143732471Y-74616010D01*
X143066421Y-74616010D01*
X143066421Y-75278396D01*
X142899754Y-75278396D01*
X142899754Y-74425895D01*
X147191013Y-74425895D01*
X147191013Y-76312614D01*
G37*
G36*
X189655214Y-136312614D02*
G01*
X188338192Y-136312614D01*
X188338192Y-135724994D01*
X188504859Y-135724994D01*
X188521610Y-135815686D01*
X188552015Y-135895435D01*
X188595874Y-135966029D01*
X188653969Y-136028710D01*
X188722408Y-136079363D01*
X188798869Y-136115731D01*
X188884871Y-136138154D01*
X188982415Y-136145947D01*
X189090167Y-136136911D01*
X189185090Y-136110885D01*
X189269501Y-136068547D01*
X189345116Y-136009293D01*
X189408505Y-135936280D01*
X189452765Y-135857418D01*
X189479426Y-135771324D01*
X189488547Y-135675993D01*
X189479776Y-135581564D01*
X189454874Y-135501837D01*
X189414725Y-135433918D01*
X189359911Y-135377483D01*
X189291816Y-135335078D01*
X189207821Y-135306423D01*
X189272314Y-135270075D01*
X189323268Y-135227685D01*
X189362518Y-135179112D01*
X189391570Y-135123757D01*
X189408933Y-135064899D01*
X189414816Y-135001425D01*
X189408764Y-134934461D01*
X189390648Y-134870094D01*
X189359953Y-134807343D01*
X189318569Y-134751292D01*
X189266267Y-134703358D01*
X189201684Y-134663087D01*
X189131046Y-134633846D01*
X189055889Y-134616163D01*
X188975179Y-134610148D01*
X188887136Y-134616926D01*
X188809165Y-134636449D01*
X188739573Y-134668100D01*
X188677050Y-134712089D01*
X188623815Y-134766622D01*
X188580464Y-134831589D01*
X188546806Y-134908503D01*
X188523361Y-134999410D01*
X188707733Y-135032199D01*
X188728633Y-134945786D01*
X188759744Y-134880148D01*
X188799966Y-134831065D01*
X188851184Y-134794130D01*
X188910210Y-134771785D01*
X188979301Y-134764021D01*
X189049021Y-134771823D01*
X189107248Y-134794064D01*
X189156530Y-134830516D01*
X189194567Y-134878509D01*
X189217342Y-134933722D01*
X189225223Y-134998402D01*
X189218825Y-135060494D01*
X189200816Y-135111293D01*
X189171818Y-135153215D01*
X189130884Y-135187721D01*
X189065752Y-135221687D01*
X188995541Y-135242122D01*
X188918851Y-135249087D01*
X188889084Y-135246980D01*
X188868659Y-135408822D01*
X188943809Y-135392867D01*
X188998810Y-135388306D01*
X189080778Y-135397840D01*
X189150162Y-135425228D01*
X189209836Y-135470554D01*
X189255638Y-135529801D01*
X189283230Y-135598493D01*
X189292817Y-135679474D01*
X189282585Y-135764306D01*
X189252888Y-135837633D01*
X189203149Y-135902223D01*
X189138828Y-135952196D01*
X189066469Y-135981887D01*
X188983422Y-135992074D01*
X188912952Y-135984231D01*
X188851640Y-135961508D01*
X188797401Y-135923747D01*
X188754467Y-135873158D01*
X188717984Y-135800779D01*
X188689324Y-135700448D01*
X188504859Y-135724994D01*
X188338192Y-135724994D01*
X188338192Y-134443481D01*
X189655214Y-134443481D01*
X189655214Y-136312614D01*
G37*
G36*
X177399722Y-76411667D02*
G01*
X171842583Y-76411667D01*
X171842583Y-76245000D01*
X172009250Y-76245000D01*
X172247937Y-76245000D01*
X172625017Y-75721373D01*
X172696824Y-75608716D01*
X172762404Y-75709100D01*
X173140491Y-76245000D01*
X173386413Y-76245000D01*
X172817725Y-75448615D01*
X172840116Y-75418482D01*
X173514275Y-75418482D01*
X173514275Y-75588475D01*
X174509228Y-76010526D01*
X174509228Y-75828810D01*
X173720263Y-75504486D01*
X174509228Y-75178147D01*
X174739397Y-75178147D01*
X175527355Y-75504486D01*
X174739397Y-75828810D01*
X174739397Y-76010526D01*
X175734351Y-75588475D01*
X175734351Y-75418482D01*
X174739397Y-74996430D01*
X174739397Y-75178147D01*
X174509228Y-75178147D01*
X174509228Y-74996430D01*
X173514275Y-75418482D01*
X172840116Y-75418482D01*
X173345381Y-74738510D01*
X175855892Y-74738510D01*
X176434839Y-75606060D01*
X176434839Y-76245000D01*
X176633592Y-76245000D01*
X176633592Y-75606060D01*
X177233055Y-74738510D01*
X177001513Y-74738510D01*
X176710528Y-75181536D01*
X176546580Y-75447791D01*
X176393898Y-75192893D01*
X176097692Y-74738510D01*
X175855892Y-74738510D01*
X173345381Y-74738510D01*
X173129226Y-74738510D01*
X172826884Y-75137114D01*
X172761652Y-75226223D01*
X172708090Y-75308206D01*
X172587098Y-75123833D01*
X172314615Y-74738510D01*
X172077852Y-74738510D01*
X172590212Y-75459881D01*
X172009250Y-76245000D01*
X171842583Y-76245000D01*
X171842583Y-74571843D01*
X177399722Y-74571843D01*
X177399722Y-76411667D01*
G37*
G36*
X160095072Y-123594935D02*
G01*
X159624752Y-123594935D01*
X160095072Y-122917894D01*
X160095072Y-123594935D01*
G37*
G36*
X160649078Y-124289167D02*
G01*
X159276735Y-124289167D01*
X159276735Y-123594935D01*
X159443402Y-123594935D01*
X159443402Y-123763463D01*
X160095072Y-123763463D01*
X160095072Y-124122500D01*
X160279536Y-124122500D01*
X160279536Y-123763463D01*
X160482411Y-123763463D01*
X160482411Y-123594935D01*
X160279536Y-123594935D01*
X160279536Y-122621871D01*
X160128869Y-122621871D01*
X159443402Y-123594935D01*
X159276735Y-123594935D01*
X159276735Y-122455204D01*
X160649078Y-122455204D01*
X160649078Y-124289167D01*
G37*
G36*
X159718707Y-83740590D02*
G01*
X159784920Y-83750135D01*
X159832408Y-83763817D01*
X159875454Y-83786108D01*
X159912336Y-83817390D01*
X159943721Y-83858705D01*
X159966847Y-83905485D01*
X159980719Y-83955264D01*
X159985426Y-84008914D01*
X159980942Y-84060828D01*
X159967928Y-84107299D01*
X159946570Y-84149358D01*
X159916427Y-84187761D01*
X159880083Y-84218852D01*
X159833817Y-84244943D01*
X159775695Y-84265685D01*
X159703325Y-84280207D01*
X159751984Y-84307141D01*
X159783193Y-84330643D01*
X159838363Y-84389631D01*
X159893224Y-84465465D01*
X160067369Y-84741277D01*
X159900735Y-84741277D01*
X159768172Y-84530251D01*
X159672551Y-84390544D01*
X159634530Y-84346929D01*
X159605262Y-84322705D01*
X159574856Y-84306091D01*
X159544812Y-84295716D01*
X159471050Y-84290893D01*
X159317361Y-84290893D01*
X159317361Y-84741277D01*
X159184798Y-84741277D01*
X159184798Y-84178541D01*
X159317361Y-84178541D01*
X159602209Y-84178541D01*
X159687927Y-84173233D01*
X159744297Y-84159917D01*
X159776344Y-84144588D01*
X159801997Y-84124726D01*
X159822150Y-84100139D01*
X159842143Y-84057185D01*
X159848772Y-84010868D01*
X159842909Y-83966133D01*
X159825893Y-83927989D01*
X159797176Y-83894792D01*
X159759964Y-83871178D01*
X159707369Y-83855315D01*
X159634327Y-83849302D01*
X159317361Y-83849302D01*
X159317361Y-84178541D01*
X159184798Y-84178541D01*
X159184798Y-83736950D01*
X159628831Y-83736950D01*
X159718707Y-83740590D01*
G37*
G36*
X160189552Y-84108688D02*
G01*
X160281198Y-84019282D01*
X160340128Y-83951578D01*
X160386514Y-83884966D01*
X160417003Y-83826587D01*
X160448449Y-83826587D01*
X160484826Y-83892497D01*
X160531431Y-83957745D01*
X160589665Y-84022770D01*
X160680724Y-84109420D01*
X160680724Y-84161994D01*
X160590760Y-84115342D01*
X160521538Y-84070485D01*
X160469637Y-84027416D01*
X160469637Y-85034307D01*
X160400639Y-85034307D01*
X160400639Y-84027416D01*
X160302575Y-84099834D01*
X160189552Y-84160650D01*
X160189552Y-84108688D01*
G37*
G36*
X146760352Y-134793558D02*
G01*
X146839245Y-134817351D01*
X146895062Y-134852773D01*
X146938137Y-134902568D01*
X146963663Y-134959784D01*
X146972457Y-135026887D01*
X146962513Y-135096362D01*
X146932523Y-135160793D01*
X146902294Y-135197673D01*
X146863815Y-135227466D01*
X146815744Y-135250461D01*
X146731190Y-135270434D01*
X146602612Y-135278396D01*
X146175340Y-135278396D01*
X146175340Y-134784537D01*
X146650789Y-134784537D01*
X146760352Y-134793558D01*
G37*
G36*
X147467020Y-136312614D02*
G01*
X143067592Y-136312614D01*
X143067592Y-135357989D01*
X143234259Y-135357989D01*
X143243265Y-135499772D01*
X143269815Y-135633573D01*
X143313668Y-135760715D01*
X143359240Y-135851153D01*
X143412933Y-135928121D01*
X143474769Y-135993098D01*
X143545211Y-136047120D01*
X143622572Y-136088464D01*
X143712702Y-136119351D01*
X143817754Y-136138987D01*
X143940243Y-136145947D01*
X144056386Y-136137431D01*
X144119342Y-136122500D01*
X144798726Y-136122500D01*
X145737351Y-136122500D01*
X145737351Y-135948110D01*
X144997570Y-135948110D01*
X144997570Y-135278396D01*
X145976495Y-135278396D01*
X145976495Y-136122500D01*
X146175340Y-136122500D01*
X146175340Y-135446924D01*
X146405874Y-135446924D01*
X146516516Y-135454159D01*
X146561582Y-135469721D01*
X146607192Y-135494643D01*
X146651094Y-135530978D01*
X146708125Y-135596400D01*
X146851557Y-135805961D01*
X147050401Y-136122500D01*
X147300353Y-136122500D01*
X147039135Y-135708783D01*
X146956843Y-135595031D01*
X146874088Y-135506550D01*
X146827274Y-135471296D01*
X146754287Y-135430895D01*
X146862841Y-135409113D01*
X146950024Y-135377999D01*
X147019424Y-135338863D01*
X147073940Y-135292226D01*
X147119154Y-135234622D01*
X147151190Y-135171533D01*
X147170711Y-135101827D01*
X147177438Y-135023956D01*
X147170377Y-134943481D01*
X147149569Y-134868812D01*
X147114881Y-134798642D01*
X147067803Y-134736669D01*
X147012479Y-134689747D01*
X146947910Y-134656310D01*
X146876679Y-134635787D01*
X146777358Y-134621470D01*
X146642546Y-134616010D01*
X145976495Y-134616010D01*
X145976495Y-135278396D01*
X144997570Y-135278396D01*
X144997570Y-134616010D01*
X144798726Y-134616010D01*
X144798726Y-136122500D01*
X144119342Y-136122500D01*
X144159997Y-136112858D01*
X144253097Y-136073006D01*
X144337290Y-136017719D01*
X144410156Y-135948729D01*
X144471923Y-135865080D01*
X144522805Y-135764769D01*
X144562238Y-135645127D01*
X144363485Y-135594935D01*
X144336619Y-135688569D01*
X144301190Y-135765952D01*
X144257868Y-135829497D01*
X144206681Y-135881065D01*
X144146370Y-135922781D01*
X144079948Y-135952692D01*
X144006266Y-135971065D01*
X143923848Y-135977419D01*
X143834272Y-135969506D01*
X143749663Y-135946005D01*
X143668675Y-135906528D01*
X143597994Y-135852166D01*
X143540313Y-135781656D01*
X143495019Y-135692388D01*
X143464942Y-135595274D01*
X143445932Y-135484153D01*
X143439240Y-135356890D01*
X143444492Y-135258375D01*
X143460167Y-135162172D01*
X143486318Y-135067737D01*
X143525874Y-134979840D01*
X143580040Y-134905980D01*
X143649716Y-134844346D01*
X143730997Y-134799163D01*
X143826399Y-134771018D01*
X143939235Y-134761090D01*
X144037239Y-134769982D01*
X144119569Y-134795148D01*
X144189279Y-134835553D01*
X144247386Y-134891479D01*
X144298147Y-134969027D01*
X144340954Y-135073232D01*
X144536592Y-135027070D01*
X144499332Y-134926959D01*
X144451236Y-134841305D01*
X144392448Y-134768279D01*
X144322452Y-134706593D01*
X144243234Y-134657761D01*
X144154762Y-134622266D01*
X144055452Y-134600232D01*
X143943357Y-134592562D01*
X143813204Y-134602855D01*
X143692398Y-134633113D01*
X143579099Y-134683237D01*
X143501234Y-134733718D01*
X143433190Y-134794272D01*
X143374201Y-134865556D01*
X143323927Y-134948668D01*
X143275221Y-135068192D01*
X143244868Y-135203660D01*
X143234259Y-135357989D01*
X143067592Y-135357989D01*
X143067592Y-134425895D01*
X147467020Y-134425895D01*
X147467020Y-136312614D01*
G37*
G36*
X189753949Y-100289167D02*
G01*
X188299541Y-100289167D01*
X188299541Y-100122500D01*
X188466208Y-100122500D01*
X189587282Y-100122500D01*
X189587282Y-99948110D01*
X188665052Y-99948110D01*
X188665052Y-99429338D01*
X189496057Y-99429338D01*
X189496057Y-99254949D01*
X188665052Y-99254949D01*
X188665052Y-98790399D01*
X189552386Y-98790399D01*
X189552386Y-98616010D01*
X188466208Y-98616010D01*
X188466208Y-100122500D01*
X188299541Y-100122500D01*
X188299541Y-98449343D01*
X189753949Y-98449343D01*
X189753949Y-100289167D01*
G37*
G36*
X141954587Y-146769677D02*
G01*
X142043347Y-146794860D01*
X142125689Y-146836653D01*
X142198376Y-146893343D01*
X142258587Y-146963651D01*
X142307039Y-147049327D01*
X142340602Y-147142684D01*
X142361661Y-147248945D01*
X142369046Y-147370262D01*
X142358707Y-147516079D01*
X142329861Y-147636731D01*
X142284733Y-147736621D01*
X142224058Y-147819241D01*
X142146422Y-147888573D01*
X142060293Y-147937412D01*
X141963902Y-147967143D01*
X141854671Y-147977419D01*
X141747553Y-147967314D01*
X141652273Y-147937978D01*
X141566413Y-147889623D01*
X141488307Y-147820799D01*
X141426498Y-147738691D01*
X141381123Y-147641875D01*
X141352477Y-147527495D01*
X141342311Y-147391878D01*
X141349892Y-147249751D01*
X141370752Y-147134195D01*
X141402615Y-147040839D01*
X141444023Y-146965925D01*
X141494443Y-146906445D01*
X141574947Y-146842385D01*
X141661307Y-146797453D01*
X141754916Y-146770349D01*
X141857694Y-146761090D01*
X141954587Y-146769677D01*
G37*
G36*
X145685640Y-146769677D02*
G01*
X145774401Y-146794860D01*
X145856743Y-146836653D01*
X145929430Y-146893343D01*
X145989641Y-146963651D01*
X146038093Y-147049327D01*
X146071656Y-147142684D01*
X146092715Y-147248945D01*
X146100100Y-147370262D01*
X146089761Y-147516079D01*
X146060915Y-147636731D01*
X146015787Y-147736621D01*
X145955112Y-147819241D01*
X145877476Y-147888573D01*
X145791347Y-147937412D01*
X145694956Y-147967143D01*
X145585725Y-147977419D01*
X145478607Y-147967314D01*
X145383327Y-147937978D01*
X145297467Y-147889623D01*
X145219361Y-147820799D01*
X145157552Y-147738691D01*
X145112176Y-147641875D01*
X145083530Y-147527495D01*
X145073364Y-147391878D01*
X145080945Y-147249751D01*
X145101806Y-147134195D01*
X145133669Y-147040839D01*
X145175077Y-146965925D01*
X145225497Y-146906445D01*
X145306001Y-146842385D01*
X145392361Y-146797453D01*
X145485970Y-146770349D01*
X145588747Y-146761090D01*
X145685640Y-146769677D01*
G37*
G36*
X149034008Y-148312614D02*
G01*
X140970754Y-148312614D01*
X140970754Y-147389221D01*
X141137421Y-147389221D01*
X141137618Y-147391878D01*
X141147024Y-147519021D01*
X141175599Y-147643492D01*
X141223425Y-147764012D01*
X141271844Y-147848381D01*
X141329826Y-147922560D01*
X141397774Y-147987441D01*
X141476492Y-148043548D01*
X141561941Y-148087960D01*
X141652954Y-148119841D01*
X141750489Y-148139297D01*
X141855679Y-148145947D01*
X144183740Y-148145947D01*
X144332301Y-148145947D01*
X144543970Y-147389221D01*
X144868475Y-147389221D01*
X144868672Y-147391878D01*
X144878078Y-147519021D01*
X144906653Y-147643492D01*
X144954479Y-147764012D01*
X145002898Y-147848381D01*
X145060880Y-147922560D01*
X145128828Y-147987441D01*
X145207545Y-148043548D01*
X145292995Y-148087960D01*
X145384008Y-148119841D01*
X145481543Y-148139297D01*
X145586732Y-148145947D01*
X145714845Y-148135551D01*
X145766119Y-148122500D01*
X146571703Y-148122500D01*
X146770455Y-148122500D01*
X147853978Y-148122500D01*
X148052730Y-148122500D01*
X148052730Y-147435200D01*
X148757707Y-147435200D01*
X148757707Y-147260811D01*
X148052730Y-147260811D01*
X148052730Y-146790399D01*
X148867341Y-146790399D01*
X148867341Y-146616010D01*
X147853978Y-146616010D01*
X147853978Y-148122500D01*
X146770455Y-148122500D01*
X146770455Y-147435200D01*
X147475432Y-147435200D01*
X147475432Y-147260811D01*
X146770455Y-147260811D01*
X146770455Y-146790399D01*
X147585066Y-146790399D01*
X147585066Y-146616010D01*
X146571703Y-146616010D01*
X146571703Y-148122500D01*
X145766119Y-148122500D01*
X145835882Y-148104743D01*
X145951540Y-148053257D01*
X146031005Y-148001647D01*
X146100596Y-147939519D01*
X146161073Y-147866162D01*
X146212757Y-147780407D01*
X146263266Y-147657219D01*
X146294288Y-147521794D01*
X146304989Y-147371819D01*
X146294793Y-147223672D01*
X146265275Y-147090115D01*
X146217337Y-146968910D01*
X146168124Y-146884285D01*
X146109598Y-146810495D01*
X146041389Y-146746572D01*
X145962714Y-146691939D01*
X145877390Y-146648767D01*
X145787064Y-146617827D01*
X145690858Y-146598986D01*
X145587740Y-146592562D01*
X145461733Y-146601551D01*
X145348717Y-146627534D01*
X145246646Y-146669710D01*
X145153874Y-146728202D01*
X145069243Y-146804046D01*
X144999518Y-146891253D01*
X144944251Y-146991242D01*
X144903342Y-147105887D01*
X144877553Y-147237598D01*
X144868475Y-147389221D01*
X144543970Y-147389221D01*
X144766809Y-146592562D01*
X144619256Y-146592562D01*
X144183740Y-148145947D01*
X141855679Y-148145947D01*
X141983791Y-148135551D01*
X142035066Y-148122500D01*
X142828284Y-148122500D01*
X143018885Y-148122500D01*
X143018885Y-146938685D01*
X143807942Y-148122500D01*
X144011824Y-148122500D01*
X144011824Y-146616010D01*
X143821223Y-146616010D01*
X143821223Y-147798817D01*
X143032257Y-146616010D01*
X142828284Y-146616010D01*
X142828284Y-148122500D01*
X142035066Y-148122500D01*
X142104829Y-148104743D01*
X142220486Y-148053257D01*
X142299951Y-148001647D01*
X142369542Y-147939519D01*
X142430019Y-147866162D01*
X142481704Y-147780407D01*
X142532212Y-147657219D01*
X142563234Y-147521794D01*
X142573936Y-147371819D01*
X142563739Y-147223672D01*
X142534222Y-147090115D01*
X142486283Y-146968910D01*
X142437070Y-146884285D01*
X142378544Y-146810495D01*
X142310335Y-146746572D01*
X142231660Y-146691939D01*
X142146336Y-146648767D01*
X142056011Y-146617827D01*
X141959805Y-146598986D01*
X141856686Y-146592562D01*
X141730679Y-146601551D01*
X141617663Y-146627534D01*
X141515592Y-146669710D01*
X141422820Y-146728202D01*
X141338189Y-146804046D01*
X141268464Y-146891253D01*
X141213197Y-146991242D01*
X141172288Y-147105887D01*
X141146500Y-147237598D01*
X141137421Y-147389221D01*
X140970754Y-147389221D01*
X140970754Y-146425895D01*
X149034008Y-146425895D01*
X149034008Y-148312614D01*
G37*
G36*
X157160211Y-131914864D02*
G01*
X157228603Y-131925083D01*
X157284138Y-131942270D01*
X157332811Y-131966260D01*
X157375515Y-131997013D01*
X157423455Y-132045395D01*
X157462861Y-132102222D01*
X157493973Y-132168593D01*
X157515295Y-132239288D01*
X157528640Y-132318466D01*
X157533296Y-132407341D01*
X157530104Y-132483382D01*
X157521008Y-132550668D01*
X157506612Y-132610184D01*
X157475077Y-132693349D01*
X157438286Y-132756425D01*
X157393646Y-132809165D01*
X157347122Y-132847527D01*
X157293905Y-132876123D01*
X157227565Y-132897903D01*
X157154807Y-132910462D01*
X157066731Y-132915000D01*
X156705374Y-132915000D01*
X156705374Y-132798740D01*
X156837876Y-132798740D01*
X157051710Y-132798740D01*
X157145294Y-132793449D01*
X157207110Y-132780177D01*
X157259004Y-132757028D01*
X157296930Y-132727787D01*
X157325035Y-132693886D01*
X157349580Y-132651728D01*
X157370325Y-132599926D01*
X157384331Y-132545770D01*
X157393394Y-132481417D01*
X157396642Y-132405265D01*
X157392760Y-132323827D01*
X157382102Y-132257671D01*
X157365909Y-132204343D01*
X157345046Y-132161693D01*
X157306529Y-132109302D01*
X157264910Y-132072070D01*
X157219749Y-132047632D01*
X157183142Y-132037319D01*
X157127947Y-132029857D01*
X157048291Y-132026933D01*
X156837876Y-132026933D01*
X156837876Y-132798740D01*
X156705374Y-132798740D01*
X156705374Y-131910673D01*
X157050306Y-131910673D01*
X157160211Y-131914864D01*
G37*
G36*
X157738094Y-132915000D02*
G01*
X157738094Y-131910673D01*
X157870595Y-131910673D01*
X157870595Y-132915000D01*
X157738094Y-132915000D01*
G37*
G36*
X158059273Y-132589912D02*
G01*
X158184325Y-132578921D01*
X158193392Y-132629120D01*
X158207334Y-132670566D01*
X158225602Y-132704645D01*
X158250133Y-132734220D01*
X158283190Y-132760705D01*
X158326353Y-132784085D01*
X158372796Y-132800635D01*
X158423798Y-132810845D01*
X158480103Y-132814371D01*
X158553151Y-132808438D01*
X158613949Y-132791779D01*
X158650820Y-132773987D01*
X158679157Y-132753302D01*
X158700349Y-132729802D01*
X158721719Y-132688343D01*
X158728743Y-132643768D01*
X158721804Y-132599214D01*
X158701387Y-132561275D01*
X158667616Y-132530414D01*
X158611262Y-132501985D01*
X158558673Y-132485246D01*
X158432965Y-132453014D01*
X158305938Y-132417522D01*
X158239646Y-132390305D01*
X158194406Y-132362085D01*
X158159233Y-132330948D01*
X158132729Y-132296821D01*
X158113268Y-132258329D01*
X158101550Y-132216927D01*
X158097558Y-132171830D01*
X158102307Y-132122358D01*
X158116494Y-132075248D01*
X158140545Y-132029680D01*
X158172983Y-131989793D01*
X158214428Y-131956406D01*
X158266269Y-131929296D01*
X158322332Y-131910551D01*
X158383339Y-131899013D01*
X158450062Y-131895041D01*
X158523597Y-131899297D01*
X158588672Y-131911478D01*
X158646433Y-131930945D01*
X158699736Y-131959235D01*
X158742906Y-131994308D01*
X158777225Y-132036458D01*
X158802906Y-132084584D01*
X158819311Y-132136838D01*
X158826440Y-132194178D01*
X158699372Y-132203764D01*
X158686307Y-132143122D01*
X158663032Y-132096135D01*
X158630007Y-132059966D01*
X158587857Y-132034418D01*
X158531129Y-132017573D01*
X158455496Y-132011301D01*
X158376128Y-132017223D01*
X158319608Y-132032706D01*
X158280252Y-132055387D01*
X158249006Y-132087780D01*
X158231230Y-132122762D01*
X158225297Y-132161693D01*
X158229732Y-132195941D01*
X158242592Y-132225139D01*
X158264254Y-132250537D01*
X158293579Y-132269337D01*
X158354480Y-132292977D01*
X158464044Y-132321978D01*
X158612413Y-132359804D01*
X158685695Y-132385847D01*
X158741121Y-132416619D01*
X158783462Y-132450702D01*
X158814777Y-132488063D01*
X158837765Y-132530946D01*
X158851697Y-132578092D01*
X158856482Y-132630579D01*
X158851451Y-132682590D01*
X158836365Y-132732559D01*
X158810686Y-132781338D01*
X158776377Y-132824350D01*
X158732981Y-132860942D01*
X158679222Y-132891369D01*
X158620886Y-132912838D01*
X158556869Y-132926066D01*
X158486209Y-132930631D01*
X158396096Y-132925712D01*
X158320927Y-132912021D01*
X158258392Y-132890819D01*
X158200999Y-132859396D01*
X158153328Y-132819620D01*
X158114289Y-132770957D01*
X158085097Y-132715631D01*
X158066760Y-132655658D01*
X158059273Y-132589912D01*
G37*
G36*
X159508989Y-131913442D02*
G01*
X159567473Y-131920198D01*
X159636901Y-131938636D01*
X159691121Y-131966910D01*
X159721651Y-131992378D01*
X159748360Y-132024250D01*
X159771354Y-132063386D01*
X159788110Y-132105627D01*
X159798289Y-132150852D01*
X159801763Y-132199673D01*
X159796476Y-132262158D01*
X159781128Y-132318204D01*
X159755958Y-132369008D01*
X159720491Y-132415462D01*
X159687322Y-132444133D01*
X159643883Y-132468032D01*
X159587923Y-132486716D01*
X159516640Y-132499130D01*
X159426789Y-132503695D01*
X159169906Y-132503695D01*
X159169906Y-132915000D01*
X159037405Y-132915000D01*
X159037405Y-132387435D01*
X159169906Y-132387435D01*
X159428804Y-132387435D01*
X159495097Y-132383635D01*
X159545545Y-132373474D01*
X159583355Y-132358418D01*
X159611192Y-132339319D01*
X159640546Y-132303915D01*
X159658686Y-132259623D01*
X159665170Y-132203764D01*
X159661451Y-132162561D01*
X159650778Y-132126779D01*
X159633418Y-132095382D01*
X159609800Y-132068554D01*
X159582120Y-132048905D01*
X159549704Y-132035847D01*
X159509194Y-132029721D01*
X159426056Y-132026933D01*
X159169906Y-132026933D01*
X159169906Y-132387435D01*
X159037405Y-132387435D01*
X159037405Y-131910673D01*
X159415126Y-131910673D01*
X159508989Y-131913442D01*
G37*
G36*
X159964917Y-132915000D02*
G01*
X159964917Y-131910673D01*
X160097480Y-131910673D01*
X160097480Y-132798740D01*
X160590667Y-132798740D01*
X160590667Y-132915000D01*
X159964917Y-132915000D01*
G37*
G36*
X161575332Y-132915000D02*
G01*
X161424329Y-132915000D01*
X161307520Y-132610184D01*
X160888765Y-132610184D01*
X160778795Y-132915000D01*
X160638050Y-132915000D01*
X160796687Y-132500764D01*
X160927050Y-132500764D01*
X161266548Y-132500764D01*
X161162012Y-132223487D01*
X161118333Y-132102490D01*
X161090998Y-132015881D01*
X161068045Y-132111495D01*
X161037021Y-132207123D01*
X160927050Y-132500764D01*
X160796687Y-132500764D01*
X161022671Y-131910673D01*
X161165431Y-131910673D01*
X161575332Y-132915000D01*
G37*
G36*
X161859631Y-132915000D02*
G01*
X161859631Y-132489040D01*
X161473666Y-131910673D01*
X161634866Y-131910673D01*
X161832337Y-132213595D01*
X161934125Y-132383527D01*
X162043423Y-132206024D01*
X162237413Y-131910673D01*
X162391775Y-131910673D01*
X161992132Y-132489040D01*
X161992132Y-132915000D01*
X161859631Y-132915000D01*
G37*
G36*
X189087064Y-123316447D02*
G01*
X189155797Y-123346089D01*
X189215972Y-123395999D01*
X189260705Y-123460398D01*
X189288839Y-123540740D01*
X189298954Y-123641463D01*
X189288703Y-123746408D01*
X189260195Y-123830360D01*
X189214965Y-123897827D01*
X189154045Y-123951024D01*
X189087891Y-123981742D01*
X189014105Y-123992074D01*
X188936694Y-123980877D01*
X188861423Y-123946461D01*
X188817171Y-123912062D01*
X188779532Y-123868264D01*
X188748217Y-123813746D01*
X188717834Y-123724422D01*
X188707733Y-123631205D01*
X188718036Y-123537708D01*
X188747247Y-123460502D01*
X188794836Y-123395999D01*
X188857521Y-123345892D01*
X188927384Y-123316331D01*
X189006961Y-123306240D01*
X189087064Y-123316447D01*
G37*
G36*
X189654207Y-124312614D02*
G01*
X188328941Y-124312614D01*
X188328941Y-123416516D01*
X188495608Y-123416516D01*
X188503030Y-123581346D01*
X188510616Y-123631205D01*
X188523382Y-123715107D01*
X188554236Y-123822711D01*
X188593823Y-123908499D01*
X188641147Y-123976137D01*
X188719718Y-124050802D01*
X188807186Y-124103156D01*
X188905412Y-124134954D01*
X189017220Y-124145947D01*
X189105574Y-124138526D01*
X189185651Y-124116895D01*
X189259020Y-124081284D01*
X189324316Y-124032434D01*
X189379981Y-123970841D01*
X189426540Y-123894896D01*
X189460302Y-123811916D01*
X189480646Y-123724450D01*
X189487540Y-123631388D01*
X189478851Y-123525031D01*
X189453974Y-123432484D01*
X189413790Y-123351308D01*
X189357938Y-123279678D01*
X189288710Y-123219424D01*
X189214241Y-123177436D01*
X189133249Y-123152195D01*
X189043873Y-123143574D01*
X188974629Y-123149018D01*
X188907571Y-123165305D01*
X188841914Y-123192759D01*
X188781991Y-123230556D01*
X188727850Y-123280220D01*
X188679065Y-123343151D01*
X188686971Y-123192977D01*
X188705334Y-123080289D01*
X188731272Y-122997578D01*
X188770406Y-122920663D01*
X188816213Y-122859894D01*
X188868659Y-122812930D01*
X188915094Y-122785912D01*
X188966230Y-122769613D01*
X189023356Y-122764021D01*
X189093157Y-122772804D01*
X189153882Y-122798430D01*
X189207821Y-122841690D01*
X189245413Y-122899598D01*
X189277521Y-122997028D01*
X189460887Y-122982740D01*
X189443078Y-122897195D01*
X189414306Y-122824302D01*
X189375092Y-122762099D01*
X189325149Y-122709158D01*
X189266047Y-122666713D01*
X189198978Y-122635958D01*
X189122469Y-122616837D01*
X189034622Y-122610148D01*
X188940829Y-122617462D01*
X188857723Y-122638539D01*
X188783487Y-122672745D01*
X188716722Y-122720352D01*
X188656534Y-122782522D01*
X188604008Y-122861166D01*
X188560166Y-122959703D01*
X188526113Y-123081992D01*
X188503737Y-123232562D01*
X188495608Y-123416516D01*
X188328941Y-123416516D01*
X188328941Y-122443481D01*
X189654207Y-122443481D01*
X189654207Y-124312614D01*
G37*
G36*
X173996261Y-108981988D02*
G01*
X173845258Y-108981988D01*
X173728449Y-108677172D01*
X173309695Y-108677172D01*
X173199724Y-108981988D01*
X173058979Y-108981988D01*
X173217617Y-108567752D01*
X173347980Y-108567752D01*
X173687477Y-108567752D01*
X173582941Y-108290475D01*
X173539262Y-108169478D01*
X173511928Y-108082869D01*
X173488974Y-108178483D01*
X173457950Y-108274111D01*
X173347980Y-108567752D01*
X173217617Y-108567752D01*
X173443601Y-107977661D01*
X173586361Y-107977661D01*
X173996261Y-108981988D01*
G37*
G36*
X174548661Y-107981574D02*
G01*
X174609073Y-107992189D01*
X174656328Y-108008130D01*
X174699469Y-108032222D01*
X174735420Y-108063259D01*
X174764955Y-108101797D01*
X174787030Y-108145238D01*
X174799937Y-108189091D01*
X174804217Y-108234055D01*
X174800367Y-108275956D01*
X174788854Y-108316105D01*
X174769351Y-108355138D01*
X174742966Y-108389709D01*
X174708340Y-108420195D01*
X174664204Y-108446729D01*
X174721655Y-108469556D01*
X174767627Y-108499976D01*
X174803911Y-108538015D01*
X174830832Y-108583119D01*
X174847138Y-108633437D01*
X174852760Y-108690362D01*
X174845247Y-108758885D01*
X174823023Y-108821764D01*
X174788812Y-108876769D01*
X174749567Y-108915431D01*
X174701806Y-108943636D01*
X174639902Y-108965196D01*
X174570217Y-108977402D01*
X174478397Y-108981988D01*
X174096523Y-108981988D01*
X174096523Y-108865728D01*
X174229086Y-108865728D01*
X174478397Y-108865728D01*
X174568583Y-108860843D01*
X174611765Y-108849320D01*
X174645031Y-108833121D01*
X174672600Y-108809788D01*
X174695590Y-108776579D01*
X174710294Y-108737351D01*
X174715434Y-108690850D01*
X174712103Y-108653806D01*
X174702480Y-108621134D01*
X174686736Y-108591993D01*
X174665257Y-108566883D01*
X174638965Y-108547324D01*
X174607113Y-108533008D01*
X174550566Y-108520904D01*
X174460628Y-108515972D01*
X174229086Y-108515972D01*
X174229086Y-108865728D01*
X174096523Y-108865728D01*
X174096523Y-108399713D01*
X174229086Y-108399713D01*
X174445607Y-108399713D01*
X174527493Y-108396162D01*
X174572003Y-108387989D01*
X174617255Y-108367167D01*
X174648146Y-108337614D01*
X174667052Y-108299020D01*
X174673791Y-108249259D01*
X174667641Y-108201249D01*
X174649855Y-108160538D01*
X174631635Y-108137677D01*
X174609091Y-108120326D01*
X174581528Y-108108087D01*
X174529202Y-108098259D01*
X174429182Y-108093921D01*
X174229086Y-108093921D01*
X174229086Y-108399713D01*
X174096523Y-108399713D01*
X174096523Y-107977661D01*
X174472230Y-107977661D01*
X174548661Y-107981574D01*
G37*
G36*
X174989902Y-108656900D02*
G01*
X175114955Y-108645909D01*
X175124022Y-108696108D01*
X175137963Y-108737554D01*
X175156232Y-108771633D01*
X175180762Y-108801208D01*
X175213819Y-108827693D01*
X175256982Y-108851073D01*
X175303425Y-108867623D01*
X175354427Y-108877833D01*
X175410733Y-108881359D01*
X175483780Y-108875426D01*
X175544578Y-108858767D01*
X175581449Y-108840975D01*
X175609786Y-108820290D01*
X175630979Y-108796790D01*
X175652349Y-108755331D01*
X175659372Y-108710756D01*
X175652433Y-108666202D01*
X175632017Y-108628263D01*
X175598245Y-108597402D01*
X175541891Y-108568973D01*
X175489303Y-108552234D01*
X175363594Y-108520002D01*
X175236568Y-108484510D01*
X175170276Y-108457293D01*
X175125036Y-108429073D01*
X175089863Y-108397936D01*
X175063358Y-108363809D01*
X175043897Y-108325317D01*
X175032180Y-108283915D01*
X175028187Y-108238818D01*
X175032937Y-108189346D01*
X175047124Y-108142236D01*
X175071174Y-108096668D01*
X175103613Y-108056781D01*
X175145057Y-108023394D01*
X175196898Y-107996284D01*
X175252961Y-107977539D01*
X175313968Y-107966001D01*
X175380691Y-107962029D01*
X175454226Y-107966285D01*
X175519301Y-107978466D01*
X175577062Y-107997933D01*
X175630366Y-108026223D01*
X175673536Y-108061296D01*
X175707854Y-108103446D01*
X175733535Y-108151572D01*
X175749940Y-108203826D01*
X175757069Y-108261166D01*
X175630002Y-108270752D01*
X175616936Y-108210110D01*
X175593662Y-108163123D01*
X175560637Y-108126954D01*
X175518486Y-108101406D01*
X175461759Y-108084561D01*
X175386125Y-108078289D01*
X175306757Y-108084211D01*
X175250238Y-108099694D01*
X175210881Y-108122375D01*
X175179636Y-108154768D01*
X175161860Y-108189750D01*
X175155926Y-108228681D01*
X175160361Y-108262929D01*
X175173222Y-108292127D01*
X175194883Y-108317525D01*
X175224208Y-108336325D01*
X175285110Y-108359965D01*
X175394674Y-108388966D01*
X175543042Y-108426792D01*
X175616324Y-108452835D01*
X175671751Y-108483607D01*
X175714091Y-108517690D01*
X175745407Y-108555051D01*
X175768394Y-108597934D01*
X175782326Y-108645080D01*
X175787111Y-108697567D01*
X175782080Y-108749578D01*
X175766994Y-108799547D01*
X175741315Y-108848326D01*
X175707007Y-108891338D01*
X175663610Y-108927930D01*
X175609852Y-108958357D01*
X175551515Y-108979826D01*
X175487498Y-108993054D01*
X175416839Y-108997619D01*
X175326725Y-108992700D01*
X175251557Y-108979009D01*
X175189021Y-108957807D01*
X175131628Y-108926384D01*
X175083957Y-108886608D01*
X175044918Y-108837945D01*
X175015727Y-108782619D01*
X174997389Y-108722646D01*
X174989902Y-108656900D01*
G37*
G36*
X159552627Y-146771416D02*
G01*
X159607948Y-146793290D01*
X159659196Y-146830554D01*
X159707271Y-146885837D01*
X159739347Y-146946682D01*
X159766702Y-147040913D01*
X159786294Y-147180159D01*
X159793916Y-147378047D01*
X159786324Y-147574625D01*
X159766776Y-147713476D01*
X159739423Y-147807897D01*
X159707271Y-147869250D01*
X159659116Y-147925199D01*
X159608174Y-147962742D01*
X159553572Y-147984683D01*
X159493681Y-147992074D01*
X159433710Y-147984705D01*
X159379064Y-147962843D01*
X159328119Y-147925460D01*
X159279999Y-147869800D01*
X159247922Y-147808707D01*
X159220596Y-147714378D01*
X159201045Y-147575314D01*
X159193445Y-147378047D01*
X159201520Y-147182594D01*
X159222589Y-147040399D01*
X159252616Y-146939978D01*
X159288700Y-146871457D01*
X159330778Y-146823586D01*
X159377808Y-146790631D01*
X159430808Y-146770841D01*
X159491574Y-146764021D01*
X159552627Y-146771416D01*
G37*
G36*
X160150085Y-148312614D02*
G01*
X158837185Y-148312614D01*
X158837185Y-147378597D01*
X159003852Y-147378597D01*
X159011455Y-147558229D01*
X159032311Y-147704275D01*
X159063897Y-147821935D01*
X159104319Y-147915842D01*
X159152412Y-147989967D01*
X159219945Y-148057969D01*
X159297786Y-148106054D01*
X159387983Y-148135606D01*
X159493681Y-148145947D01*
X159600486Y-148135434D01*
X159690341Y-148105563D01*
X159766714Y-148057195D01*
X159830902Y-147992185D01*
X159885119Y-147909466D01*
X159929105Y-147805869D01*
X159957419Y-147695944D01*
X159976409Y-147555555D01*
X159983418Y-147378597D01*
X159973834Y-147166432D01*
X159949621Y-147023132D01*
X159908098Y-146898136D01*
X159856381Y-146799467D01*
X159812682Y-146742420D01*
X159762627Y-146695861D01*
X159705714Y-146658874D01*
X159643256Y-146632324D01*
X159573068Y-146615873D01*
X159493681Y-146610148D01*
X159387520Y-146620589D01*
X159297943Y-146650293D01*
X159221564Y-146698442D01*
X159157355Y-146763108D01*
X159102954Y-146845630D01*
X159058623Y-146949218D01*
X159030105Y-147059124D01*
X159010939Y-147200138D01*
X159003874Y-147378047D01*
X159003852Y-147378597D01*
X158837185Y-147378597D01*
X158837185Y-146443481D01*
X160150085Y-146443481D01*
X160150085Y-148312614D01*
G37*
G36*
X147989462Y-98793558D02*
G01*
X148068355Y-98817351D01*
X148124171Y-98852773D01*
X148167247Y-98902568D01*
X148192772Y-98959784D01*
X148201566Y-99026887D01*
X148191623Y-99096362D01*
X148161632Y-99160793D01*
X148131403Y-99197673D01*
X148092924Y-99227466D01*
X148044854Y-99250461D01*
X147960299Y-99270434D01*
X147831721Y-99278396D01*
X147404449Y-99278396D01*
X147404449Y-98784537D01*
X147879898Y-98784537D01*
X147989462Y-98793558D01*
G37*
G36*
X148696129Y-100289167D02*
G01*
X141443365Y-100289167D01*
X141443365Y-100122500D01*
X141610032Y-100122500D01*
X142731106Y-100122500D01*
X143003406Y-100122500D01*
X143194007Y-100122500D01*
X143194007Y-98938685D01*
X143983064Y-100122500D01*
X144186946Y-100122500D01*
X144186946Y-98790399D01*
X144408047Y-98790399D01*
X144903005Y-98790399D01*
X144903005Y-100122500D01*
X145101758Y-100122500D01*
X145807101Y-100122500D01*
X146928175Y-100122500D01*
X146928175Y-99948110D01*
X146005945Y-99948110D01*
X146005945Y-99429338D01*
X146836951Y-99429338D01*
X146836951Y-99278396D01*
X147205605Y-99278396D01*
X147205605Y-100122500D01*
X147404449Y-100122500D01*
X147404449Y-99446924D01*
X147634984Y-99446924D01*
X147745626Y-99454159D01*
X147790691Y-99469721D01*
X147836301Y-99494643D01*
X147880203Y-99530978D01*
X147937234Y-99596400D01*
X148080666Y-99805961D01*
X148279510Y-100122500D01*
X148529462Y-100122500D01*
X148268244Y-99708783D01*
X148185952Y-99595031D01*
X148103197Y-99506550D01*
X148056384Y-99471296D01*
X147983396Y-99430895D01*
X148091950Y-99409113D01*
X148179133Y-99377999D01*
X148248533Y-99338863D01*
X148303049Y-99292226D01*
X148348263Y-99234622D01*
X148380299Y-99171533D01*
X148399821Y-99101827D01*
X148406547Y-99023956D01*
X148399486Y-98943481D01*
X148378678Y-98868812D01*
X148343990Y-98798642D01*
X148296912Y-98736669D01*
X148241589Y-98689747D01*
X148177019Y-98656310D01*
X148105788Y-98635787D01*
X148006468Y-98621470D01*
X147871655Y-98616010D01*
X147205605Y-98616010D01*
X147205605Y-99278396D01*
X146836951Y-99278396D01*
X146836951Y-99254949D01*
X146005945Y-99254949D01*
X146005945Y-98790399D01*
X146893279Y-98790399D01*
X146893279Y-98616010D01*
X145807101Y-98616010D01*
X145807101Y-100122500D01*
X145101758Y-100122500D01*
X145101758Y-98790399D01*
X145598731Y-98790399D01*
X145598731Y-98616010D01*
X144408047Y-98616010D01*
X144408047Y-98790399D01*
X144186946Y-98790399D01*
X144186946Y-98616010D01*
X143996345Y-98616010D01*
X143996345Y-99798817D01*
X143207380Y-98616010D01*
X143003406Y-98616010D01*
X143003406Y-100122500D01*
X142731106Y-100122500D01*
X142731106Y-99948110D01*
X141808876Y-99948110D01*
X141808876Y-99429338D01*
X142639881Y-99429338D01*
X142639881Y-99254949D01*
X141808876Y-99254949D01*
X141808876Y-98790399D01*
X142696210Y-98790399D01*
X142696210Y-98616010D01*
X141610032Y-98616010D01*
X141610032Y-100122500D01*
X141443365Y-100122500D01*
X141443365Y-98449343D01*
X148696129Y-98449343D01*
X148696129Y-100289167D01*
G37*
G36*
X143005330Y-120915000D02*
G01*
X143005330Y-119910673D01*
X143204754Y-119910673D01*
X143441792Y-120622091D01*
X143489602Y-120770835D01*
X143542908Y-120609757D01*
X143782694Y-119910673D01*
X143960991Y-119910673D01*
X143960991Y-120915000D01*
X143833252Y-120915000D01*
X143833252Y-120073949D01*
X143542237Y-120915000D01*
X143422680Y-120915000D01*
X143133069Y-120059600D01*
X143133069Y-120915000D01*
X143005330Y-120915000D01*
G37*
G36*
X144682903Y-119899324D02*
G01*
X144747041Y-119911884D01*
X144807257Y-119932511D01*
X144864140Y-119961292D01*
X144916590Y-119997715D01*
X144962063Y-120040330D01*
X145001080Y-120089523D01*
X145033889Y-120145940D01*
X145065848Y-120226743D01*
X145085526Y-120315781D01*
X145092324Y-120414546D01*
X145085190Y-120514529D01*
X145064508Y-120604813D01*
X145030836Y-120686938D01*
X144996379Y-120744108D01*
X144956061Y-120793013D01*
X144909667Y-120834431D01*
X144856691Y-120868838D01*
X144779586Y-120903162D01*
X144698894Y-120923700D01*
X144613486Y-120930631D01*
X144543360Y-120926198D01*
X144478336Y-120913227D01*
X144417661Y-120891973D01*
X144360694Y-120862365D01*
X144308216Y-120824960D01*
X144262918Y-120781707D01*
X144224263Y-120732254D01*
X144191984Y-120676008D01*
X144160099Y-120595661D01*
X144141049Y-120512681D01*
X144134779Y-120427918D01*
X144271240Y-120427918D01*
X144278018Y-120518330D01*
X144297115Y-120594583D01*
X144327365Y-120659127D01*
X144368571Y-120713866D01*
X144420642Y-120759749D01*
X144477882Y-120791985D01*
X144541402Y-120811543D01*
X144612814Y-120818279D01*
X144685635Y-120811429D01*
X144749896Y-120791608D01*
X144807315Y-120759048D01*
X144859072Y-120712827D01*
X144899522Y-120657747D01*
X144929607Y-120591154D01*
X144948838Y-120510719D01*
X144955731Y-120413508D01*
X144950807Y-120332630D01*
X144936768Y-120261789D01*
X144914393Y-120199551D01*
X144882091Y-120142434D01*
X144841951Y-120095562D01*
X144793493Y-120057768D01*
X144738598Y-120029906D01*
X144679424Y-120013118D01*
X144614829Y-120007393D01*
X144546311Y-120013566D01*
X144483905Y-120031635D01*
X144426331Y-120061590D01*
X144372662Y-120104296D01*
X144339049Y-120143950D01*
X144311444Y-120193893D01*
X144290202Y-120256130D01*
X144276294Y-120333167D01*
X144271240Y-120427918D01*
X144134779Y-120427918D01*
X144134648Y-120426147D01*
X144140700Y-120325065D01*
X144157892Y-120237258D01*
X144185165Y-120160828D01*
X144222010Y-120094169D01*
X144268493Y-120036031D01*
X144324913Y-119985468D01*
X144386762Y-119946473D01*
X144454809Y-119918356D01*
X144530153Y-119901034D01*
X144614157Y-119895041D01*
X144682903Y-119899324D01*
G37*
G36*
X145718131Y-119914864D02*
G01*
X145786523Y-119925083D01*
X145842058Y-119942270D01*
X145890731Y-119966260D01*
X145933435Y-119997013D01*
X145981375Y-120045395D01*
X146020781Y-120102222D01*
X146051893Y-120168593D01*
X146073215Y-120239288D01*
X146086560Y-120318466D01*
X146091216Y-120407341D01*
X146088024Y-120483382D01*
X146078928Y-120550668D01*
X146064532Y-120610184D01*
X146032997Y-120693349D01*
X145996206Y-120756425D01*
X145951566Y-120809165D01*
X145905042Y-120847527D01*
X145851825Y-120876123D01*
X145785485Y-120897903D01*
X145712727Y-120910462D01*
X145624651Y-120915000D01*
X145263294Y-120915000D01*
X145263294Y-120798740D01*
X145395796Y-120798740D01*
X145609630Y-120798740D01*
X145703214Y-120793449D01*
X145765030Y-120780177D01*
X145816924Y-120757028D01*
X145854850Y-120727787D01*
X145882955Y-120693886D01*
X145907500Y-120651728D01*
X145928245Y-120599926D01*
X145942251Y-120545770D01*
X145951314Y-120481417D01*
X145954562Y-120405265D01*
X145950680Y-120323827D01*
X145940022Y-120257671D01*
X145923829Y-120204343D01*
X145902966Y-120161693D01*
X145864449Y-120109302D01*
X145822830Y-120072070D01*
X145777669Y-120047632D01*
X145741062Y-120037319D01*
X145685867Y-120029857D01*
X145606211Y-120026933D01*
X145395796Y-120026933D01*
X145395796Y-120798740D01*
X145263294Y-120798740D01*
X145263294Y-119910673D01*
X145608226Y-119910673D01*
X145718131Y-119914864D01*
G37*
G36*
X146276169Y-120915000D02*
G01*
X146276169Y-119910673D01*
X147000288Y-119910673D01*
X147000288Y-120026933D01*
X146408732Y-120026933D01*
X146408732Y-120336632D01*
X146962736Y-120336632D01*
X146962736Y-120452892D01*
X146408732Y-120452892D01*
X146408732Y-120798740D01*
X147023552Y-120798740D01*
X147023552Y-120915000D01*
X146276169Y-120915000D01*
G37*
G36*
X204577522Y-135950407D02*
G01*
X202810838Y-135950407D01*
X202810838Y-135728185D01*
X203033060Y-135728185D01*
X204355300Y-135728185D01*
X204355300Y-135478080D01*
X203033060Y-135478080D01*
X203033060Y-135728185D01*
X202810838Y-135728185D01*
X202810838Y-135255858D01*
X204577522Y-135255858D01*
X204577522Y-135950407D01*
G37*
G36*
X202921465Y-96871670D02*
G01*
X202921465Y-95867343D01*
X203054028Y-95867343D01*
X203054028Y-96755410D01*
X203547216Y-96755410D01*
X203547216Y-96871670D01*
X202921465Y-96871670D01*
G37*
G36*
X203703226Y-96871670D02*
G01*
X203703226Y-95867343D01*
X203839208Y-95867343D01*
X204365185Y-96655881D01*
X204365185Y-95867343D01*
X204492252Y-95867343D01*
X204492252Y-96871670D01*
X204356331Y-96871670D01*
X203830293Y-96082460D01*
X203830293Y-96871670D01*
X203703226Y-96871670D01*
G37*
G36*
X160160274Y-86769677D02*
G01*
X160249035Y-86794860D01*
X160331377Y-86836653D01*
X160404063Y-86893343D01*
X160464275Y-86963651D01*
X160512727Y-87049327D01*
X160546289Y-87142684D01*
X160567349Y-87248945D01*
X160574734Y-87370262D01*
X160564395Y-87516079D01*
X160535549Y-87636731D01*
X160490421Y-87736621D01*
X160429745Y-87819241D01*
X160352110Y-87888573D01*
X160265981Y-87937412D01*
X160169590Y-87967143D01*
X160060359Y-87977419D01*
X159953241Y-87967314D01*
X159857961Y-87937978D01*
X159772101Y-87889623D01*
X159693994Y-87820799D01*
X159632186Y-87738691D01*
X159586810Y-87641875D01*
X159558164Y-87527495D01*
X159547998Y-87391878D01*
X159555579Y-87249751D01*
X159576440Y-87134195D01*
X159608303Y-87040839D01*
X159649711Y-86965925D01*
X159700131Y-86906445D01*
X159780635Y-86842385D01*
X159866995Y-86797453D01*
X159960604Y-86770349D01*
X160063381Y-86761090D01*
X160160274Y-86769677D01*
G37*
G36*
X162330873Y-88312614D02*
G01*
X157664182Y-88312614D01*
X157664182Y-87357989D01*
X157830849Y-87357989D01*
X157839855Y-87499772D01*
X157866405Y-87633573D01*
X157910258Y-87760715D01*
X157955830Y-87851153D01*
X158009523Y-87928121D01*
X158071359Y-87993098D01*
X158141801Y-88047120D01*
X158219162Y-88088464D01*
X158309292Y-88119351D01*
X158414344Y-88138987D01*
X158536833Y-88145947D01*
X158652976Y-88137431D01*
X158756587Y-88112858D01*
X158849687Y-88073006D01*
X158933880Y-88017719D01*
X159006746Y-87948729D01*
X159068513Y-87865080D01*
X159119395Y-87764769D01*
X159158828Y-87645127D01*
X158960075Y-87594935D01*
X158933209Y-87688569D01*
X158897780Y-87765952D01*
X158854458Y-87829497D01*
X158803271Y-87881065D01*
X158742960Y-87922781D01*
X158676538Y-87952692D01*
X158602856Y-87971065D01*
X158520438Y-87977419D01*
X158430862Y-87969506D01*
X158346253Y-87946005D01*
X158265265Y-87906528D01*
X158194584Y-87852166D01*
X158136903Y-87781656D01*
X158091609Y-87692388D01*
X158061532Y-87595274D01*
X158042522Y-87484153D01*
X158037530Y-87389221D01*
X159343109Y-87389221D01*
X159343306Y-87391878D01*
X159352712Y-87519021D01*
X159381286Y-87643492D01*
X159429113Y-87764012D01*
X159477532Y-87848381D01*
X159535514Y-87922560D01*
X159603462Y-87987441D01*
X159682179Y-88043548D01*
X159767628Y-88087960D01*
X159858642Y-88119841D01*
X159956177Y-88139297D01*
X160061366Y-88145947D01*
X160189478Y-88135551D01*
X160310516Y-88104743D01*
X160426173Y-88053257D01*
X160505639Y-88001647D01*
X160575230Y-87939519D01*
X160635707Y-87866162D01*
X160687391Y-87780407D01*
X160737900Y-87657219D01*
X160743020Y-87634869D01*
X160968393Y-87634869D01*
X160979623Y-87733487D01*
X161007129Y-87823447D01*
X161050916Y-87906436D01*
X161109475Y-87979430D01*
X161180981Y-88039094D01*
X161267071Y-88086229D01*
X161360874Y-88118031D01*
X161473627Y-88138569D01*
X161608797Y-88145947D01*
X161714787Y-88139099D01*
X161810812Y-88119257D01*
X161898317Y-88087054D01*
X161978954Y-88041413D01*
X162044049Y-87986525D01*
X162095512Y-87922007D01*
X162134030Y-87848839D01*
X162156659Y-87773885D01*
X162164206Y-87695868D01*
X162157028Y-87617138D01*
X162136130Y-87546419D01*
X162101649Y-87482095D01*
X162054675Y-87426053D01*
X161991165Y-87374928D01*
X161908025Y-87328771D01*
X161798103Y-87289706D01*
X161575550Y-87232967D01*
X161411204Y-87189465D01*
X161319851Y-87154005D01*
X161275864Y-87125806D01*
X161243371Y-87087709D01*
X161224081Y-87043912D01*
X161217429Y-86992540D01*
X161226328Y-86934144D01*
X161252992Y-86881670D01*
X161299861Y-86833080D01*
X161358896Y-86799059D01*
X161443675Y-86775834D01*
X161562727Y-86766952D01*
X161676177Y-86776360D01*
X161761268Y-86801627D01*
X161824494Y-86839950D01*
X161874032Y-86894202D01*
X161908943Y-86964684D01*
X161928542Y-87055647D01*
X162119143Y-87041267D01*
X162108449Y-86955257D01*
X162083842Y-86876876D01*
X162045320Y-86804687D01*
X161993843Y-86741462D01*
X161929087Y-86688853D01*
X161849132Y-86646418D01*
X161762491Y-86617217D01*
X161664879Y-86598946D01*
X161554575Y-86592562D01*
X161454492Y-86598520D01*
X161362980Y-86615827D01*
X161278886Y-86643945D01*
X161201125Y-86684609D01*
X161138958Y-86734689D01*
X161090300Y-86794521D01*
X161054224Y-86862873D01*
X161032944Y-86933538D01*
X161025820Y-87007745D01*
X161031808Y-87075391D01*
X161049384Y-87137494D01*
X161078577Y-87195232D01*
X161118333Y-87246422D01*
X161171093Y-87293128D01*
X161238953Y-87335457D01*
X161338390Y-87376283D01*
X161528930Y-87429521D01*
X161717493Y-87477869D01*
X161796376Y-87502978D01*
X161880907Y-87545622D01*
X161931564Y-87591912D01*
X161962189Y-87648821D01*
X161972597Y-87715652D01*
X161962062Y-87782515D01*
X161930007Y-87844704D01*
X161898219Y-87879953D01*
X161855712Y-87910981D01*
X161800406Y-87937669D01*
X161709209Y-87962657D01*
X161599638Y-87971557D01*
X161515179Y-87966268D01*
X161438677Y-87950952D01*
X161369012Y-87926128D01*
X161304268Y-87891058D01*
X161254683Y-87851331D01*
X161217887Y-87806968D01*
X161190484Y-87755849D01*
X161169572Y-87693680D01*
X161155971Y-87618382D01*
X160968393Y-87634869D01*
X160743020Y-87634869D01*
X160768922Y-87521794D01*
X160779623Y-87371819D01*
X160769427Y-87223672D01*
X160739909Y-87090115D01*
X160691971Y-86968910D01*
X160642757Y-86884285D01*
X160584232Y-86810495D01*
X160516023Y-86746572D01*
X160437348Y-86691939D01*
X160352024Y-86648767D01*
X160261698Y-86617827D01*
X160165492Y-86598986D01*
X160062374Y-86592562D01*
X159936367Y-86601551D01*
X159823351Y-86627534D01*
X159721280Y-86669710D01*
X159628508Y-86728202D01*
X159543877Y-86804046D01*
X159474152Y-86891253D01*
X159418885Y-86991242D01*
X159377976Y-87105887D01*
X159352187Y-87237598D01*
X159343109Y-87389221D01*
X158037530Y-87389221D01*
X158035830Y-87356890D01*
X158041082Y-87258375D01*
X158056757Y-87162172D01*
X158082908Y-87067737D01*
X158122464Y-86979840D01*
X158176630Y-86905980D01*
X158246306Y-86844346D01*
X158327587Y-86799163D01*
X158422989Y-86771018D01*
X158535825Y-86761090D01*
X158633829Y-86769982D01*
X158716159Y-86795148D01*
X158785869Y-86835553D01*
X158843976Y-86891479D01*
X158894737Y-86969027D01*
X158937544Y-87073232D01*
X159133182Y-87027070D01*
X159095922Y-86926959D01*
X159047826Y-86841305D01*
X158989038Y-86768279D01*
X158919042Y-86706593D01*
X158839824Y-86657761D01*
X158751352Y-86622266D01*
X158652042Y-86600232D01*
X158539947Y-86592562D01*
X158409794Y-86602855D01*
X158288988Y-86633113D01*
X158175689Y-86683237D01*
X158097824Y-86733718D01*
X158029780Y-86794272D01*
X157970791Y-86865556D01*
X157920517Y-86948668D01*
X157871811Y-87068192D01*
X157841458Y-87203660D01*
X157830849Y-87357989D01*
X157664182Y-87357989D01*
X157664182Y-86425895D01*
X162330873Y-86425895D01*
X162330873Y-88312614D01*
G37*
G36*
X174577870Y-111395371D02*
G01*
X174650865Y-111424224D01*
X174714415Y-111472203D01*
X174763448Y-111534804D01*
X174792877Y-111607002D01*
X174803075Y-111691747D01*
X174793133Y-111775329D01*
X174764515Y-111846216D01*
X174716980Y-111907352D01*
X174655182Y-111954047D01*
X174583438Y-111982257D01*
X174498810Y-111992074D01*
X174416425Y-111981970D01*
X174339899Y-111951774D01*
X174294517Y-111920946D01*
X174257718Y-111883191D01*
X174228708Y-111837834D01*
X174200570Y-111762575D01*
X174191339Y-111685702D01*
X174201155Y-111603394D01*
X174229542Y-111532811D01*
X174276885Y-111471195D01*
X174338491Y-111423757D01*
X174409443Y-111395253D01*
X174492582Y-111385375D01*
X174577870Y-111395371D01*
G37*
G36*
X174562564Y-110771895D02*
G01*
X174620054Y-110794669D01*
X174670360Y-110832622D01*
X174709445Y-110882005D01*
X174732647Y-110937697D01*
X174740610Y-111001791D01*
X174732914Y-111063293D01*
X174710435Y-111117009D01*
X174672466Y-111164915D01*
X174623502Y-111201501D01*
X174566065Y-111223730D01*
X174497711Y-111231502D01*
X174427353Y-111223622D01*
X174368782Y-111201188D01*
X174319383Y-111164457D01*
X174281597Y-111115983D01*
X174258751Y-111059197D01*
X174250781Y-110991625D01*
X174258527Y-110932268D01*
X174281388Y-110879392D01*
X174320482Y-110831157D01*
X174370421Y-110794138D01*
X174428070Y-110771786D01*
X174495696Y-110764021D01*
X174562564Y-110771895D01*
G37*
G36*
X175158328Y-112312614D02*
G01*
X173835170Y-112312614D01*
X173835170Y-111684786D01*
X174001837Y-111684786D01*
X174001921Y-111685702D01*
X174010651Y-111780899D01*
X174036230Y-111866509D01*
X174078316Y-111943706D01*
X174138033Y-112013964D01*
X174209881Y-112070650D01*
X174292165Y-112111580D01*
X174386882Y-112137024D01*
X174496703Y-112145947D01*
X174606557Y-112137056D01*
X174701287Y-112111706D01*
X174783559Y-112070942D01*
X174855374Y-112014514D01*
X174915328Y-111944432D01*
X174957420Y-111868005D01*
X174982906Y-111783834D01*
X174991661Y-111689915D01*
X174983248Y-111599139D01*
X174959012Y-111519773D01*
X174919396Y-111449580D01*
X174865344Y-111389923D01*
X174796072Y-111341349D01*
X174708828Y-111303767D01*
X174779556Y-111270291D01*
X174834166Y-111230472D01*
X174875249Y-111184424D01*
X174905419Y-111130545D01*
X174923774Y-111070431D01*
X174930112Y-111002524D01*
X174922494Y-110923071D01*
X174900221Y-110851268D01*
X174863226Y-110785445D01*
X174810219Y-110724453D01*
X174747180Y-110675480D01*
X174674707Y-110640014D01*
X174591001Y-110617911D01*
X174493681Y-110610148D01*
X174396711Y-110617777D01*
X174313635Y-110639450D01*
X174242036Y-110674133D01*
X174180073Y-110721889D01*
X174128165Y-110781508D01*
X174091807Y-110846419D01*
X174069829Y-110917808D01*
X174062834Y-110991625D01*
X174062287Y-110997395D01*
X174068746Y-111068037D01*
X174087320Y-111129612D01*
X174117608Y-111183874D01*
X174159171Y-111230096D01*
X174214923Y-111270116D01*
X174287692Y-111303767D01*
X174201067Y-111335770D01*
X174131452Y-111380744D01*
X174076117Y-111438864D01*
X174035677Y-111508328D01*
X174010637Y-111589366D01*
X174001837Y-111684786D01*
X173835170Y-111684786D01*
X173835170Y-110443481D01*
X175158328Y-110443481D01*
X175158328Y-112312614D01*
G37*
G36*
X144302686Y-96915000D02*
G01*
X144151683Y-96915000D01*
X144034874Y-96610184D01*
X143616120Y-96610184D01*
X143506149Y-96915000D01*
X143365404Y-96915000D01*
X143524042Y-96500764D01*
X143654405Y-96500764D01*
X143993902Y-96500764D01*
X143889366Y-96223487D01*
X143845687Y-96102490D01*
X143818353Y-96015881D01*
X143795399Y-96111495D01*
X143764375Y-96207123D01*
X143654405Y-96500764D01*
X143524042Y-96500764D01*
X143750026Y-95910673D01*
X143892786Y-95910673D01*
X144302686Y-96915000D01*
G37*
G36*
X144363320Y-96589912D02*
G01*
X144488372Y-96578921D01*
X144497439Y-96629120D01*
X144511380Y-96670566D01*
X144529649Y-96704645D01*
X144554180Y-96734220D01*
X144587237Y-96760705D01*
X144630399Y-96784085D01*
X144676843Y-96800635D01*
X144727844Y-96810845D01*
X144784150Y-96814371D01*
X144857197Y-96808438D01*
X144917995Y-96791779D01*
X144954866Y-96773987D01*
X144983204Y-96753302D01*
X145004396Y-96729802D01*
X145025766Y-96688343D01*
X145032789Y-96643768D01*
X145025850Y-96599214D01*
X145005434Y-96561275D01*
X144971662Y-96530414D01*
X144915308Y-96501985D01*
X144862720Y-96485246D01*
X144737011Y-96453014D01*
X144609985Y-96417522D01*
X144543693Y-96390305D01*
X144498453Y-96362085D01*
X144463280Y-96330948D01*
X144436776Y-96296821D01*
X144417314Y-96258329D01*
X144405597Y-96216927D01*
X144401605Y-96171830D01*
X144406354Y-96122358D01*
X144420541Y-96075248D01*
X144444591Y-96029680D01*
X144477030Y-95989793D01*
X144518475Y-95956406D01*
X144570315Y-95929296D01*
X144626378Y-95910551D01*
X144687386Y-95899013D01*
X144754108Y-95895041D01*
X144827644Y-95899297D01*
X144892719Y-95911478D01*
X144950479Y-95930945D01*
X145003783Y-95959235D01*
X145046953Y-95994308D01*
X145081271Y-96036458D01*
X145106953Y-96084584D01*
X145123357Y-96136838D01*
X145130486Y-96194178D01*
X145003419Y-96203764D01*
X144990353Y-96143122D01*
X144967079Y-96096135D01*
X144934054Y-96059966D01*
X144891904Y-96034418D01*
X144835176Y-96017573D01*
X144759543Y-96011301D01*
X144680174Y-96017223D01*
X144623655Y-96032706D01*
X144584298Y-96055387D01*
X144553053Y-96087780D01*
X144535277Y-96122762D01*
X144529344Y-96161693D01*
X144533778Y-96195941D01*
X144546639Y-96225139D01*
X144568300Y-96250537D01*
X144597625Y-96269337D01*
X144658527Y-96292977D01*
X144768091Y-96321978D01*
X144916460Y-96359804D01*
X144989741Y-96385847D01*
X145045168Y-96416619D01*
X145087508Y-96450702D01*
X145118824Y-96488063D01*
X145141812Y-96530946D01*
X145155743Y-96578092D01*
X145160528Y-96630579D01*
X145155497Y-96682590D01*
X145140412Y-96732559D01*
X145114733Y-96781338D01*
X145080424Y-96824350D01*
X145037028Y-96860942D01*
X144983269Y-96891369D01*
X144924933Y-96912838D01*
X144860916Y-96926066D01*
X144790256Y-96930631D01*
X144700142Y-96925712D01*
X144624974Y-96912021D01*
X144562439Y-96890819D01*
X144505045Y-96859396D01*
X144457375Y-96819620D01*
X144418335Y-96770957D01*
X144389144Y-96715631D01*
X144370807Y-96655658D01*
X144363320Y-96589912D01*
G37*
G36*
X145363983Y-96915000D02*
G01*
X145363983Y-95910673D01*
X145496484Y-95910673D01*
X145496484Y-96915000D01*
X145363983Y-96915000D01*
G37*
G36*
X145728881Y-96915000D02*
G01*
X145728881Y-95910673D01*
X145864864Y-95910673D01*
X146390841Y-96699211D01*
X146390841Y-95910673D01*
X146517908Y-95910673D01*
X146517908Y-96915000D01*
X146381987Y-96915000D01*
X145855949Y-96125790D01*
X145855949Y-96915000D01*
X145728881Y-96915000D01*
G37*
G36*
X144862370Y-108286807D02*
G01*
X144862370Y-108915000D01*
X144739393Y-108915000D01*
X144739393Y-108286807D01*
X144548090Y-108286807D01*
X144548090Y-108188133D01*
X145452582Y-108188133D01*
X145452582Y-108286807D01*
X145287230Y-108286807D01*
X145287230Y-108915000D01*
X145164315Y-108915000D01*
X145164315Y-108286807D01*
X144862370Y-108286807D01*
G37*
G36*
X189283904Y-148289167D02*
G01*
X188722050Y-148289167D01*
X188722050Y-148122500D01*
X188896961Y-148122500D01*
X189108994Y-148122500D01*
X189108994Y-147911474D01*
X188896961Y-147911474D01*
X188896961Y-148122500D01*
X188722050Y-148122500D01*
X188722050Y-146949676D01*
X188888717Y-146949676D01*
X188945046Y-147747342D01*
X189063931Y-147747342D01*
X189117237Y-146949676D01*
X189117237Y-146616010D01*
X188888717Y-146616010D01*
X188888717Y-146949676D01*
X188722050Y-146949676D01*
X188722050Y-146449343D01*
X189283904Y-146449343D01*
X189283904Y-148289167D01*
G37*
G36*
X146379045Y-122794785D02*
G01*
X146461837Y-122805979D01*
X146516748Y-122821448D01*
X146584490Y-122858105D01*
X146646918Y-122913954D01*
X146704693Y-122992540D01*
X146735988Y-123056515D01*
X146760278Y-123136507D01*
X146776264Y-123235741D01*
X146782087Y-123357897D01*
X146777215Y-123472126D01*
X146763621Y-123568655D01*
X146742612Y-123649890D01*
X146711494Y-123727593D01*
X146674677Y-123790830D01*
X146632519Y-123841681D01*
X146575630Y-123885542D01*
X146497789Y-123920266D01*
X146405066Y-123940174D01*
X146264690Y-123948110D01*
X145943938Y-123948110D01*
X145943938Y-122790399D01*
X146259560Y-122790399D01*
X146379045Y-122794785D01*
G37*
G36*
X147153735Y-124289167D02*
G01*
X142798363Y-124289167D01*
X142798363Y-124122500D01*
X142965030Y-124122500D01*
X143957877Y-124122500D01*
X144227796Y-124122500D01*
X144418397Y-124122500D01*
X144418397Y-122938685D01*
X145207454Y-124122500D01*
X145411336Y-124122500D01*
X145411336Y-123948110D01*
X145745185Y-123948110D01*
X145745185Y-124122500D01*
X146287221Y-124122500D01*
X146419335Y-124115693D01*
X146528472Y-124096854D01*
X146627981Y-124064184D01*
X146707807Y-124021291D01*
X146777594Y-123963748D01*
X146844553Y-123884637D01*
X146899740Y-123790024D01*
X146947043Y-123665277D01*
X146968636Y-123576002D01*
X146982280Y-123475074D01*
X146987068Y-123361011D01*
X146980085Y-123227700D01*
X146960067Y-123108932D01*
X146928084Y-123002890D01*
X146881415Y-122903333D01*
X146822306Y-122818093D01*
X146750397Y-122745519D01*
X146686340Y-122699390D01*
X146613331Y-122663405D01*
X146530029Y-122637625D01*
X146427441Y-122622297D01*
X146262583Y-122616010D01*
X145745185Y-122616010D01*
X145745185Y-123948110D01*
X145411336Y-123948110D01*
X145411336Y-122616010D01*
X145220735Y-122616010D01*
X145220735Y-123798817D01*
X144431769Y-122616010D01*
X144227796Y-122616010D01*
X144227796Y-124122500D01*
X143957877Y-124122500D01*
X143957877Y-123948110D01*
X143221210Y-123948110D01*
X143255255Y-123898666D01*
X143298971Y-123847635D01*
X143361779Y-123787710D01*
X143512195Y-123657400D01*
X143694691Y-123495233D01*
X143796493Y-123391786D01*
X143872328Y-123293577D01*
X143918951Y-123207413D01*
X143946741Y-123118578D01*
X143955862Y-123029269D01*
X143947756Y-122942620D01*
X143924177Y-122865130D01*
X143885258Y-122794920D01*
X143829833Y-122730682D01*
X143763579Y-122679420D01*
X143686019Y-122641991D01*
X143594965Y-122618469D01*
X143487557Y-122610148D01*
X143380786Y-122617920D01*
X143290030Y-122639879D01*
X143212601Y-122674718D01*
X143146380Y-122722164D01*
X143091433Y-122781968D01*
X143048512Y-122854528D01*
X143017610Y-122942115D01*
X142999834Y-123047770D01*
X143189428Y-123067370D01*
X143199705Y-122975645D01*
X143227041Y-122902753D01*
X143270303Y-122844529D01*
X143328107Y-122800591D01*
X143398022Y-122773578D01*
X143483527Y-122764021D01*
X143564484Y-122772960D01*
X143631580Y-122798345D01*
X143687866Y-122839767D01*
X143731570Y-122894275D01*
X143757420Y-122955431D01*
X143766268Y-123025513D01*
X143757692Y-123093113D01*
X143730299Y-123166716D01*
X143680173Y-123248538D01*
X143616930Y-123323958D01*
X143511335Y-123427975D01*
X143349254Y-123568190D01*
X143202966Y-123696052D01*
X143107912Y-123795245D01*
X143034516Y-123896391D01*
X142986554Y-123994638D01*
X142969373Y-124057196D01*
X142965030Y-124122500D01*
X142798363Y-124122500D01*
X142798363Y-122443481D01*
X147153735Y-122443481D01*
X147153735Y-124289167D01*
G37*
G36*
X204647531Y-148284268D02*
G01*
X202880512Y-148284268D01*
X202880512Y-147280469D01*
X203102734Y-147280469D01*
X203102734Y-147512988D01*
X203647884Y-147512988D01*
X203647884Y-148062046D01*
X203880159Y-148062046D01*
X203880159Y-147512988D01*
X204425309Y-147512988D01*
X204425309Y-147280469D01*
X203880159Y-147280469D01*
X203880159Y-146741181D01*
X203647884Y-146741181D01*
X203647884Y-147280469D01*
X203102734Y-147280469D01*
X202880512Y-147280469D01*
X202880512Y-146518959D01*
X204647531Y-146518959D01*
X204647531Y-148284268D01*
G37*
G36*
X160365237Y-136289167D02*
G01*
X159478601Y-136289167D01*
X159478601Y-134991167D01*
X159645268Y-134991167D01*
X159645268Y-135167021D01*
X159732874Y-135129154D01*
X159839441Y-135071492D01*
X159940703Y-135005160D01*
X160014105Y-134944089D01*
X160014105Y-136122500D01*
X160198570Y-136122500D01*
X160198570Y-134610148D01*
X160079685Y-134610148D01*
X160042924Y-134672365D01*
X159989370Y-134739732D01*
X159915737Y-134813114D01*
X159835476Y-134878432D01*
X159745592Y-134937796D01*
X159645268Y-134991167D01*
X159478601Y-134991167D01*
X159478601Y-134443481D01*
X160365237Y-134443481D01*
X160365237Y-136289167D01*
G37*
G36*
X205632056Y-100188165D02*
G01*
X201316424Y-100188165D01*
X201316424Y-99438501D01*
X201538646Y-99438501D01*
X201538646Y-99500050D01*
X201736430Y-99573876D01*
X201931938Y-99667479D01*
X202127103Y-99783861D01*
X202386962Y-99965943D01*
X202546880Y-99965943D01*
X202406775Y-99786136D01*
X202271515Y-99647679D01*
X202141132Y-99543770D01*
X205409834Y-99543770D01*
X205409834Y-99405772D01*
X202141132Y-99405772D01*
X202359301Y-99209767D01*
X202540835Y-98983599D01*
X202384947Y-98983599D01*
X202118696Y-99165857D01*
X201915634Y-99284139D01*
X201715458Y-99377301D01*
X201538646Y-99438501D01*
X201316424Y-99438501D01*
X201316424Y-98761377D01*
X205632056Y-98761377D01*
X205632056Y-100188165D01*
G37*
G36*
X204576652Y-112153923D02*
G01*
X202809756Y-112153923D01*
X202809756Y-111931701D01*
X203552459Y-111931701D01*
X203832606Y-111931701D01*
X203832606Y-111650334D01*
X203552459Y-111650334D01*
X203552459Y-111931701D01*
X202809756Y-111931701D01*
X202809756Y-111499880D01*
X203031978Y-111499880D01*
X204354430Y-111499880D01*
X204354430Y-111267361D01*
X203031978Y-111267361D01*
X203031978Y-111499880D01*
X202809756Y-111499880D01*
X202809756Y-111111045D01*
X203552459Y-111111045D01*
X203832606Y-111111045D01*
X203832606Y-110829678D01*
X203552459Y-110829678D01*
X203552459Y-111111045D01*
X202809756Y-111111045D01*
X202809756Y-110607456D01*
X204576652Y-110607456D01*
X204576652Y-112153923D01*
G37*
G36*
X160257434Y-100289167D02*
G01*
X159739727Y-100289167D01*
X159739727Y-100122500D01*
X159906394Y-100122500D01*
X160090767Y-100122500D01*
X160090767Y-99032199D01*
X159906394Y-99032199D01*
X159906394Y-100122500D01*
X159739727Y-100122500D01*
X159739727Y-98827035D01*
X159906394Y-98827035D01*
X160090767Y-98827035D01*
X160090767Y-98616010D01*
X159906394Y-98616010D01*
X159906394Y-98827035D01*
X159739727Y-98827035D01*
X159739727Y-98449343D01*
X160257434Y-98449343D01*
X160257434Y-100289167D01*
G37*
G36*
X175166480Y-124312614D02*
G01*
X173837185Y-124312614D01*
X173837185Y-123723895D01*
X174003852Y-123723895D01*
X174020651Y-123817007D01*
X174051006Y-123897896D01*
X174094534Y-123968547D01*
X174151863Y-124030359D01*
X174219684Y-124079916D01*
X174296814Y-124115811D01*
X174384985Y-124138133D01*
X174486445Y-124145947D01*
X174585089Y-124138155D01*
X174672109Y-124115739D01*
X174749500Y-124079399D01*
X174818788Y-124028834D01*
X174880928Y-123962765D01*
X174932653Y-123885253D01*
X174969553Y-123801326D01*
X174992075Y-123709728D01*
X174999813Y-123608857D01*
X174990826Y-123503192D01*
X174965013Y-123410830D01*
X174923116Y-123329346D01*
X174864533Y-123256964D01*
X174792678Y-123196816D01*
X174714440Y-123154536D01*
X174628412Y-123128923D01*
X174532607Y-123120127D01*
X174436506Y-123130529D01*
X174342507Y-123162080D01*
X174248766Y-123216664D01*
X174329733Y-122807984D01*
X174929105Y-122807984D01*
X174929105Y-122633595D01*
X174182179Y-122633595D01*
X174036641Y-123408272D01*
X174209840Y-123430804D01*
X174258018Y-123371704D01*
X174322497Y-123324009D01*
X174397835Y-123293290D01*
X174483422Y-123282793D01*
X174575160Y-123293507D01*
X174651313Y-123324051D01*
X174715423Y-123374292D01*
X174753121Y-123422455D01*
X174780648Y-123478970D01*
X174797956Y-123545462D01*
X174804083Y-123624061D01*
X174797765Y-123706719D01*
X174779828Y-123777545D01*
X174751179Y-123838560D01*
X174711851Y-123891324D01*
X174662412Y-123935988D01*
X174609073Y-123967045D01*
X174550887Y-123985699D01*
X174486445Y-123992074D01*
X174415446Y-123983950D01*
X174353119Y-123960292D01*
X174297401Y-123920724D01*
X174253358Y-123868281D01*
X174219693Y-123798651D01*
X174197475Y-123707500D01*
X174003852Y-123723895D01*
X173837185Y-123723895D01*
X173837185Y-122466928D01*
X175166480Y-122466928D01*
X175166480Y-124312614D01*
G37*
G36*
X158952931Y-96915000D02*
G01*
X158801928Y-96915000D01*
X158685119Y-96610184D01*
X158266365Y-96610184D01*
X158156394Y-96915000D01*
X158015649Y-96915000D01*
X158174287Y-96500764D01*
X158304650Y-96500764D01*
X158644147Y-96500764D01*
X158539611Y-96223487D01*
X158495932Y-96102490D01*
X158468598Y-96015881D01*
X158445644Y-96111495D01*
X158414620Y-96207123D01*
X158304650Y-96500764D01*
X158174287Y-96500764D01*
X158400271Y-95910673D01*
X158543031Y-95910673D01*
X158952931Y-96915000D01*
G37*
G36*
X159773221Y-96563290D02*
G01*
X159905723Y-96596751D01*
X159879434Y-96676513D01*
X159845513Y-96743386D01*
X159804335Y-96799153D01*
X159755758Y-96845146D01*
X159699629Y-96882004D01*
X159637562Y-96908572D01*
X159568488Y-96924954D01*
X159491059Y-96930631D01*
X159409400Y-96925991D01*
X159339366Y-96912901D01*
X159279279Y-96892309D01*
X159227705Y-96864747D01*
X159180743Y-96828732D01*
X159139520Y-96785414D01*
X159103724Y-96734102D01*
X159073343Y-96673810D01*
X159044107Y-96589049D01*
X159026408Y-96499848D01*
X159020403Y-96405326D01*
X159027476Y-96302440D01*
X159047712Y-96212128D01*
X159080182Y-96132445D01*
X159113698Y-96077037D01*
X159153024Y-96029515D01*
X159198387Y-95989145D01*
X159250297Y-95955491D01*
X159325830Y-95922075D01*
X159406367Y-95901903D01*
X159493135Y-95895041D01*
X159567865Y-95900155D01*
X159634072Y-95914844D01*
X159693053Y-95938507D01*
X159745866Y-95971062D01*
X159792529Y-96012186D01*
X159831721Y-96060870D01*
X159863785Y-96117973D01*
X159888626Y-96184713D01*
X159758200Y-96215488D01*
X159729662Y-96146018D01*
X159695821Y-96094319D01*
X159657083Y-96057035D01*
X159610610Y-96030099D01*
X159555724Y-96013321D01*
X159490388Y-96007393D01*
X159415163Y-96014012D01*
X159351562Y-96032775D01*
X159297375Y-96062897D01*
X159250924Y-96103986D01*
X159214814Y-96153226D01*
X159188443Y-96211824D01*
X159171009Y-96274781D01*
X159160559Y-96338917D01*
X159157057Y-96404593D01*
X159161519Y-96489435D01*
X159174192Y-96563516D01*
X159194243Y-96628258D01*
X159224439Y-96687770D01*
X159262893Y-96734777D01*
X159310014Y-96771018D01*
X159364006Y-96797336D01*
X159420412Y-96813004D01*
X159480130Y-96818279D01*
X159535075Y-96814043D01*
X159584196Y-96801795D01*
X159628478Y-96781854D01*
X159668685Y-96754043D01*
X159702809Y-96719664D01*
X159731691Y-96677301D01*
X159755310Y-96625713D01*
X159773221Y-96563290D01*
G37*
G36*
X160576832Y-95899324D02*
G01*
X160640970Y-95911884D01*
X160701187Y-95932511D01*
X160758069Y-95961292D01*
X160810519Y-95997715D01*
X160855992Y-96040330D01*
X160895009Y-96089523D01*
X160927818Y-96145940D01*
X160959777Y-96226743D01*
X160979455Y-96315781D01*
X160986253Y-96414546D01*
X160979119Y-96514529D01*
X160958437Y-96604813D01*
X160924765Y-96686938D01*
X160890309Y-96744108D01*
X160849991Y-96793013D01*
X160803597Y-96834431D01*
X160750620Y-96868838D01*
X160673515Y-96903162D01*
X160592823Y-96923700D01*
X160507415Y-96930631D01*
X160437289Y-96926198D01*
X160372265Y-96913227D01*
X160311590Y-96891973D01*
X160254624Y-96862365D01*
X160202146Y-96824960D01*
X160156847Y-96781707D01*
X160118192Y-96732254D01*
X160085913Y-96676008D01*
X160054028Y-96595661D01*
X160034979Y-96512681D01*
X160028708Y-96427918D01*
X160165170Y-96427918D01*
X160171947Y-96518330D01*
X160191044Y-96594583D01*
X160221295Y-96659127D01*
X160262500Y-96713866D01*
X160314571Y-96759749D01*
X160371812Y-96791985D01*
X160435332Y-96811543D01*
X160506743Y-96818279D01*
X160579564Y-96811429D01*
X160643825Y-96791608D01*
X160701244Y-96759048D01*
X160753001Y-96712827D01*
X160793451Y-96657747D01*
X160823537Y-96591154D01*
X160842768Y-96510719D01*
X160849660Y-96413508D01*
X160844737Y-96332630D01*
X160830697Y-96261789D01*
X160808322Y-96199551D01*
X160776021Y-96142434D01*
X160735880Y-96095562D01*
X160687422Y-96057768D01*
X160632527Y-96029906D01*
X160573354Y-96013118D01*
X160508758Y-96007393D01*
X160440240Y-96013566D01*
X160377834Y-96031635D01*
X160320261Y-96061590D01*
X160266592Y-96104296D01*
X160232978Y-96143950D01*
X160205373Y-96193893D01*
X160184131Y-96256130D01*
X160170224Y-96333167D01*
X160165170Y-96427918D01*
X160028708Y-96427918D01*
X160028577Y-96426147D01*
X160034629Y-96325065D01*
X160051821Y-96237258D01*
X160079094Y-96160828D01*
X160115939Y-96094169D01*
X160162422Y-96036031D01*
X160218843Y-95985468D01*
X160280691Y-95946473D01*
X160348738Y-95918356D01*
X160424082Y-95901034D01*
X160508087Y-95895041D01*
X160576832Y-95899324D01*
G37*
G36*
X161112099Y-96589912D02*
G01*
X161237152Y-96578921D01*
X161246219Y-96629120D01*
X161260160Y-96670566D01*
X161278429Y-96704645D01*
X161302959Y-96734220D01*
X161336016Y-96760705D01*
X161379179Y-96784085D01*
X161425622Y-96800635D01*
X161476624Y-96810845D01*
X161532930Y-96814371D01*
X161605977Y-96808438D01*
X161666775Y-96791779D01*
X161703646Y-96773987D01*
X161731983Y-96753302D01*
X161753176Y-96729802D01*
X161774545Y-96688343D01*
X161781569Y-96643768D01*
X161774630Y-96599214D01*
X161754214Y-96561275D01*
X161720442Y-96530414D01*
X161664088Y-96501985D01*
X161611500Y-96485246D01*
X161485791Y-96453014D01*
X161358764Y-96417522D01*
X161292473Y-96390305D01*
X161247233Y-96362085D01*
X161212059Y-96330948D01*
X161185555Y-96296821D01*
X161166094Y-96258329D01*
X161154376Y-96216927D01*
X161150384Y-96171830D01*
X161155134Y-96122358D01*
X161169320Y-96075248D01*
X161193371Y-96029680D01*
X161225810Y-95989793D01*
X161267254Y-95956406D01*
X161319095Y-95929296D01*
X161375158Y-95910551D01*
X161436165Y-95899013D01*
X161502888Y-95895041D01*
X161576423Y-95899297D01*
X161641498Y-95911478D01*
X161699259Y-95930945D01*
X161752562Y-95959235D01*
X161795733Y-95994308D01*
X161830051Y-96036458D01*
X161855732Y-96084584D01*
X161872137Y-96136838D01*
X161879266Y-96194178D01*
X161752199Y-96203764D01*
X161739133Y-96143122D01*
X161715859Y-96096135D01*
X161682834Y-96059966D01*
X161640683Y-96034418D01*
X161583955Y-96017573D01*
X161508322Y-96011301D01*
X161428954Y-96017223D01*
X161372435Y-96032706D01*
X161333078Y-96055387D01*
X161301832Y-96087780D01*
X161284056Y-96122762D01*
X161278123Y-96161693D01*
X161282558Y-96195941D01*
X161295418Y-96225139D01*
X161317080Y-96250537D01*
X161346405Y-96269337D01*
X161407307Y-96292977D01*
X161516871Y-96321978D01*
X161665239Y-96359804D01*
X161738521Y-96385847D01*
X161793948Y-96416619D01*
X161836288Y-96450702D01*
X161867603Y-96488063D01*
X161890591Y-96530946D01*
X161904523Y-96578092D01*
X161909308Y-96630579D01*
X161904277Y-96682590D01*
X161889191Y-96732559D01*
X161863512Y-96781338D01*
X161829203Y-96824350D01*
X161785807Y-96860942D01*
X161732049Y-96891369D01*
X161673712Y-96912838D01*
X161609695Y-96926066D01*
X161539036Y-96930631D01*
X161448922Y-96925712D01*
X161373754Y-96912021D01*
X161311218Y-96890819D01*
X161253825Y-96859396D01*
X161206154Y-96819620D01*
X161167115Y-96770957D01*
X161137923Y-96715631D01*
X161119586Y-96655658D01*
X161112099Y-96589912D01*
G37*
G36*
X142665832Y-84589912D02*
G01*
X142790884Y-84578921D01*
X142799951Y-84629120D01*
X142813893Y-84670566D01*
X142832161Y-84704645D01*
X142856692Y-84734220D01*
X142889749Y-84760705D01*
X142932912Y-84784085D01*
X142979355Y-84800635D01*
X143030357Y-84810845D01*
X143086662Y-84814371D01*
X143159709Y-84808438D01*
X143220507Y-84791779D01*
X143257379Y-84773987D01*
X143285716Y-84753302D01*
X143306908Y-84729802D01*
X143328278Y-84688343D01*
X143335302Y-84643768D01*
X143328363Y-84599214D01*
X143307946Y-84561275D01*
X143274175Y-84530414D01*
X143217821Y-84501985D01*
X143165232Y-84485246D01*
X143039524Y-84453014D01*
X142912497Y-84417522D01*
X142846205Y-84390305D01*
X142800965Y-84362085D01*
X142765792Y-84330948D01*
X142739288Y-84296821D01*
X142719827Y-84258329D01*
X142708109Y-84216927D01*
X142704117Y-84171830D01*
X142708866Y-84122358D01*
X142723053Y-84075248D01*
X142747104Y-84029680D01*
X142779542Y-83989793D01*
X142820987Y-83956406D01*
X142872828Y-83929296D01*
X142928891Y-83910551D01*
X142989898Y-83899013D01*
X143056621Y-83895041D01*
X143130156Y-83899297D01*
X143195231Y-83911478D01*
X143252992Y-83930945D01*
X143306295Y-83959235D01*
X143349465Y-83994308D01*
X143383784Y-84036458D01*
X143409465Y-84084584D01*
X143425870Y-84136838D01*
X143432999Y-84194178D01*
X143305931Y-84203764D01*
X143292866Y-84143122D01*
X143269591Y-84096135D01*
X143236566Y-84059966D01*
X143194416Y-84034418D01*
X143137688Y-84017573D01*
X143062055Y-84011301D01*
X142982687Y-84017223D01*
X142926167Y-84032706D01*
X142886811Y-84055387D01*
X142855565Y-84087780D01*
X142837789Y-84122762D01*
X142831856Y-84161693D01*
X142836291Y-84195941D01*
X142849151Y-84225139D01*
X142870813Y-84250537D01*
X142900138Y-84269337D01*
X142961039Y-84292977D01*
X143070603Y-84321978D01*
X143218972Y-84359804D01*
X143292254Y-84385847D01*
X143347680Y-84416619D01*
X143390021Y-84450702D01*
X143421336Y-84488063D01*
X143444324Y-84530946D01*
X143458256Y-84578092D01*
X143463041Y-84630579D01*
X143458010Y-84682590D01*
X143442924Y-84732559D01*
X143417245Y-84781338D01*
X143382936Y-84824350D01*
X143339540Y-84860942D01*
X143285781Y-84891369D01*
X143227445Y-84912838D01*
X143163428Y-84926066D01*
X143092768Y-84930631D01*
X143002655Y-84925712D01*
X142927486Y-84912021D01*
X142864951Y-84890819D01*
X142807558Y-84859396D01*
X142759887Y-84819620D01*
X142720848Y-84770957D01*
X142691656Y-84715631D01*
X142673319Y-84655658D01*
X142665832Y-84589912D01*
G37*
G36*
X143898770Y-84915000D02*
G01*
X143898770Y-84026933D01*
X143568798Y-84026933D01*
X143568798Y-83910673D01*
X144362587Y-83910673D01*
X144362587Y-84026933D01*
X144031272Y-84026933D01*
X144031272Y-84915000D01*
X143898770Y-84915000D01*
G37*
G36*
X144981368Y-83899324D02*
G01*
X145045505Y-83911884D01*
X145105722Y-83932511D01*
X145162604Y-83961292D01*
X145215055Y-83997715D01*
X145260528Y-84040330D01*
X145299544Y-84089523D01*
X145332353Y-84145940D01*
X145364312Y-84226743D01*
X145383990Y-84315781D01*
X145390788Y-84414546D01*
X145383654Y-84514529D01*
X145362973Y-84604813D01*
X145329300Y-84686938D01*
X145294844Y-84744108D01*
X145254526Y-84793013D01*
X145208132Y-84834431D01*
X145155155Y-84868838D01*
X145078050Y-84903162D01*
X144997358Y-84923700D01*
X144911950Y-84930631D01*
X144841824Y-84926198D01*
X144776801Y-84913227D01*
X144716125Y-84891973D01*
X144659159Y-84862365D01*
X144606681Y-84824960D01*
X144561382Y-84781707D01*
X144522727Y-84732254D01*
X144490448Y-84676008D01*
X144458564Y-84595661D01*
X144439514Y-84512681D01*
X144433243Y-84427918D01*
X144569705Y-84427918D01*
X144576482Y-84518330D01*
X144595580Y-84594583D01*
X144625830Y-84659127D01*
X144667036Y-84713866D01*
X144719106Y-84759749D01*
X144776347Y-84791985D01*
X144839867Y-84811543D01*
X144911279Y-84818279D01*
X144984099Y-84811429D01*
X145048360Y-84791608D01*
X145105779Y-84759048D01*
X145157536Y-84712827D01*
X145197987Y-84657747D01*
X145228072Y-84591154D01*
X145247303Y-84510719D01*
X145254196Y-84413508D01*
X145249272Y-84332630D01*
X145235232Y-84261789D01*
X145212857Y-84199551D01*
X145180556Y-84142434D01*
X145140415Y-84095562D01*
X145091957Y-84057768D01*
X145037063Y-84029906D01*
X144977889Y-84013118D01*
X144913294Y-84007393D01*
X144844775Y-84013566D01*
X144782369Y-84031635D01*
X144724796Y-84061590D01*
X144671127Y-84104296D01*
X144637513Y-84143950D01*
X144609908Y-84193893D01*
X144588666Y-84256130D01*
X144574759Y-84333167D01*
X144569705Y-84427918D01*
X144433243Y-84427918D01*
X144433112Y-84426147D01*
X144439164Y-84325065D01*
X144456357Y-84237258D01*
X144483629Y-84160828D01*
X144520474Y-84094169D01*
X144566957Y-84036031D01*
X144623378Y-83985468D01*
X144685226Y-83946473D01*
X144753273Y-83918356D01*
X144828617Y-83901034D01*
X144912622Y-83895041D01*
X144981368Y-83899324D01*
G37*
G36*
X146097682Y-83914313D02*
G01*
X146163896Y-83923858D01*
X146211383Y-83937540D01*
X146254429Y-83959831D01*
X146291311Y-83991113D01*
X146322697Y-84032428D01*
X146345822Y-84079208D01*
X146359695Y-84128987D01*
X146364401Y-84182637D01*
X146359917Y-84234551D01*
X146346903Y-84281022D01*
X146325546Y-84323081D01*
X146295403Y-84361484D01*
X146259059Y-84392575D01*
X146212792Y-84418666D01*
X146154670Y-84439408D01*
X146082301Y-84453930D01*
X146130959Y-84480864D01*
X146162168Y-84504366D01*
X146217338Y-84563354D01*
X146272200Y-84639188D01*
X146446345Y-84915000D01*
X146279710Y-84915000D01*
X146147147Y-84703974D01*
X146051526Y-84564267D01*
X146013506Y-84520652D01*
X145984237Y-84496428D01*
X145953831Y-84479814D01*
X145923787Y-84469439D01*
X145850026Y-84464616D01*
X145696336Y-84464616D01*
X145696336Y-84915000D01*
X145563773Y-84915000D01*
X145563773Y-84352264D01*
X145696336Y-84352264D01*
X145981184Y-84352264D01*
X146066903Y-84346956D01*
X146123273Y-84333640D01*
X146155320Y-84318311D01*
X146180972Y-84298449D01*
X146201125Y-84273862D01*
X146221119Y-84230908D01*
X146227748Y-84184591D01*
X146221885Y-84139856D01*
X146204868Y-84101712D01*
X146176151Y-84068515D01*
X146138940Y-84044901D01*
X146086345Y-84029038D01*
X146013302Y-84023025D01*
X145696336Y-84023025D01*
X145696336Y-84352264D01*
X145563773Y-84352264D01*
X145563773Y-83910673D01*
X146007807Y-83910673D01*
X146097682Y-83914313D01*
G37*
G36*
X146574633Y-84915000D02*
G01*
X146574633Y-83910673D01*
X147298752Y-83910673D01*
X147298752Y-84026933D01*
X146707196Y-84026933D01*
X146707196Y-84336632D01*
X147261200Y-84336632D01*
X147261200Y-84452892D01*
X146707196Y-84452892D01*
X146707196Y-84798740D01*
X147322017Y-84798740D01*
X147322017Y-84915000D01*
X146574633Y-84915000D01*
G37*
G36*
X191042360Y-88289167D02*
G01*
X186950678Y-88289167D01*
X186950678Y-88122500D01*
X187117345Y-88122500D01*
X187356032Y-88122500D01*
X187733112Y-87598873D01*
X187804919Y-87486216D01*
X187870499Y-87586600D01*
X188248586Y-88122500D01*
X188494508Y-88122500D01*
X187988019Y-87413218D01*
X188562927Y-87413218D01*
X188752521Y-87413218D01*
X188998443Y-86801665D01*
X189251509Y-87413218D01*
X189436981Y-87413218D01*
X189083664Y-86616010D01*
X189498530Y-86616010D01*
X190077477Y-87483560D01*
X190077477Y-88122500D01*
X190276230Y-88122500D01*
X190276230Y-87483560D01*
X190875693Y-86616010D01*
X190644151Y-86616010D01*
X190353166Y-87059036D01*
X190189218Y-87325291D01*
X190036536Y-87070393D01*
X189740330Y-86616010D01*
X189498530Y-86616010D01*
X189083664Y-86616010D01*
X189073272Y-86592562D01*
X188924620Y-86592562D01*
X188562927Y-87413218D01*
X187988019Y-87413218D01*
X187925820Y-87326115D01*
X188453476Y-86616010D01*
X188237321Y-86616010D01*
X187934979Y-87014614D01*
X187869747Y-87103723D01*
X187816185Y-87185706D01*
X187695193Y-87001333D01*
X187422710Y-86616010D01*
X187185947Y-86616010D01*
X187698307Y-87337381D01*
X187117345Y-88122500D01*
X186950678Y-88122500D01*
X186950678Y-86425895D01*
X191042360Y-86425895D01*
X191042360Y-88289167D01*
G37*
G36*
X189941656Y-76069591D02*
G01*
X187507305Y-76069591D01*
X187507305Y-75057976D01*
X187729527Y-75057976D01*
X187729527Y-75284633D01*
X189719434Y-75847369D01*
X189719434Y-75605080D01*
X188141503Y-75172648D01*
X189719434Y-74737529D01*
X189719434Y-74495240D01*
X187729527Y-75057976D01*
X187507305Y-75057976D01*
X187507305Y-74273018D01*
X189941656Y-74273018D01*
X189941656Y-76069591D01*
G37*
G36*
X202377366Y-108863877D02*
G01*
X202377366Y-107859550D01*
X202509929Y-107859550D01*
X202509929Y-108747617D01*
X203003117Y-108747617D01*
X203003117Y-108863877D01*
X202377366Y-108863877D01*
G37*
G36*
X203668487Y-107848201D02*
G01*
X203732624Y-107860761D01*
X203792841Y-107881388D01*
X203849723Y-107910169D01*
X203902173Y-107946592D01*
X203947646Y-107989207D01*
X203986663Y-108038400D01*
X204019472Y-108094817D01*
X204051431Y-108175620D01*
X204071109Y-108264658D01*
X204077907Y-108363423D01*
X204070773Y-108463406D01*
X204050092Y-108553690D01*
X204016419Y-108635815D01*
X203981963Y-108692985D01*
X203941645Y-108741890D01*
X203895251Y-108783308D01*
X203842274Y-108817715D01*
X203765169Y-108852039D01*
X203684477Y-108872577D01*
X203599069Y-108879508D01*
X203528943Y-108875075D01*
X203463919Y-108862104D01*
X203403244Y-108840850D01*
X203346278Y-108811242D01*
X203293800Y-108773837D01*
X203248501Y-108730584D01*
X203209846Y-108681131D01*
X203177567Y-108624885D01*
X203145683Y-108544538D01*
X203126633Y-108461558D01*
X203120362Y-108376795D01*
X203256824Y-108376795D01*
X203263601Y-108467207D01*
X203282698Y-108543460D01*
X203312949Y-108608004D01*
X203354155Y-108662743D01*
X203406225Y-108708626D01*
X203463466Y-108740862D01*
X203526986Y-108760420D01*
X203598397Y-108767156D01*
X203671218Y-108760306D01*
X203735479Y-108740485D01*
X203792898Y-108707925D01*
X203844655Y-108661704D01*
X203885105Y-108606624D01*
X203915191Y-108540031D01*
X203934422Y-108459596D01*
X203941314Y-108362385D01*
X203936391Y-108281507D01*
X203922351Y-108210666D01*
X203899976Y-108148428D01*
X203867675Y-108091311D01*
X203827534Y-108044439D01*
X203779076Y-108006645D01*
X203724181Y-107978783D01*
X203665008Y-107961995D01*
X203600412Y-107956270D01*
X203531894Y-107962443D01*
X203469488Y-107980512D01*
X203411915Y-108010467D01*
X203358246Y-108053173D01*
X203324632Y-108092827D01*
X203297027Y-108142770D01*
X203275785Y-108205007D01*
X203261878Y-108282044D01*
X203256824Y-108376795D01*
X203120362Y-108376795D01*
X203120231Y-108375024D01*
X203126283Y-108273942D01*
X203143475Y-108186135D01*
X203170748Y-108109705D01*
X203207593Y-108043046D01*
X203254076Y-107984908D01*
X203310497Y-107934345D01*
X203372345Y-107895350D01*
X203440392Y-107867233D01*
X203515736Y-107849911D01*
X203599741Y-107843918D01*
X203668487Y-107848201D01*
G37*
G36*
X204717457Y-108468203D02*
G01*
X204717457Y-108351943D01*
X205141707Y-108351272D01*
X205141707Y-108723193D01*
X205074545Y-108771647D01*
X205007452Y-108810429D01*
X204940146Y-108840246D01*
X204870078Y-108862121D01*
X204799206Y-108875157D01*
X204727044Y-108879508D01*
X204630237Y-108872269D01*
X204541301Y-108851107D01*
X204458865Y-108816310D01*
X204401860Y-108780879D01*
X204352949Y-108738894D01*
X204311407Y-108690025D01*
X204276843Y-108633617D01*
X204243046Y-108551936D01*
X204222426Y-108463350D01*
X204215355Y-108366476D01*
X204222256Y-108270437D01*
X204242641Y-108179834D01*
X204276477Y-108093596D01*
X204311188Y-108033181D01*
X204351907Y-107982281D01*
X204398802Y-107939897D01*
X204452393Y-107905407D01*
X204531043Y-107871816D01*
X204618603Y-107851099D01*
X204716785Y-107843918D01*
X204788537Y-107847998D01*
X204853712Y-107859808D01*
X204913157Y-107878906D01*
X204968996Y-107906191D01*
X205014407Y-107938702D01*
X205050788Y-107976420D01*
X205080188Y-108020148D01*
X205105635Y-108073906D01*
X205126686Y-108139391D01*
X205007129Y-108172181D01*
X204980481Y-108101188D01*
X204951075Y-108052319D01*
X204926492Y-108025994D01*
X204894999Y-108002715D01*
X204855454Y-107982526D01*
X204790867Y-107963024D01*
X204717457Y-107956270D01*
X204657335Y-107959611D01*
X204605345Y-107969069D01*
X204560348Y-107983992D01*
X204499382Y-108016840D01*
X204453431Y-108056898D01*
X204417192Y-108104465D01*
X204390233Y-108156061D01*
X204369188Y-108219142D01*
X204356375Y-108286203D01*
X204352009Y-108357927D01*
X204357656Y-108446471D01*
X204373444Y-108520520D01*
X204398110Y-108582448D01*
X204433862Y-108637919D01*
X204478313Y-108682232D01*
X204532321Y-108716537D01*
X204592366Y-108740877D01*
X204654530Y-108755425D01*
X204719533Y-108760318D01*
X204776267Y-108756669D01*
X204832117Y-108745718D01*
X204887511Y-108727284D01*
X204963257Y-108691043D01*
X205011892Y-108656759D01*
X205011892Y-108468203D01*
X204717457Y-108468203D01*
G37*
G36*
X173322487Y-84478290D02*
G01*
X173454989Y-84511751D01*
X173428701Y-84591513D01*
X173394779Y-84658386D01*
X173353601Y-84714153D01*
X173305024Y-84760146D01*
X173248895Y-84797004D01*
X173186828Y-84823572D01*
X173117754Y-84839954D01*
X173040326Y-84845631D01*
X172958667Y-84840991D01*
X172888632Y-84827901D01*
X172828545Y-84807309D01*
X172776971Y-84779747D01*
X172730010Y-84743732D01*
X172688786Y-84700414D01*
X172652991Y-84649102D01*
X172622609Y-84588810D01*
X172593374Y-84504049D01*
X172575674Y-84414848D01*
X172569670Y-84320326D01*
X172576742Y-84217440D01*
X172596978Y-84127128D01*
X172629448Y-84047445D01*
X172662964Y-83992037D01*
X172702290Y-83944515D01*
X172747653Y-83904145D01*
X172799563Y-83870491D01*
X172875096Y-83837075D01*
X172955633Y-83816903D01*
X173042402Y-83810041D01*
X173117132Y-83815155D01*
X173183338Y-83829844D01*
X173242320Y-83853507D01*
X173295132Y-83886062D01*
X173341796Y-83927186D01*
X173380988Y-83975870D01*
X173413052Y-84032973D01*
X173437892Y-84099713D01*
X173307466Y-84130488D01*
X173278928Y-84061018D01*
X173245088Y-84009319D01*
X173206350Y-83972035D01*
X173159876Y-83945099D01*
X173104990Y-83928321D01*
X173039654Y-83922393D01*
X172964430Y-83929012D01*
X172900829Y-83947775D01*
X172846641Y-83977897D01*
X172800190Y-84018986D01*
X172764080Y-84068226D01*
X172737709Y-84126824D01*
X172720275Y-84189781D01*
X172709825Y-84253917D01*
X172706324Y-84319593D01*
X172710785Y-84404435D01*
X172723459Y-84478516D01*
X172743510Y-84543258D01*
X172773706Y-84602770D01*
X172812160Y-84649777D01*
X172859281Y-84686018D01*
X172913272Y-84712336D01*
X172969678Y-84728004D01*
X173029396Y-84733279D01*
X173084341Y-84729043D01*
X173133462Y-84716795D01*
X173177744Y-84696854D01*
X173217951Y-84669043D01*
X173252076Y-84634664D01*
X173280957Y-84592301D01*
X173304576Y-84540713D01*
X173322487Y-84478290D01*
G37*
G36*
X174126099Y-83814324D02*
G01*
X174190236Y-83826884D01*
X174250453Y-83847511D01*
X174307336Y-83876292D01*
X174359786Y-83912715D01*
X174405259Y-83955330D01*
X174444275Y-84004523D01*
X174477084Y-84060940D01*
X174509043Y-84141743D01*
X174528722Y-84230781D01*
X174535519Y-84329546D01*
X174528385Y-84429529D01*
X174507704Y-84519813D01*
X174474031Y-84601938D01*
X174439575Y-84659108D01*
X174399257Y-84708013D01*
X174352863Y-84749431D01*
X174299886Y-84783838D01*
X174222781Y-84818162D01*
X174142089Y-84838700D01*
X174056681Y-84845631D01*
X173986555Y-84841198D01*
X173921532Y-84828227D01*
X173860856Y-84806973D01*
X173803890Y-84777365D01*
X173751412Y-84739960D01*
X173706113Y-84696707D01*
X173667458Y-84647254D01*
X173635179Y-84591008D01*
X173603295Y-84510661D01*
X173584245Y-84427681D01*
X173577974Y-84342918D01*
X173714436Y-84342918D01*
X173721213Y-84433330D01*
X173740311Y-84509583D01*
X173770561Y-84574127D01*
X173811767Y-84628866D01*
X173863838Y-84674749D01*
X173921078Y-84706985D01*
X173984598Y-84726543D01*
X174056010Y-84733279D01*
X174128830Y-84726429D01*
X174193091Y-84706608D01*
X174250510Y-84674048D01*
X174302267Y-84627827D01*
X174342718Y-84572747D01*
X174372803Y-84506154D01*
X174392034Y-84425719D01*
X174398927Y-84328508D01*
X174394003Y-84247630D01*
X174379963Y-84176789D01*
X174357588Y-84114551D01*
X174325287Y-84057434D01*
X174285146Y-84010562D01*
X174236688Y-83972768D01*
X174181794Y-83944906D01*
X174122620Y-83928118D01*
X174058025Y-83922393D01*
X173989506Y-83928566D01*
X173927100Y-83946635D01*
X173869527Y-83976590D01*
X173815858Y-84019296D01*
X173782244Y-84058950D01*
X173754639Y-84108893D01*
X173733397Y-84171130D01*
X173719490Y-84248167D01*
X173714436Y-84342918D01*
X173577974Y-84342918D01*
X173577843Y-84341147D01*
X173583895Y-84240065D01*
X173601088Y-84152258D01*
X173628361Y-84075828D01*
X173665205Y-84009169D01*
X173711688Y-83951031D01*
X173768109Y-83900468D01*
X173829957Y-83861473D01*
X173898005Y-83833356D01*
X173973348Y-83816034D01*
X174057353Y-83810041D01*
X174126099Y-83814324D01*
G37*
G36*
X174705085Y-84830000D02*
G01*
X174705085Y-83825673D01*
X174841067Y-83825673D01*
X175367044Y-84614211D01*
X175367044Y-83825673D01*
X175494112Y-83825673D01*
X175494112Y-84830000D01*
X175358190Y-84830000D01*
X174832152Y-84040790D01*
X174832152Y-84830000D01*
X174705085Y-84830000D01*
G37*
G36*
X176002869Y-84830000D02*
G01*
X175614890Y-83825673D01*
X175758321Y-83825673D01*
X176018623Y-84555532D01*
X176071196Y-84720029D01*
X176125174Y-84555532D01*
X176395673Y-83825673D01*
X176530922Y-83825673D01*
X176138852Y-84830000D01*
X176002869Y-84830000D01*
G37*
G36*
X172237560Y-120930819D02*
G01*
X172237560Y-119926492D01*
X172961678Y-119926492D01*
X172961678Y-120042752D01*
X172370122Y-120042752D01*
X172370122Y-120352451D01*
X172924126Y-120352451D01*
X172924126Y-120468711D01*
X172370122Y-120468711D01*
X172370122Y-120814559D01*
X172984943Y-120814559D01*
X172984943Y-120930819D01*
X172237560Y-120930819D01*
G37*
G36*
X173166476Y-120930819D02*
G01*
X173166476Y-119926492D01*
X173302458Y-119926492D01*
X173828435Y-120715030D01*
X173828435Y-119926492D01*
X173955503Y-119926492D01*
X173955503Y-120930819D01*
X173819581Y-120930819D01*
X173293543Y-120141609D01*
X173293543Y-120930819D01*
X173166476Y-120930819D01*
G37*
G36*
X174646649Y-120535145D02*
G01*
X174646649Y-120418885D01*
X175070899Y-120418214D01*
X175070899Y-120790135D01*
X175003736Y-120838589D01*
X174936644Y-120877371D01*
X174869337Y-120907188D01*
X174799270Y-120929063D01*
X174728398Y-120942099D01*
X174656235Y-120946450D01*
X174559429Y-120939211D01*
X174470493Y-120918049D01*
X174388057Y-120883252D01*
X174331051Y-120847821D01*
X174282141Y-120805836D01*
X174240599Y-120756967D01*
X174206035Y-120700559D01*
X174172238Y-120618878D01*
X174151618Y-120530292D01*
X174144547Y-120433418D01*
X174151448Y-120337379D01*
X174171832Y-120246776D01*
X174205668Y-120160538D01*
X174240380Y-120100123D01*
X174281099Y-120049223D01*
X174327994Y-120006839D01*
X174381584Y-119972349D01*
X174460234Y-119938758D01*
X174547794Y-119918041D01*
X174645977Y-119910860D01*
X174717729Y-119914940D01*
X174782903Y-119926750D01*
X174842348Y-119945848D01*
X174898187Y-119973133D01*
X174943599Y-120005644D01*
X174979979Y-120043362D01*
X175009380Y-120087090D01*
X175034827Y-120140848D01*
X175055878Y-120206333D01*
X174936321Y-120239123D01*
X174909672Y-120168130D01*
X174880267Y-120119261D01*
X174855684Y-120092936D01*
X174824190Y-120069657D01*
X174784646Y-120049468D01*
X174720059Y-120029966D01*
X174646649Y-120023212D01*
X174586527Y-120026553D01*
X174534537Y-120036011D01*
X174489540Y-120050934D01*
X174428574Y-120083782D01*
X174382622Y-120123840D01*
X174346384Y-120171407D01*
X174319424Y-120223003D01*
X174298380Y-120286084D01*
X174285567Y-120353145D01*
X174281200Y-120424869D01*
X174286848Y-120513413D01*
X174302636Y-120587462D01*
X174327301Y-120649390D01*
X174363053Y-120704861D01*
X174407505Y-120749174D01*
X174461513Y-120783479D01*
X174521558Y-120807819D01*
X174583722Y-120822367D01*
X174648725Y-120827260D01*
X174705459Y-120823611D01*
X174761308Y-120812660D01*
X174816703Y-120794226D01*
X174892449Y-120757985D01*
X174941084Y-120723701D01*
X174941084Y-120535145D01*
X174646649Y-120535145D01*
G37*
G36*
X176220733Y-120332424D02*
G01*
X176310133Y-120424082D01*
X176377842Y-120483060D01*
X176444450Y-120529398D01*
X176502833Y-120559875D01*
X176502833Y-120590649D01*
X176436854Y-120627566D01*
X176371675Y-120674364D01*
X176306656Y-120732549D01*
X176220000Y-120823596D01*
X176167427Y-120823596D01*
X176214078Y-120733631D01*
X176258936Y-120664410D01*
X176302005Y-120612509D01*
X175212437Y-120612509D01*
X175212437Y-120543510D01*
X176302005Y-120543510D01*
X176229587Y-120445142D01*
X176168770Y-120332424D01*
X176220733Y-120332424D01*
G37*
G36*
X187822567Y-120915000D02*
G01*
X188209875Y-120391587D01*
X187868301Y-119910673D01*
X188026143Y-119910673D01*
X188207799Y-120167555D01*
X188288460Y-120290471D01*
X188324168Y-120235815D01*
X188367656Y-120176409D01*
X188569217Y-119910673D01*
X188713320Y-119910673D01*
X188361550Y-120384077D01*
X188740675Y-120915000D01*
X188576727Y-120915000D01*
X188324669Y-120557733D01*
X188280949Y-120490811D01*
X188233078Y-120565915D01*
X187981691Y-120915000D01*
X187822567Y-120915000D01*
G37*
G36*
X188912684Y-120442145D02*
G01*
X188786288Y-120442145D01*
X189027417Y-119895041D01*
X189126518Y-119895041D01*
X189368990Y-120442145D01*
X189245342Y-120442145D01*
X189076632Y-120034443D01*
X188912684Y-120442145D01*
G37*
G36*
X190110206Y-120798740D02*
G01*
X190110206Y-120915000D01*
X189448308Y-120915000D01*
X189451203Y-120871464D01*
X189462657Y-120829759D01*
X189494633Y-120764260D01*
X189543563Y-120696830D01*
X189606932Y-120630701D01*
X189704458Y-120545460D01*
X189812512Y-120451983D01*
X189882908Y-120382639D01*
X189925070Y-120332358D01*
X189958487Y-120277811D01*
X189976750Y-120228742D01*
X189982467Y-120183675D01*
X189976569Y-120136954D01*
X189959335Y-120096183D01*
X189930199Y-120059844D01*
X189892675Y-120032230D01*
X189847945Y-120015306D01*
X189793973Y-120009347D01*
X189736970Y-120015719D01*
X189690359Y-120033727D01*
X189651823Y-120063019D01*
X189622983Y-120101835D01*
X189604758Y-120150430D01*
X189597907Y-120211580D01*
X189471511Y-120198513D01*
X189483361Y-120128076D01*
X189503963Y-120069685D01*
X189532577Y-120021312D01*
X189569208Y-119981442D01*
X189613356Y-119949812D01*
X189664975Y-119926586D01*
X189725479Y-119911947D01*
X189796659Y-119906765D01*
X189868265Y-119912312D01*
X189928968Y-119927994D01*
X189980674Y-119952946D01*
X190024843Y-119987121D01*
X190061793Y-120029946D01*
X190087740Y-120076753D01*
X190103459Y-120128413D01*
X190108863Y-120186179D01*
X190102782Y-120245719D01*
X190084255Y-120304942D01*
X190053174Y-120362384D01*
X190002617Y-120427857D01*
X189934749Y-120496822D01*
X189813085Y-120604933D01*
X189712808Y-120691807D01*
X189670935Y-120731756D01*
X189641792Y-120765777D01*
X189619095Y-120798740D01*
X190110206Y-120798740D01*
G37*
G36*
X175139827Y-136289167D02*
G01*
X173813646Y-136289167D01*
X173813646Y-136122500D01*
X173980313Y-136122500D01*
X174973160Y-136122500D01*
X174973160Y-135948110D01*
X174236493Y-135948110D01*
X174270538Y-135898666D01*
X174314254Y-135847635D01*
X174377062Y-135787710D01*
X174527478Y-135657400D01*
X174709974Y-135495233D01*
X174811776Y-135391786D01*
X174887611Y-135293577D01*
X174934234Y-135207413D01*
X174962024Y-135118578D01*
X174971145Y-135029269D01*
X174963039Y-134942620D01*
X174939460Y-134865130D01*
X174900541Y-134794920D01*
X174845116Y-134730682D01*
X174778862Y-134679420D01*
X174701302Y-134641991D01*
X174610248Y-134618469D01*
X174502840Y-134610148D01*
X174396069Y-134617920D01*
X174305313Y-134639879D01*
X174227884Y-134674718D01*
X174161663Y-134722164D01*
X174106716Y-134781968D01*
X174063795Y-134854528D01*
X174032893Y-134942115D01*
X174015117Y-135047770D01*
X174204711Y-135067370D01*
X174214988Y-134975645D01*
X174242324Y-134902753D01*
X174285586Y-134844529D01*
X174343390Y-134800591D01*
X174413305Y-134773578D01*
X174498810Y-134764021D01*
X174579767Y-134772960D01*
X174646863Y-134798345D01*
X174703149Y-134839767D01*
X174746853Y-134894275D01*
X174772703Y-134955431D01*
X174781551Y-135025513D01*
X174772975Y-135093113D01*
X174745582Y-135166716D01*
X174695456Y-135248538D01*
X174632213Y-135323958D01*
X174526618Y-135427975D01*
X174364537Y-135568190D01*
X174218249Y-135696052D01*
X174123195Y-135795245D01*
X174049799Y-135896391D01*
X174001837Y-135994638D01*
X173984656Y-136057196D01*
X173980313Y-136122500D01*
X173813646Y-136122500D01*
X173813646Y-134443481D01*
X175139827Y-134443481D01*
X175139827Y-136289167D01*
G37*
G36*
X204546590Y-124316816D02*
G01*
X202836093Y-124316816D01*
X202836093Y-124150149D01*
X203002760Y-124150149D01*
X203241447Y-124150149D01*
X203618527Y-123626522D01*
X203690334Y-123513865D01*
X203755914Y-123614249D01*
X204134001Y-124150149D01*
X204379923Y-124150149D01*
X203811235Y-123353764D01*
X204338891Y-122643659D01*
X204122736Y-122643659D01*
X203820394Y-123042263D01*
X203755162Y-123131372D01*
X203701600Y-123213355D01*
X203580608Y-123028982D01*
X203308125Y-122643659D01*
X203071362Y-122643659D01*
X203583722Y-123365030D01*
X203002760Y-124150149D01*
X202836093Y-124150149D01*
X202836093Y-122476992D01*
X204546590Y-122476992D01*
X204546590Y-124316816D01*
G37*
G36*
X146743773Y-88312614D02*
G01*
X143178557Y-88312614D01*
X143178557Y-87634869D01*
X143345224Y-87634869D01*
X143356454Y-87733487D01*
X143383960Y-87823447D01*
X143427747Y-87906436D01*
X143486306Y-87979430D01*
X143557812Y-88039094D01*
X143643902Y-88086229D01*
X143737705Y-88118031D01*
X143850458Y-88138569D01*
X143985628Y-88145947D01*
X144091618Y-88139099D01*
X144171949Y-88122500D01*
X144846218Y-88122500D01*
X145044971Y-88122500D01*
X145393566Y-88122500D01*
X145584167Y-88122500D01*
X145584167Y-86938685D01*
X146373224Y-88122500D01*
X146577106Y-88122500D01*
X146577106Y-86616010D01*
X146386505Y-86616010D01*
X146386505Y-87798817D01*
X145597540Y-86616010D01*
X145393566Y-86616010D01*
X145393566Y-88122500D01*
X145044971Y-88122500D01*
X145044971Y-86616010D01*
X144846218Y-86616010D01*
X144846218Y-88122500D01*
X144171949Y-88122500D01*
X144187643Y-88119257D01*
X144275148Y-88087054D01*
X144355786Y-88041413D01*
X144420880Y-87986525D01*
X144472343Y-87922007D01*
X144510862Y-87848839D01*
X144533490Y-87773885D01*
X144541037Y-87695868D01*
X144533859Y-87617138D01*
X144512962Y-87546419D01*
X144478480Y-87482095D01*
X144431507Y-87426053D01*
X144367996Y-87374928D01*
X144284856Y-87328771D01*
X144174934Y-87289706D01*
X143952381Y-87232967D01*
X143788035Y-87189465D01*
X143696682Y-87154005D01*
X143652695Y-87125806D01*
X143620203Y-87087709D01*
X143600912Y-87043912D01*
X143594260Y-86992540D01*
X143603160Y-86934144D01*
X143629823Y-86881670D01*
X143676692Y-86833080D01*
X143735727Y-86799059D01*
X143820506Y-86775834D01*
X143939558Y-86766952D01*
X144053008Y-86776360D01*
X144138100Y-86801627D01*
X144201325Y-86839950D01*
X144250863Y-86894202D01*
X144285774Y-86964684D01*
X144305373Y-87055647D01*
X144495974Y-87041267D01*
X144485280Y-86955257D01*
X144460673Y-86876876D01*
X144422151Y-86804687D01*
X144370674Y-86741462D01*
X144305918Y-86688853D01*
X144225963Y-86646418D01*
X144139322Y-86617217D01*
X144041710Y-86598946D01*
X143931407Y-86592562D01*
X143831323Y-86598520D01*
X143739812Y-86615827D01*
X143655717Y-86643945D01*
X143577956Y-86684609D01*
X143515789Y-86734689D01*
X143467131Y-86794521D01*
X143431056Y-86862873D01*
X143409775Y-86933538D01*
X143402651Y-87007745D01*
X143408640Y-87075391D01*
X143426216Y-87137494D01*
X143455408Y-87195232D01*
X143495164Y-87246422D01*
X143547924Y-87293128D01*
X143615784Y-87335457D01*
X143715222Y-87376283D01*
X143905761Y-87429521D01*
X144094324Y-87477869D01*
X144173207Y-87502978D01*
X144257738Y-87545622D01*
X144308395Y-87591912D01*
X144339020Y-87648821D01*
X144349428Y-87715652D01*
X144338893Y-87782515D01*
X144306838Y-87844704D01*
X144275050Y-87879953D01*
X144232544Y-87910981D01*
X144177237Y-87937669D01*
X144086040Y-87962657D01*
X143976469Y-87971557D01*
X143892011Y-87966268D01*
X143815508Y-87950952D01*
X143745843Y-87926128D01*
X143681099Y-87891058D01*
X143631514Y-87851331D01*
X143594718Y-87806968D01*
X143567315Y-87755849D01*
X143546403Y-87693680D01*
X143532802Y-87618382D01*
X143345224Y-87634869D01*
X143178557Y-87634869D01*
X143178557Y-86425895D01*
X146743773Y-86425895D01*
X146743773Y-88312614D01*
G37*
X210738095Y-108006819D02*
X211309523Y-108006819D01*
X211023809Y-109006819D02*
X211023809Y-108006819D01*
X211642857Y-109006819D02*
X211642857Y-108006819D01*
X211642857Y-108006819D02*
X212023809Y-108006819D01*
X212023809Y-108006819D02*
X212119047Y-108054438D01*
X212119047Y-108054438D02*
X212166666Y-108102057D01*
X212166666Y-108102057D02*
X212214285Y-108197295D01*
X212214285Y-108197295D02*
X212214285Y-108340152D01*
X212214285Y-108340152D02*
X212166666Y-108435390D01*
X212166666Y-108435390D02*
X212119047Y-108483009D01*
X212119047Y-108483009D02*
X212023809Y-108530628D01*
X212023809Y-108530628D02*
X211642857Y-108530628D01*
X212547619Y-108006819D02*
X213166666Y-108006819D01*
X213166666Y-108006819D02*
X212833333Y-108387771D01*
X212833333Y-108387771D02*
X212976190Y-108387771D01*
X212976190Y-108387771D02*
X213071428Y-108435390D01*
X213071428Y-108435390D02*
X213119047Y-108483009D01*
X213119047Y-108483009D02*
X213166666Y-108578247D01*
X213166666Y-108578247D02*
X213166666Y-108816342D01*
X213166666Y-108816342D02*
X213119047Y-108911580D01*
X213119047Y-108911580D02*
X213071428Y-108959200D01*
X213071428Y-108959200D02*
X212976190Y-109006819D01*
X212976190Y-109006819D02*
X212690476Y-109006819D01*
X212690476Y-109006819D02*
X212595238Y-108959200D01*
X212595238Y-108959200D02*
X212547619Y-108911580D01*
D11*
X151630953Y-78276809D02*
X151916667Y-78276809D01*
X151773810Y-78776809D02*
X151773810Y-78276809D01*
X152083333Y-78776809D02*
X152083333Y-78276809D01*
X152083333Y-78276809D02*
X152273809Y-78276809D01*
X152273809Y-78276809D02*
X152321428Y-78300619D01*
X152321428Y-78300619D02*
X152345238Y-78324428D01*
X152345238Y-78324428D02*
X152369047Y-78372047D01*
X152369047Y-78372047D02*
X152369047Y-78443476D01*
X152369047Y-78443476D02*
X152345238Y-78491095D01*
X152345238Y-78491095D02*
X152321428Y-78514904D01*
X152321428Y-78514904D02*
X152273809Y-78538714D01*
X152273809Y-78538714D02*
X152083333Y-78538714D01*
X152559524Y-78324428D02*
X152583333Y-78300619D01*
X152583333Y-78300619D02*
X152630952Y-78276809D01*
X152630952Y-78276809D02*
X152750000Y-78276809D01*
X152750000Y-78276809D02*
X152797619Y-78300619D01*
X152797619Y-78300619D02*
X152821428Y-78324428D01*
X152821428Y-78324428D02*
X152845238Y-78372047D01*
X152845238Y-78372047D02*
X152845238Y-78419666D01*
X152845238Y-78419666D02*
X152821428Y-78491095D01*
X152821428Y-78491095D02*
X152535714Y-78776809D01*
X152535714Y-78776809D02*
X152845238Y-78776809D01*
X153130952Y-78491095D02*
X153083333Y-78467285D01*
X153083333Y-78467285D02*
X153059523Y-78443476D01*
X153059523Y-78443476D02*
X153035714Y-78395857D01*
X153035714Y-78395857D02*
X153035714Y-78372047D01*
X153035714Y-78372047D02*
X153059523Y-78324428D01*
X153059523Y-78324428D02*
X153083333Y-78300619D01*
X153083333Y-78300619D02*
X153130952Y-78276809D01*
X153130952Y-78276809D02*
X153226190Y-78276809D01*
X153226190Y-78276809D02*
X153273809Y-78300619D01*
X153273809Y-78300619D02*
X153297618Y-78324428D01*
X153297618Y-78324428D02*
X153321428Y-78372047D01*
X153321428Y-78372047D02*
X153321428Y-78395857D01*
X153321428Y-78395857D02*
X153297618Y-78443476D01*
X153297618Y-78443476D02*
X153273809Y-78467285D01*
X153273809Y-78467285D02*
X153226190Y-78491095D01*
X153226190Y-78491095D02*
X153130952Y-78491095D01*
X153130952Y-78491095D02*
X153083333Y-78514904D01*
X153083333Y-78514904D02*
X153059523Y-78538714D01*
X153059523Y-78538714D02*
X153035714Y-78586333D01*
X153035714Y-78586333D02*
X153035714Y-78681571D01*
X153035714Y-78681571D02*
X153059523Y-78729190D01*
X153059523Y-78729190D02*
X153083333Y-78753000D01*
X153083333Y-78753000D02*
X153130952Y-78776809D01*
X153130952Y-78776809D02*
X153226190Y-78776809D01*
X153226190Y-78776809D02*
X153273809Y-78753000D01*
X153273809Y-78753000D02*
X153297618Y-78729190D01*
X153297618Y-78729190D02*
X153321428Y-78681571D01*
X153321428Y-78681571D02*
X153321428Y-78586333D01*
X153321428Y-78586333D02*
X153297618Y-78538714D01*
X153297618Y-78538714D02*
X153273809Y-78514904D01*
X153273809Y-78514904D02*
X153226190Y-78491095D01*
X195630953Y-78276809D02*
X195916667Y-78276809D01*
X195773810Y-78776809D02*
X195773810Y-78276809D01*
X196083333Y-78776809D02*
X196083333Y-78276809D01*
X196083333Y-78276809D02*
X196273809Y-78276809D01*
X196273809Y-78276809D02*
X196321428Y-78300619D01*
X196321428Y-78300619D02*
X196345238Y-78324428D01*
X196345238Y-78324428D02*
X196369047Y-78372047D01*
X196369047Y-78372047D02*
X196369047Y-78443476D01*
X196369047Y-78443476D02*
X196345238Y-78491095D01*
X196345238Y-78491095D02*
X196321428Y-78514904D01*
X196321428Y-78514904D02*
X196273809Y-78538714D01*
X196273809Y-78538714D02*
X196083333Y-78538714D01*
X196535714Y-78276809D02*
X196845238Y-78276809D01*
X196845238Y-78276809D02*
X196678571Y-78467285D01*
X196678571Y-78467285D02*
X196750000Y-78467285D01*
X196750000Y-78467285D02*
X196797619Y-78491095D01*
X196797619Y-78491095D02*
X196821428Y-78514904D01*
X196821428Y-78514904D02*
X196845238Y-78562523D01*
X196845238Y-78562523D02*
X196845238Y-78681571D01*
X196845238Y-78681571D02*
X196821428Y-78729190D01*
X196821428Y-78729190D02*
X196797619Y-78753000D01*
X196797619Y-78753000D02*
X196750000Y-78776809D01*
X196750000Y-78776809D02*
X196607143Y-78776809D01*
X196607143Y-78776809D02*
X196559524Y-78753000D01*
X196559524Y-78753000D02*
X196535714Y-78729190D01*
X197321428Y-78776809D02*
X197035714Y-78776809D01*
X197178571Y-78776809D02*
X197178571Y-78276809D01*
X197178571Y-78276809D02*
X197130952Y-78348238D01*
X197130952Y-78348238D02*
X197083333Y-78395857D01*
X197083333Y-78395857D02*
X197035714Y-78419666D01*
D10*
X135465714Y-34787319D02*
X135465714Y-33787319D01*
X135465714Y-33787319D02*
X135703809Y-33787319D01*
X135703809Y-33787319D02*
X135846666Y-33834938D01*
X135846666Y-33834938D02*
X135941904Y-33930176D01*
X135941904Y-33930176D02*
X135989523Y-34025414D01*
X135989523Y-34025414D02*
X136037142Y-34215890D01*
X136037142Y-34215890D02*
X136037142Y-34358747D01*
X136037142Y-34358747D02*
X135989523Y-34549223D01*
X135989523Y-34549223D02*
X135941904Y-34644461D01*
X135941904Y-34644461D02*
X135846666Y-34739700D01*
X135846666Y-34739700D02*
X135703809Y-34787319D01*
X135703809Y-34787319D02*
X135465714Y-34787319D01*
X136418095Y-34739700D02*
X136560952Y-34787319D01*
X136560952Y-34787319D02*
X136799047Y-34787319D01*
X136799047Y-34787319D02*
X136894285Y-34739700D01*
X136894285Y-34739700D02*
X136941904Y-34692080D01*
X136941904Y-34692080D02*
X136989523Y-34596842D01*
X136989523Y-34596842D02*
X136989523Y-34501604D01*
X136989523Y-34501604D02*
X136941904Y-34406366D01*
X136941904Y-34406366D02*
X136894285Y-34358747D01*
X136894285Y-34358747D02*
X136799047Y-34311128D01*
X136799047Y-34311128D02*
X136608571Y-34263509D01*
X136608571Y-34263509D02*
X136513333Y-34215890D01*
X136513333Y-34215890D02*
X136465714Y-34168271D01*
X136465714Y-34168271D02*
X136418095Y-34073033D01*
X136418095Y-34073033D02*
X136418095Y-33977795D01*
X136418095Y-33977795D02*
X136465714Y-33882557D01*
X136465714Y-33882557D02*
X136513333Y-33834938D01*
X136513333Y-33834938D02*
X136608571Y-33787319D01*
X136608571Y-33787319D02*
X136846666Y-33787319D01*
X136846666Y-33787319D02*
X136989523Y-33834938D01*
X137370476Y-33882557D02*
X137418095Y-33834938D01*
X137418095Y-33834938D02*
X137513333Y-33787319D01*
X137513333Y-33787319D02*
X137751428Y-33787319D01*
X137751428Y-33787319D02*
X137846666Y-33834938D01*
X137846666Y-33834938D02*
X137894285Y-33882557D01*
X137894285Y-33882557D02*
X137941904Y-33977795D01*
X137941904Y-33977795D02*
X137941904Y-34073033D01*
X137941904Y-34073033D02*
X137894285Y-34215890D01*
X137894285Y-34215890D02*
X137322857Y-34787319D01*
X137322857Y-34787319D02*
X137941904Y-34787319D01*
D11*
X181130953Y-78224809D02*
X181416667Y-78224809D01*
X181273810Y-78724809D02*
X181273810Y-78224809D01*
X181583333Y-78724809D02*
X181583333Y-78224809D01*
X181583333Y-78224809D02*
X181773809Y-78224809D01*
X181773809Y-78224809D02*
X181821428Y-78248619D01*
X181821428Y-78248619D02*
X181845238Y-78272428D01*
X181845238Y-78272428D02*
X181869047Y-78320047D01*
X181869047Y-78320047D02*
X181869047Y-78391476D01*
X181869047Y-78391476D02*
X181845238Y-78439095D01*
X181845238Y-78439095D02*
X181821428Y-78462904D01*
X181821428Y-78462904D02*
X181773809Y-78486714D01*
X181773809Y-78486714D02*
X181583333Y-78486714D01*
X182035714Y-78224809D02*
X182345238Y-78224809D01*
X182345238Y-78224809D02*
X182178571Y-78415285D01*
X182178571Y-78415285D02*
X182250000Y-78415285D01*
X182250000Y-78415285D02*
X182297619Y-78439095D01*
X182297619Y-78439095D02*
X182321428Y-78462904D01*
X182321428Y-78462904D02*
X182345238Y-78510523D01*
X182345238Y-78510523D02*
X182345238Y-78629571D01*
X182345238Y-78629571D02*
X182321428Y-78677190D01*
X182321428Y-78677190D02*
X182297619Y-78701000D01*
X182297619Y-78701000D02*
X182250000Y-78724809D01*
X182250000Y-78724809D02*
X182107143Y-78724809D01*
X182107143Y-78724809D02*
X182059524Y-78701000D01*
X182059524Y-78701000D02*
X182035714Y-78677190D01*
X182654761Y-78224809D02*
X182702380Y-78224809D01*
X182702380Y-78224809D02*
X182749999Y-78248619D01*
X182749999Y-78248619D02*
X182773809Y-78272428D01*
X182773809Y-78272428D02*
X182797618Y-78320047D01*
X182797618Y-78320047D02*
X182821428Y-78415285D01*
X182821428Y-78415285D02*
X182821428Y-78534333D01*
X182821428Y-78534333D02*
X182797618Y-78629571D01*
X182797618Y-78629571D02*
X182773809Y-78677190D01*
X182773809Y-78677190D02*
X182749999Y-78701000D01*
X182749999Y-78701000D02*
X182702380Y-78724809D01*
X182702380Y-78724809D02*
X182654761Y-78724809D01*
X182654761Y-78724809D02*
X182607142Y-78701000D01*
X182607142Y-78701000D02*
X182583333Y-78677190D01*
X182583333Y-78677190D02*
X182559523Y-78629571D01*
X182559523Y-78629571D02*
X182535714Y-78534333D01*
X182535714Y-78534333D02*
X182535714Y-78415285D01*
X182535714Y-78415285D02*
X182559523Y-78320047D01*
X182559523Y-78320047D02*
X182583333Y-78272428D01*
X182583333Y-78272428D02*
X182607142Y-78248619D01*
X182607142Y-78248619D02*
X182654761Y-78224809D01*
X166630953Y-78224809D02*
X166916667Y-78224809D01*
X166773810Y-78724809D02*
X166773810Y-78224809D01*
X167083333Y-78724809D02*
X167083333Y-78224809D01*
X167083333Y-78224809D02*
X167273809Y-78224809D01*
X167273809Y-78224809D02*
X167321428Y-78248619D01*
X167321428Y-78248619D02*
X167345238Y-78272428D01*
X167345238Y-78272428D02*
X167369047Y-78320047D01*
X167369047Y-78320047D02*
X167369047Y-78391476D01*
X167369047Y-78391476D02*
X167345238Y-78439095D01*
X167345238Y-78439095D02*
X167321428Y-78462904D01*
X167321428Y-78462904D02*
X167273809Y-78486714D01*
X167273809Y-78486714D02*
X167083333Y-78486714D01*
X167559524Y-78272428D02*
X167583333Y-78248619D01*
X167583333Y-78248619D02*
X167630952Y-78224809D01*
X167630952Y-78224809D02*
X167750000Y-78224809D01*
X167750000Y-78224809D02*
X167797619Y-78248619D01*
X167797619Y-78248619D02*
X167821428Y-78272428D01*
X167821428Y-78272428D02*
X167845238Y-78320047D01*
X167845238Y-78320047D02*
X167845238Y-78367666D01*
X167845238Y-78367666D02*
X167821428Y-78439095D01*
X167821428Y-78439095D02*
X167535714Y-78724809D01*
X167535714Y-78724809D02*
X167845238Y-78724809D01*
X168083333Y-78724809D02*
X168178571Y-78724809D01*
X168178571Y-78724809D02*
X168226190Y-78701000D01*
X168226190Y-78701000D02*
X168249999Y-78677190D01*
X168249999Y-78677190D02*
X168297618Y-78605761D01*
X168297618Y-78605761D02*
X168321428Y-78510523D01*
X168321428Y-78510523D02*
X168321428Y-78320047D01*
X168321428Y-78320047D02*
X168297618Y-78272428D01*
X168297618Y-78272428D02*
X168273809Y-78248619D01*
X168273809Y-78248619D02*
X168226190Y-78224809D01*
X168226190Y-78224809D02*
X168130952Y-78224809D01*
X168130952Y-78224809D02*
X168083333Y-78248619D01*
X168083333Y-78248619D02*
X168059523Y-78272428D01*
X168059523Y-78272428D02*
X168035714Y-78320047D01*
X168035714Y-78320047D02*
X168035714Y-78439095D01*
X168035714Y-78439095D02*
X168059523Y-78486714D01*
X168059523Y-78486714D02*
X168083333Y-78510523D01*
X168083333Y-78510523D02*
X168130952Y-78534333D01*
X168130952Y-78534333D02*
X168226190Y-78534333D01*
X168226190Y-78534333D02*
X168273809Y-78510523D01*
X168273809Y-78510523D02*
X168297618Y-78486714D01*
X168297618Y-78486714D02*
X168321428Y-78439095D01*
X137130953Y-78276809D02*
X137416667Y-78276809D01*
X137273810Y-78776809D02*
X137273810Y-78276809D01*
X137583333Y-78776809D02*
X137583333Y-78276809D01*
X137583333Y-78276809D02*
X137773809Y-78276809D01*
X137773809Y-78276809D02*
X137821428Y-78300619D01*
X137821428Y-78300619D02*
X137845238Y-78324428D01*
X137845238Y-78324428D02*
X137869047Y-78372047D01*
X137869047Y-78372047D02*
X137869047Y-78443476D01*
X137869047Y-78443476D02*
X137845238Y-78491095D01*
X137845238Y-78491095D02*
X137821428Y-78514904D01*
X137821428Y-78514904D02*
X137773809Y-78538714D01*
X137773809Y-78538714D02*
X137583333Y-78538714D01*
X138059524Y-78324428D02*
X138083333Y-78300619D01*
X138083333Y-78300619D02*
X138130952Y-78276809D01*
X138130952Y-78276809D02*
X138250000Y-78276809D01*
X138250000Y-78276809D02*
X138297619Y-78300619D01*
X138297619Y-78300619D02*
X138321428Y-78324428D01*
X138321428Y-78324428D02*
X138345238Y-78372047D01*
X138345238Y-78372047D02*
X138345238Y-78419666D01*
X138345238Y-78419666D02*
X138321428Y-78491095D01*
X138321428Y-78491095D02*
X138035714Y-78776809D01*
X138035714Y-78776809D02*
X138345238Y-78776809D01*
X138511904Y-78276809D02*
X138845237Y-78276809D01*
X138845237Y-78276809D02*
X138630952Y-78776809D01*
D12*
%TO.C,SW11*%
X156851250Y-113000000D02*
X156851250Y-119000000D01*
X156851250Y-113000000D02*
X162851250Y-113000000D01*
X156851250Y-113500000D02*
X162851250Y-113500000D01*
X156851250Y-118500000D02*
X162851250Y-118500000D01*
X156851250Y-119000000D02*
X162851250Y-119000000D01*
X162851250Y-113000000D02*
X162851250Y-119000000D01*
%TO.C,SW20*%
X171476250Y-137000000D02*
X171476250Y-143000000D01*
X171476250Y-137000000D02*
X177476250Y-137000000D01*
X171476250Y-137500000D02*
X177476250Y-137500000D01*
X171476250Y-142500000D02*
X177476250Y-142500000D01*
X171476250Y-143000000D02*
X177476250Y-143000000D01*
X177476250Y-137000000D02*
X177476250Y-143000000D01*
%TO.C,SW25*%
X186101250Y-113000000D02*
X186101250Y-119000000D01*
X186101250Y-113000000D02*
X192101250Y-113000000D01*
X186101250Y-113500000D02*
X192101250Y-113500000D01*
X186101250Y-118500000D02*
X192101250Y-118500000D01*
X186101250Y-119000000D02*
X192101250Y-119000000D01*
X192101250Y-113000000D02*
X192101250Y-119000000D01*
%TO.C,SW16*%
X171476250Y-89000000D02*
X171476250Y-95000000D01*
X171476250Y-89000000D02*
X177476250Y-89000000D01*
X171476250Y-89500000D02*
X177476250Y-89500000D01*
X171476250Y-94500000D02*
X177476250Y-94500000D01*
X171476250Y-95000000D02*
X177476250Y-95000000D01*
X177476250Y-89000000D02*
X177476250Y-95000000D01*
%TO.C,SW9*%
X156851250Y-89000000D02*
X156851250Y-95000000D01*
X156851250Y-89000000D02*
X162851250Y-89000000D01*
X156851250Y-89500000D02*
X162851250Y-89500000D01*
X156851250Y-94500000D02*
X162851250Y-94500000D01*
X156851250Y-95000000D02*
X162851250Y-95000000D01*
X162851250Y-89000000D02*
X162851250Y-95000000D01*
%TO.C,SW17*%
X171476250Y-101000000D02*
X171476250Y-107000000D01*
X171476250Y-101000000D02*
X177476250Y-101000000D01*
X171476250Y-101500000D02*
X177476250Y-101500000D01*
X171476250Y-106500000D02*
X177476250Y-106500000D01*
X171476250Y-107000000D02*
X177476250Y-107000000D01*
X177476250Y-101000000D02*
X177476250Y-107000000D01*
D13*
%TO.C,TP3*%
X211300000Y-109300000D02*
X212700000Y-109300000D01*
X211300000Y-110700000D02*
X211300000Y-109300000D01*
X212700000Y-109300000D02*
X212700000Y-110700000D01*
X212700000Y-110700000D02*
X211300000Y-110700000D01*
D12*
%TO.C,SW24*%
X186101250Y-101000000D02*
X186101250Y-107000000D01*
X186101250Y-101000000D02*
X192101250Y-101000000D01*
X186101250Y-101500000D02*
X192101250Y-101500000D01*
X186101250Y-106500000D02*
X192101250Y-106500000D01*
X186101250Y-107000000D02*
X192101250Y-107000000D01*
X192101250Y-101000000D02*
X192101250Y-107000000D01*
%TO.C,SW33*%
X200726250Y-125000000D02*
X200726250Y-131000000D01*
X200726250Y-125000000D02*
X206726250Y-125000000D01*
X200726250Y-125500000D02*
X206726250Y-125500000D01*
X200726250Y-130500000D02*
X206726250Y-130500000D01*
X200726250Y-131000000D02*
X206726250Y-131000000D01*
X206726250Y-125000000D02*
X206726250Y-131000000D01*
%TO.C,SW4*%
X142226250Y-113000000D02*
X142226250Y-119000000D01*
X142226250Y-113000000D02*
X148226250Y-113000000D01*
X142226250Y-113500000D02*
X148226250Y-113500000D01*
X142226250Y-118500000D02*
X148226250Y-118500000D01*
X142226250Y-119000000D02*
X148226250Y-119000000D01*
X148226250Y-113000000D02*
X148226250Y-119000000D01*
%TO.C,SW6*%
X142226250Y-137000000D02*
X142226250Y-143000000D01*
X142226250Y-137000000D02*
X148226250Y-137000000D01*
X142226250Y-137500000D02*
X148226250Y-137500000D01*
X142226250Y-142500000D02*
X148226250Y-142500000D01*
X142226250Y-143000000D02*
X148226250Y-143000000D01*
X148226250Y-137000000D02*
X148226250Y-143000000D01*
D13*
%TO.C,TP28*%
X153200000Y-80000000D02*
G75*
G02*
X151800000Y-80000000I-700000J0D01*
G01*
X151800000Y-80000000D02*
G75*
G02*
X153200000Y-80000000I700000J0D01*
G01*
D12*
%TO.C,SW22*%
X186101250Y-77000000D02*
X186101250Y-83000000D01*
X186101250Y-77000000D02*
X192101250Y-77000000D01*
X186101250Y-77500000D02*
X192101250Y-77500000D01*
X186101250Y-82500000D02*
X192101250Y-82500000D01*
X186101250Y-83000000D02*
X192101250Y-83000000D01*
X192101250Y-77000000D02*
X192101250Y-83000000D01*
%TO.C,SW32*%
X200726250Y-113000000D02*
X200726250Y-119000000D01*
X200726250Y-113000000D02*
X206726250Y-113000000D01*
X200726250Y-113500000D02*
X206726250Y-113500000D01*
X200726250Y-118500000D02*
X206726250Y-118500000D01*
X200726250Y-119000000D02*
X206726250Y-119000000D01*
X206726250Y-113000000D02*
X206726250Y-119000000D01*
D13*
%TO.C,TP31*%
X197200000Y-80000000D02*
G75*
G02*
X195800000Y-80000000I-700000J0D01*
G01*
X195800000Y-80000000D02*
G75*
G02*
X197200000Y-80000000I700000J0D01*
G01*
D12*
%TO.C,SW34*%
X200726250Y-137000000D02*
X200726250Y-143000000D01*
X200726250Y-137000000D02*
X206726250Y-137000000D01*
X200726250Y-137500000D02*
X206726250Y-137500000D01*
X200726250Y-142500000D02*
X206726250Y-142500000D01*
X200726250Y-143000000D02*
X206726250Y-143000000D01*
X206726250Y-137000000D02*
X206726250Y-143000000D01*
%TO.C,SW1*%
X142226250Y-77000000D02*
X142226250Y-83000000D01*
X142226250Y-77000000D02*
X148226250Y-77000000D01*
X142226250Y-77500000D02*
X148226250Y-77500000D01*
X142226250Y-82500000D02*
X148226250Y-82500000D01*
X142226250Y-83000000D02*
X148226250Y-83000000D01*
X148226250Y-77000000D02*
X148226250Y-83000000D01*
%TO.C,SW7*%
X142226250Y-149000000D02*
X142226250Y-155000000D01*
X142226250Y-149000000D02*
X148226250Y-149000000D01*
X142226250Y-149500000D02*
X148226250Y-149500000D01*
X142226250Y-154500000D02*
X148226250Y-154500000D01*
X142226250Y-155000000D02*
X148226250Y-155000000D01*
X148226250Y-149000000D02*
X148226250Y-155000000D01*
%TO.C,SW14*%
X156851250Y-149000000D02*
X156851250Y-155000000D01*
X156851250Y-149000000D02*
X162851250Y-149000000D01*
X156851250Y-149500000D02*
X162851250Y-149500000D01*
X156851250Y-154500000D02*
X162851250Y-154500000D01*
X156851250Y-155000000D02*
X162851250Y-155000000D01*
X162851250Y-149000000D02*
X162851250Y-155000000D01*
%TO.C,SW21*%
X171476250Y-149000000D02*
X171476250Y-155000000D01*
X171476250Y-149000000D02*
X177476250Y-149000000D01*
X171476250Y-149500000D02*
X177476250Y-149500000D01*
X171476250Y-154500000D02*
X177476250Y-154500000D01*
X171476250Y-155000000D02*
X177476250Y-155000000D01*
X177476250Y-149000000D02*
X177476250Y-155000000D01*
%TO.C,SW29*%
X200726250Y-77000000D02*
X200726250Y-83000000D01*
X200726250Y-77000000D02*
X206726250Y-77000000D01*
X200726250Y-77500000D02*
X206726250Y-77500000D01*
X200726250Y-82500000D02*
X206726250Y-82500000D01*
X200726250Y-83000000D02*
X206726250Y-83000000D01*
X206726250Y-77000000D02*
X206726250Y-83000000D01*
%TO.C,SW18*%
X171476250Y-113000000D02*
X171476250Y-119000000D01*
X171476250Y-113000000D02*
X177476250Y-113000000D01*
X171476250Y-113500000D02*
X177476250Y-113500000D01*
X171476250Y-118500000D02*
X177476250Y-118500000D01*
X171476250Y-119000000D02*
X177476250Y-119000000D01*
X177476250Y-113000000D02*
X177476250Y-119000000D01*
D13*
%TO.C,DS2*%
X134360000Y-35502500D02*
X134360000Y-71782500D01*
X134360000Y-71782500D02*
X214640000Y-71782500D01*
X134370000Y-35502500D02*
X135160000Y-35502500D01*
X137500000Y-41142500D02*
X210500000Y-41142500D01*
X137500000Y-66142500D02*
X137500000Y-41142500D01*
X141000000Y-35142500D02*
X144000000Y-35142500D01*
X142200280Y-60641820D02*
X142200280Y-46642500D01*
X142700000Y-46142500D02*
X206200000Y-46142500D01*
X206200660Y-61142500D02*
X142700000Y-61142500D01*
X206700000Y-46642500D02*
X206700000Y-60642500D01*
X210500000Y-41142500D02*
X210500000Y-66142500D01*
X210500000Y-66142500D02*
X137500000Y-66142500D01*
X214640000Y-35502500D02*
X135160000Y-35502500D01*
X214640000Y-71782500D02*
X214640000Y-35502500D01*
X142200280Y-46641340D02*
G75*
G02*
X142700660Y-46140960I500380J0D01*
G01*
X142700660Y-61142200D02*
G75*
G02*
X142200280Y-60641820I0J500380D01*
G01*
X206200000Y-46142500D02*
G75*
G02*
X206700000Y-46642500I0J-500000D01*
G01*
X206701040Y-60641820D02*
G75*
G02*
X206200660Y-61142140I-500340J20D01*
G01*
D12*
%TO.C,SW5*%
X142226250Y-125000000D02*
X142226250Y-131000000D01*
X142226250Y-125000000D02*
X148226250Y-125000000D01*
X142226250Y-125500000D02*
X148226250Y-125500000D01*
X142226250Y-130500000D02*
X148226250Y-130500000D01*
X142226250Y-131000000D02*
X148226250Y-131000000D01*
X148226250Y-125000000D02*
X148226250Y-131000000D01*
%TO.C,SW19*%
X171476250Y-125000000D02*
X171476250Y-131000000D01*
X171476250Y-125000000D02*
X177476250Y-125000000D01*
X171476250Y-125500000D02*
X177476250Y-125500000D01*
X171476250Y-130500000D02*
X177476250Y-130500000D01*
X171476250Y-131000000D02*
X177476250Y-131000000D01*
X177476250Y-125000000D02*
X177476250Y-131000000D01*
%TO.C,SW23*%
X186101250Y-89000000D02*
X186101250Y-95000000D01*
X186101250Y-89000000D02*
X192101250Y-89000000D01*
X186101250Y-89500000D02*
X192101250Y-89500000D01*
X186101250Y-94500000D02*
X192101250Y-94500000D01*
X186101250Y-95000000D02*
X192101250Y-95000000D01*
X192101250Y-89000000D02*
X192101250Y-95000000D01*
%TO.C,SW26*%
X186101250Y-125000000D02*
X186101250Y-131000000D01*
X186101250Y-125000000D02*
X192101250Y-125000000D01*
X186101250Y-125500000D02*
X192101250Y-125500000D01*
X186101250Y-130500000D02*
X192101250Y-130500000D01*
X186101250Y-131000000D02*
X192101250Y-131000000D01*
X192101250Y-125000000D02*
X192101250Y-131000000D01*
%TO.C,SW12*%
X156851250Y-125000000D02*
X156851250Y-131000000D01*
X156851250Y-125000000D02*
X162851250Y-125000000D01*
X156851250Y-125500000D02*
X162851250Y-125500000D01*
X156851250Y-130500000D02*
X162851250Y-130500000D01*
X156851250Y-131000000D02*
X162851250Y-131000000D01*
X162851250Y-125000000D02*
X162851250Y-131000000D01*
%TO.C,SW13*%
X156851250Y-137000000D02*
X156851250Y-143000000D01*
X156851250Y-137000000D02*
X162851250Y-137000000D01*
X156851250Y-137500000D02*
X162851250Y-137500000D01*
X156851250Y-142500000D02*
X162851250Y-142500000D01*
X156851250Y-143000000D02*
X162851250Y-143000000D01*
X162851250Y-137000000D02*
X162851250Y-143000000D01*
%TO.C,SW30*%
X200726250Y-89000000D02*
X200726250Y-95000000D01*
X200726250Y-89000000D02*
X206726250Y-89000000D01*
X200726250Y-89500000D02*
X206726250Y-89500000D01*
X200726250Y-94500000D02*
X206726250Y-94500000D01*
X200726250Y-95000000D02*
X206726250Y-95000000D01*
X206726250Y-89000000D02*
X206726250Y-95000000D01*
%TO.C,SW3*%
X142226250Y-101000000D02*
X142226250Y-107000000D01*
X142226250Y-101000000D02*
X148226250Y-101000000D01*
X142226250Y-101500000D02*
X148226250Y-101500000D01*
X142226250Y-106500000D02*
X148226250Y-106500000D01*
X142226250Y-107000000D02*
X148226250Y-107000000D01*
X148226250Y-101000000D02*
X148226250Y-107000000D01*
%TO.C,SW31*%
X200726250Y-101000000D02*
X200726250Y-107000000D01*
X200726250Y-101000000D02*
X206726250Y-101000000D01*
X200726250Y-101500000D02*
X206726250Y-101500000D01*
X200726250Y-106500000D02*
X206726250Y-106500000D01*
X200726250Y-107000000D02*
X206726250Y-107000000D01*
X206726250Y-101000000D02*
X206726250Y-107000000D01*
%TO.C,SW2*%
X142226250Y-89000000D02*
X142226250Y-95000000D01*
X142226250Y-89000000D02*
X148226250Y-89000000D01*
X142226250Y-89500000D02*
X148226250Y-89500000D01*
X142226250Y-94500000D02*
X148226250Y-94500000D01*
X142226250Y-95000000D02*
X148226250Y-95000000D01*
X148226250Y-89000000D02*
X148226250Y-95000000D01*
%TO.C,SW35*%
X200726250Y-149000000D02*
X200726250Y-155000000D01*
X200726250Y-149000000D02*
X206726250Y-149000000D01*
X200726250Y-149500000D02*
X206726250Y-149500000D01*
X200726250Y-154500000D02*
X206726250Y-154500000D01*
X200726250Y-155000000D02*
X206726250Y-155000000D01*
X206726250Y-149000000D02*
X206726250Y-155000000D01*
%TO.C,SW28*%
X186101250Y-149000000D02*
X186101250Y-155000000D01*
X186101250Y-149000000D02*
X192101250Y-149000000D01*
X186101250Y-149500000D02*
X192101250Y-149500000D01*
X186101250Y-154500000D02*
X192101250Y-154500000D01*
X186101250Y-155000000D02*
X192101250Y-155000000D01*
X192101250Y-149000000D02*
X192101250Y-155000000D01*
%TO.C,SW15*%
X171476250Y-77000000D02*
X171476250Y-83000000D01*
X171476250Y-77000000D02*
X177476250Y-77000000D01*
X171476250Y-77500000D02*
X177476250Y-77500000D01*
X171476250Y-82500000D02*
X177476250Y-82500000D01*
X171476250Y-83000000D02*
X177476250Y-83000000D01*
X177476250Y-77000000D02*
X177476250Y-83000000D01*
D13*
%TO.C,TP30*%
X182700000Y-80000000D02*
G75*
G02*
X181300000Y-80000000I-700000J0D01*
G01*
X181300000Y-80000000D02*
G75*
G02*
X182700000Y-80000000I700000J0D01*
G01*
%TO.C,TP29*%
X168200000Y-80000000D02*
G75*
G02*
X166800000Y-80000000I-700000J0D01*
G01*
X166800000Y-80000000D02*
G75*
G02*
X168200000Y-80000000I700000J0D01*
G01*
%TO.C,TP27*%
X138700000Y-80000000D02*
G75*
G02*
X137300000Y-80000000I-700000J0D01*
G01*
X137300000Y-80000000D02*
G75*
G02*
X138700000Y-80000000I700000J0D01*
G01*
D12*
%TO.C,SW27*%
X186101250Y-137000000D02*
X186101250Y-143000000D01*
X186101250Y-137000000D02*
X192101250Y-137000000D01*
X186101250Y-137500000D02*
X192101250Y-137500000D01*
X186101250Y-142500000D02*
X192101250Y-142500000D01*
X186101250Y-143000000D02*
X192101250Y-143000000D01*
X192101250Y-137000000D02*
X192101250Y-143000000D01*
%TO.C,SW10*%
X156851250Y-101000000D02*
X156851250Y-107000000D01*
X156851250Y-101000000D02*
X162851250Y-101000000D01*
X156851250Y-101500000D02*
X162851250Y-101500000D01*
X156851250Y-106500000D02*
X162851250Y-106500000D01*
X156851250Y-107000000D02*
X162851250Y-107000000D01*
X162851250Y-101000000D02*
X162851250Y-107000000D01*
%TO.C,SW8*%
X156851250Y-77000000D02*
X156851250Y-83000000D01*
X156851250Y-77000000D02*
X162851250Y-77000000D01*
X156851250Y-77500000D02*
X162851250Y-77500000D01*
X156851250Y-82500000D02*
X162851250Y-82500000D01*
X156851250Y-83000000D02*
X162851250Y-83000000D01*
X162851250Y-77000000D02*
X162851250Y-83000000D01*
%TD*%
M02*
