%TF.GenerationSoftware,KiCad,Pcbnew,9.0.3*%
%TF.CreationDate,2025-09-20T21:36:46-05:00*%
%TF.ProjectId,RPNCalcProject,52504e43-616c-4635-9072-6f6a6563742e,rev?*%
%TF.SameCoordinates,Original*%
%TF.FileFunction,Paste,Top*%
%TF.FilePolarity,Positive*%
%FSLAX46Y46*%
G04 Gerber Fmt 4.6, Leading zero omitted, Abs format (unit mm)*
G04 Created by KiCad (PCBNEW 9.0.3) date 2025-09-20 21:36:46*
%MOMM*%
%LPD*%
G01*
G04 APERTURE LIST*
%ADD10R,1.452500X1.135000*%
G04 APERTURE END LIST*
D10*
%TO.C,SW11*%
X156077500Y-118432500D03*
X156077500Y-113567500D03*
X163625000Y-113567500D03*
X163625000Y-118432500D03*
%TD*%
%TO.C,SW20*%
X170702500Y-142432500D03*
X170702500Y-137567500D03*
X178250000Y-137567500D03*
X178250000Y-142432500D03*
%TD*%
%TO.C,SW25*%
X185327500Y-118432500D03*
X185327500Y-113567500D03*
X192875000Y-113567500D03*
X192875000Y-118432500D03*
%TD*%
%TO.C,SW16*%
X170702500Y-94432500D03*
X170702500Y-89567500D03*
X178250000Y-89567500D03*
X178250000Y-94432500D03*
%TD*%
%TO.C,SW9*%
X156077500Y-94432500D03*
X156077500Y-89567500D03*
X163625000Y-89567500D03*
X163625000Y-94432500D03*
%TD*%
%TO.C,SW17*%
X170702500Y-106432500D03*
X170702500Y-101567500D03*
X178250000Y-101567500D03*
X178250000Y-106432500D03*
%TD*%
%TO.C,SW24*%
X185327500Y-106432500D03*
X185327500Y-101567500D03*
X192875000Y-101567500D03*
X192875000Y-106432500D03*
%TD*%
%TO.C,SW33*%
X199952500Y-130432500D03*
X199952500Y-125567500D03*
X207500000Y-125567500D03*
X207500000Y-130432500D03*
%TD*%
%TO.C,SW4*%
X141452500Y-118432500D03*
X141452500Y-113567500D03*
X149000000Y-113567500D03*
X149000000Y-118432500D03*
%TD*%
%TO.C,SW6*%
X141452500Y-142432500D03*
X141452500Y-137567500D03*
X149000000Y-137567500D03*
X149000000Y-142432500D03*
%TD*%
%TO.C,SW22*%
X185327500Y-82432500D03*
X185327500Y-77567500D03*
X192875000Y-77567500D03*
X192875000Y-82432500D03*
%TD*%
%TO.C,SW32*%
X199952500Y-118432500D03*
X199952500Y-113567500D03*
X207500000Y-113567500D03*
X207500000Y-118432500D03*
%TD*%
%TO.C,SW34*%
X199952500Y-142432500D03*
X199952500Y-137567500D03*
X207500000Y-137567500D03*
X207500000Y-142432500D03*
%TD*%
%TO.C,SW1*%
X141452500Y-82432500D03*
X141452500Y-77567500D03*
X149000000Y-77567500D03*
X149000000Y-82432500D03*
%TD*%
%TO.C,SW7*%
X141452500Y-154432500D03*
X141452500Y-149567500D03*
X149000000Y-149567500D03*
X149000000Y-154432500D03*
%TD*%
%TO.C,SW14*%
X156077500Y-154432500D03*
X156077500Y-149567500D03*
X163625000Y-149567500D03*
X163625000Y-154432500D03*
%TD*%
%TO.C,SW21*%
X170702500Y-154432500D03*
X170702500Y-149567500D03*
X178250000Y-149567500D03*
X178250000Y-154432500D03*
%TD*%
%TO.C,SW29*%
X199952500Y-82432500D03*
X199952500Y-77567500D03*
X207500000Y-77567500D03*
X207500000Y-82432500D03*
%TD*%
%TO.C,SW18*%
X170702500Y-118432500D03*
X170702500Y-113567500D03*
X178250000Y-113567500D03*
X178250000Y-118432500D03*
%TD*%
%TO.C,SW5*%
X141452500Y-130432500D03*
X141452500Y-125567500D03*
X149000000Y-125567500D03*
X149000000Y-130432500D03*
%TD*%
%TO.C,SW19*%
X170702500Y-130432500D03*
X170702500Y-125567500D03*
X178250000Y-125567500D03*
X178250000Y-130432500D03*
%TD*%
%TO.C,SW23*%
X185327500Y-94432500D03*
X185327500Y-89567500D03*
X192875000Y-89567500D03*
X192875000Y-94432500D03*
%TD*%
%TO.C,SW26*%
X185327500Y-130432500D03*
X185327500Y-125567500D03*
X192875000Y-125567500D03*
X192875000Y-130432500D03*
%TD*%
%TO.C,SW12*%
X156077500Y-130432500D03*
X156077500Y-125567500D03*
X163625000Y-125567500D03*
X163625000Y-130432500D03*
%TD*%
%TO.C,SW13*%
X156077500Y-142432500D03*
X156077500Y-137567500D03*
X163625000Y-137567500D03*
X163625000Y-142432500D03*
%TD*%
%TO.C,SW30*%
X199952500Y-94432500D03*
X199952500Y-89567500D03*
X207500000Y-89567500D03*
X207500000Y-94432500D03*
%TD*%
%TO.C,SW3*%
X141452500Y-106432500D03*
X141452500Y-101567500D03*
X149000000Y-101567500D03*
X149000000Y-106432500D03*
%TD*%
%TO.C,SW31*%
X199952500Y-106432500D03*
X199952500Y-101567500D03*
X207500000Y-101567500D03*
X207500000Y-106432500D03*
%TD*%
%TO.C,SW2*%
X141452500Y-94432500D03*
X141452500Y-89567500D03*
X149000000Y-89567500D03*
X149000000Y-94432500D03*
%TD*%
%TO.C,SW35*%
X199952500Y-154432500D03*
X199952500Y-149567500D03*
X207500000Y-149567500D03*
X207500000Y-154432500D03*
%TD*%
%TO.C,SW28*%
X185327500Y-154432500D03*
X185327500Y-149567500D03*
X192875000Y-149567500D03*
X192875000Y-154432500D03*
%TD*%
%TO.C,SW15*%
X170702500Y-82432500D03*
X170702500Y-77567500D03*
X178250000Y-77567500D03*
X178250000Y-82432500D03*
%TD*%
%TO.C,SW27*%
X185327500Y-142432500D03*
X185327500Y-137567500D03*
X192875000Y-137567500D03*
X192875000Y-142432500D03*
%TD*%
%TO.C,SW10*%
X156077500Y-106432500D03*
X156077500Y-101567500D03*
X163625000Y-101567500D03*
X163625000Y-106432500D03*
%TD*%
%TO.C,SW8*%
X156077500Y-82432500D03*
X156077500Y-77567500D03*
X163625000Y-77567500D03*
X163625000Y-82432500D03*
%TD*%
M02*
