%TF.GenerationSoftware,KiCad,Pcbnew,9.0.3*%
%TF.CreationDate,2025-09-20T21:36:46-05:00*%
%TF.ProjectId,RPNCalcProject,52504e43-616c-4635-9072-6f6a6563742e,rev?*%
%TF.SameCoordinates,Original*%
%TF.FileFunction,Paste,Bot*%
%TF.FilePolarity,Positive*%
%FSLAX46Y46*%
G04 Gerber Fmt 4.6, Leading zero omitted, Abs format (unit mm)*
G04 Created by KiCad (PCBNEW 9.0.3) date 2025-09-20 21:36:46*
%MOMM*%
%LPD*%
G01*
G04 APERTURE LIST*
G04 Aperture macros list*
%AMRoundRect*
0 Rectangle with rounded corners*
0 $1 Rounding radius*
0 $2 $3 $4 $5 $6 $7 $8 $9 X,Y pos of 4 corners*
0 Add a 4 corners polygon primitive as box body*
4,1,4,$2,$3,$4,$5,$6,$7,$8,$9,$2,$3,0*
0 Add four circle primitives for the rounded corners*
1,1,$1+$1,$2,$3*
1,1,$1+$1,$4,$5*
1,1,$1+$1,$6,$7*
1,1,$1+$1,$8,$9*
0 Add four rect primitives between the rounded corners*
20,1,$1+$1,$2,$3,$4,$5,0*
20,1,$1+$1,$4,$5,$6,$7,0*
20,1,$1+$1,$6,$7,$8,$9,0*
20,1,$1+$1,$8,$9,$2,$3,0*%
G04 Aperture macros list end*
%ADD10RoundRect,0.237500X0.250000X0.237500X-0.250000X0.237500X-0.250000X-0.237500X0.250000X-0.237500X0*%
%ADD11R,2.000000X3.000000*%
%ADD12RoundRect,0.100000X0.225000X0.100000X-0.225000X0.100000X-0.225000X-0.100000X0.225000X-0.100000X0*%
%ADD13RoundRect,0.090000X0.139000X0.090000X-0.139000X0.090000X-0.139000X-0.090000X0.139000X-0.090000X0*%
%ADD14RoundRect,0.150000X0.150000X-0.875000X0.150000X0.875000X-0.150000X0.875000X-0.150000X-0.875000X0*%
%ADD15RoundRect,0.100000X-0.100000X0.637500X-0.100000X-0.637500X0.100000X-0.637500X0.100000X0.637500X0*%
G04 APERTURE END LIST*
D10*
%TO.C,R2*%
X155310000Y-64810000D03*
X153485000Y-64810000D03*
%TD*%
D11*
%TO.C,J1*%
X206000000Y-40000000D03*
X200000000Y-40000000D03*
X200000000Y-51000000D03*
X206000000Y-51000000D03*
%TD*%
D12*
%TO.C,U4*%
X188900000Y-43200000D03*
X188900000Y-43850000D03*
X188900000Y-44500000D03*
X187000000Y-44500000D03*
X187000000Y-43200000D03*
%TD*%
D13*
%TO.C,C2*%
X184865000Y-47500000D03*
X184000000Y-47500000D03*
%TD*%
D10*
%TO.C,R1*%
X160135000Y-64810000D03*
X158310000Y-64810000D03*
%TD*%
D14*
%TO.C,U2*%
X194255000Y-64150000D03*
X192985000Y-64150000D03*
X191715000Y-64150000D03*
X190445000Y-64150000D03*
X189175000Y-64150000D03*
X187905000Y-64150000D03*
X186635000Y-64150000D03*
X185365000Y-64150000D03*
X184095000Y-64150000D03*
X182825000Y-64150000D03*
X181555000Y-64150000D03*
X180285000Y-64150000D03*
X179015000Y-64150000D03*
X177745000Y-64150000D03*
X177745000Y-54850000D03*
X179015000Y-54850000D03*
X180285000Y-54850000D03*
X181555000Y-54850000D03*
X182825000Y-54850000D03*
X184095000Y-54850000D03*
X185365000Y-54850000D03*
X186635000Y-54850000D03*
X187905000Y-54850000D03*
X189175000Y-54850000D03*
X190445000Y-54850000D03*
X191715000Y-54850000D03*
X192985000Y-54850000D03*
X194255000Y-54850000D03*
%TD*%
D13*
%TO.C,C1*%
X191432500Y-47500000D03*
X190567500Y-47500000D03*
%TD*%
D15*
%TO.C,U3*%
X172725000Y-43637500D03*
X173375000Y-43637500D03*
X174025000Y-43637500D03*
X174675000Y-43637500D03*
X175325000Y-43637500D03*
X175975000Y-43637500D03*
X176625000Y-43637500D03*
X177275000Y-43637500D03*
X177275000Y-49362500D03*
X176625000Y-49362500D03*
X175975000Y-49362500D03*
X175325000Y-49362500D03*
X174675000Y-49362500D03*
X174025000Y-49362500D03*
X173375000Y-49362500D03*
X172725000Y-49362500D03*
%TD*%
M02*
