%TF.GenerationSoftware,KiCad,Pcbnew,9.0.3*%
%TF.CreationDate,2025-09-20T21:36:46-05:00*%
%TF.ProjectId,RPNCalcProject,52504e43-616c-4635-9072-6f6a6563742e,rev?*%
%TF.SameCoordinates,Original*%
%TF.FileFunction,Soldermask,Bot*%
%TF.FilePolarity,Negative*%
%FSLAX46Y46*%
G04 Gerber Fmt 4.6, Leading zero omitted, Abs format (unit mm)*
G04 Created by KiCad (PCBNEW 9.0.3) date 2025-09-20 21:36:46*
%MOMM*%
%LPD*%
G01*
G04 APERTURE LIST*
G04 Aperture macros list*
%AMRoundRect*
0 Rectangle with rounded corners*
0 $1 Rounding radius*
0 $2 $3 $4 $5 $6 $7 $8 $9 X,Y pos of 4 corners*
0 Add a 4 corners polygon primitive as box body*
4,1,4,$2,$3,$4,$5,$6,$7,$8,$9,$2,$3,0*
0 Add four circle primitives for the rounded corners*
1,1,$1+$1,$2,$3*
1,1,$1+$1,$4,$5*
1,1,$1+$1,$6,$7*
1,1,$1+$1,$8,$9*
0 Add four rect primitives between the rounded corners*
20,1,$1+$1,$2,$3,$4,$5,0*
20,1,$1+$1,$4,$5,$6,$7,0*
20,1,$1+$1,$6,$7,$8,$9,0*
20,1,$1+$1,$8,$9,$2,$3,0*%
G04 Aperture macros list end*
%ADD10R,1.000000X1.000000*%
%ADD11C,1.000000*%
%ADD12C,3.000000*%
%ADD13R,1.800000X2.600000*%
%ADD14O,1.800000X2.600000*%
%ADD15RoundRect,0.250000X0.550000X0.550000X-0.550000X0.550000X-0.550000X-0.550000X0.550000X-0.550000X0*%
%ADD16C,1.600000*%
%ADD17RoundRect,0.237500X0.250000X0.237500X-0.250000X0.237500X-0.250000X-0.237500X0.250000X-0.237500X0*%
%ADD18O,1.500000X2.000000*%
%ADD19C,2.000000*%
%ADD20R,2.000000X3.000000*%
%ADD21RoundRect,0.100000X0.225000X0.100000X-0.225000X0.100000X-0.225000X-0.100000X0.225000X-0.100000X0*%
%ADD22RoundRect,0.100000X0.217500X0.100000X-0.217500X0.100000X-0.217500X-0.100000X0.217500X-0.100000X0*%
%ADD23RoundRect,0.150000X0.150000X-0.875000X0.150000X0.875000X-0.150000X0.875000X-0.150000X-0.875000X0*%
%ADD24RoundRect,0.100000X-0.100000X0.637500X-0.100000X-0.637500X0.100000X-0.637500X0.100000X0.637500X0*%
%ADD25RoundRect,0.250000X-0.550000X0.950000X-0.550000X-0.950000X0.550000X-0.950000X0.550000X0.950000X0*%
%ADD26O,1.600000X2.400000*%
G04 APERTURE END LIST*
D10*
%TO.C,TP3*%
X212000000Y-110000000D03*
%TD*%
D11*
%TO.C,TP28*%
X152500000Y-80000000D03*
%TD*%
%TO.C,TP31*%
X196500000Y-80000000D03*
%TD*%
D12*
%TO.C,DS2*%
X137000900Y-38142500D03*
X137000900Y-69143200D03*
X211999480Y-69143200D03*
X212000000Y-38142500D03*
D13*
X142500000Y-38142500D03*
D14*
X145040000Y-38142500D03*
X147580000Y-38142500D03*
X150120000Y-38142500D03*
X152660000Y-38142500D03*
X155200000Y-38142500D03*
X157740000Y-38142500D03*
X160280000Y-38142500D03*
X162820000Y-38142500D03*
X165360000Y-38142500D03*
X167900000Y-38142500D03*
X170440000Y-38142500D03*
X172980000Y-38142500D03*
X175520000Y-38142500D03*
X178060000Y-38142500D03*
X180600000Y-38142500D03*
%TD*%
D11*
%TO.C,TP30*%
X182000000Y-80000000D03*
%TD*%
%TO.C,TP29*%
X167500000Y-80000000D03*
%TD*%
%TO.C,TP27*%
X138000000Y-80000000D03*
%TD*%
%TO.C,TP16*%
X171310000Y-53810000D03*
%TD*%
D15*
%TO.C,D17*%
X168425686Y-74000000D03*
D16*
X165885686Y-74000000D03*
%TD*%
D15*
%TO.C,D26*%
X182925686Y-86000000D03*
D16*
X180385686Y-86000000D03*
%TD*%
D15*
%TO.C,D10*%
X153925686Y-86000000D03*
D16*
X151385686Y-86000000D03*
%TD*%
D15*
%TO.C,D4*%
X138925686Y-110000000D03*
D16*
X136385686Y-110000000D03*
%TD*%
D15*
%TO.C,D8*%
X197925686Y-74000000D03*
D16*
X195385686Y-74000000D03*
%TD*%
D11*
%TO.C,TP20*%
X194500000Y-71000000D03*
%TD*%
D17*
%TO.C,R2*%
X155310000Y-64810000D03*
X153485000Y-64810000D03*
%TD*%
D15*
%TO.C,D33*%
X197925686Y-122000000D03*
D16*
X195385686Y-122000000D03*
%TD*%
D15*
%TO.C,D12*%
X153851372Y-110000000D03*
D16*
X151311372Y-110000000D03*
%TD*%
D18*
%TO.C,J1*%
X205900000Y-45500000D03*
D19*
X201500000Y-45500000D03*
D20*
X206000000Y-40000000D03*
X200000000Y-40000000D03*
X200000000Y-51000000D03*
X206000000Y-51000000D03*
%TD*%
D15*
%TO.C,D13*%
X153851372Y-122000000D03*
D16*
X151311372Y-122000000D03*
%TD*%
D11*
%TO.C,TP17*%
X166810000Y-50310000D03*
%TD*%
D15*
%TO.C,D35*%
X197925686Y-146000000D03*
D16*
X195385686Y-146000000D03*
%TD*%
D11*
%TO.C,TP25*%
X195500000Y-130500000D03*
%TD*%
D15*
%TO.C,D28*%
X183425686Y-110000000D03*
D16*
X180885686Y-110000000D03*
%TD*%
D15*
%TO.C,D3*%
X138925686Y-98000000D03*
D16*
X136385686Y-98000000D03*
%TD*%
D15*
%TO.C,D15*%
X153851372Y-146000000D03*
D16*
X151311372Y-146000000D03*
%TD*%
D15*
%TO.C,D9*%
X153925686Y-74000000D03*
D16*
X151385686Y-74000000D03*
%TD*%
D11*
%TO.C,TP2*%
X197500000Y-37000000D03*
%TD*%
D21*
%TO.C,U4*%
X188900000Y-43200000D03*
X188900000Y-43850000D03*
X188900000Y-44500000D03*
X187000000Y-44500000D03*
X187000000Y-43200000D03*
%TD*%
D11*
%TO.C,TP22*%
X195500000Y-93500000D03*
%TD*%
D15*
%TO.C,D21*%
X168425686Y-122000000D03*
D16*
X165885686Y-122000000D03*
%TD*%
D15*
%TO.C,D34*%
X197925686Y-134000000D03*
D16*
X195385686Y-134000000D03*
%TD*%
D11*
%TO.C,TP5*%
X155310000Y-68310000D03*
%TD*%
D15*
%TO.C,D30*%
X183425686Y-134000000D03*
D16*
X180885686Y-134000000D03*
%TD*%
D11*
%TO.C,TP24*%
X195500000Y-118000000D03*
%TD*%
D15*
%TO.C,D22*%
X168500000Y-134000000D03*
D16*
X165960000Y-134000000D03*
%TD*%
D11*
%TO.C,TP6*%
X152310000Y-50310000D03*
%TD*%
D15*
%TO.C,D25*%
X182925686Y-74000000D03*
D16*
X180385686Y-74000000D03*
%TD*%
D15*
%TO.C,D20*%
X168425686Y-110000000D03*
D16*
X165885686Y-110000000D03*
%TD*%
D11*
%TO.C,TP26*%
X195500000Y-142500000D03*
%TD*%
D15*
%TO.C,D14*%
X153851372Y-134000000D03*
D16*
X151311372Y-134000000D03*
%TD*%
D22*
%TO.C,C2*%
X184840000Y-47500000D03*
X184025000Y-47500000D03*
%TD*%
D15*
%TO.C,D6*%
X139000000Y-134500000D03*
D16*
X136460000Y-134500000D03*
%TD*%
D11*
%TO.C,TP1*%
X187000000Y-39000000D03*
%TD*%
D17*
%TO.C,R1*%
X160135000Y-64810000D03*
X158310000Y-64810000D03*
%TD*%
D11*
%TO.C,TP7*%
X157310000Y-50310000D03*
%TD*%
D15*
%TO.C,D32*%
X197925686Y-110000000D03*
D16*
X195385686Y-110000000D03*
%TD*%
D11*
%TO.C,TP18*%
X162310000Y-50310000D03*
%TD*%
D23*
%TO.C,U2*%
X194255000Y-64150000D03*
X192985000Y-64150000D03*
X191715000Y-64150000D03*
X190445000Y-64150000D03*
X189175000Y-64150000D03*
X187905000Y-64150000D03*
X186635000Y-64150000D03*
X185365000Y-64150000D03*
X184095000Y-64150000D03*
X182825000Y-64150000D03*
X181555000Y-64150000D03*
X180285000Y-64150000D03*
X179015000Y-64150000D03*
X177745000Y-64150000D03*
X177745000Y-54850000D03*
X179015000Y-54850000D03*
X180285000Y-54850000D03*
X181555000Y-54850000D03*
X182825000Y-54850000D03*
X184095000Y-54850000D03*
X185365000Y-54850000D03*
X186635000Y-54850000D03*
X187905000Y-54850000D03*
X189175000Y-54850000D03*
X190445000Y-54850000D03*
X191715000Y-54850000D03*
X192985000Y-54850000D03*
X194255000Y-54850000D03*
%TD*%
D15*
%TO.C,D2*%
X138925686Y-86000000D03*
D16*
X136385686Y-86000000D03*
%TD*%
D22*
%TO.C,C1*%
X191407500Y-47500000D03*
X190592500Y-47500000D03*
%TD*%
D15*
%TO.C,D31*%
X182925686Y-146000000D03*
D16*
X180385686Y-146000000D03*
%TD*%
D24*
%TO.C,U3*%
X172725000Y-43637500D03*
X173375000Y-43637500D03*
X174025000Y-43637500D03*
X174675000Y-43637500D03*
X175325000Y-43637500D03*
X175975000Y-43637500D03*
X176625000Y-43637500D03*
X177275000Y-43637500D03*
X177275000Y-49362500D03*
X176625000Y-49362500D03*
X175975000Y-49362500D03*
X175325000Y-49362500D03*
X174675000Y-49362500D03*
X174025000Y-49362500D03*
X173375000Y-49362500D03*
X172725000Y-49362500D03*
%TD*%
D15*
%TO.C,D29*%
X183425686Y-122000000D03*
D16*
X180885686Y-122000000D03*
%TD*%
D15*
%TO.C,D18*%
X168425686Y-86000000D03*
D16*
X165885686Y-86000000D03*
%TD*%
D15*
%TO.C,D23*%
X168425686Y-146000000D03*
D16*
X165885686Y-146000000D03*
%TD*%
D15*
%TO.C,D27*%
X183425686Y-98000000D03*
D16*
X180885686Y-98000000D03*
%TD*%
D15*
%TO.C,D11*%
X153851372Y-98000000D03*
D16*
X151311372Y-98000000D03*
%TD*%
D15*
%TO.C,D19*%
X168425686Y-98000000D03*
D16*
X165885686Y-98000000D03*
%TD*%
D15*
%TO.C,D5*%
X139000000Y-122000000D03*
D16*
X136460000Y-122000000D03*
%TD*%
D11*
%TO.C,TP4*%
X160310000Y-68310000D03*
%TD*%
%TO.C,TP23*%
X195500000Y-106000000D03*
%TD*%
%TO.C,TP19*%
X164810000Y-65310000D03*
%TD*%
D25*
%TO.C,U1*%
X144570000Y-53690000D03*
D26*
X147110000Y-53690000D03*
X149650000Y-53690000D03*
X152190000Y-53690000D03*
X154730000Y-53690000D03*
X157270000Y-53690000D03*
X159810000Y-53690000D03*
X162350000Y-53690000D03*
X164890000Y-53690000D03*
X167430000Y-53690000D03*
X167430000Y-61310000D03*
X164890000Y-61310000D03*
X162350000Y-61310000D03*
X159810000Y-61310000D03*
X157270000Y-61310000D03*
X154730000Y-61310000D03*
X152190000Y-61310000D03*
X149650000Y-61310000D03*
X147110000Y-61310000D03*
X144570000Y-61310000D03*
%TD*%
D15*
%TO.C,D24*%
X197925686Y-97500000D03*
D16*
X195385686Y-97500000D03*
%TD*%
D15*
%TO.C,D16*%
X197925686Y-85500000D03*
D16*
X195385686Y-85500000D03*
%TD*%
D15*
%TO.C,D7*%
X138925686Y-146500000D03*
D16*
X136385686Y-146500000D03*
%TD*%
D11*
%TO.C,TP21*%
X192500000Y-85500000D03*
%TD*%
D15*
%TO.C,D1*%
X138925686Y-74000000D03*
D16*
X136385686Y-74000000D03*
%TD*%
M02*
